<svg width="800" height="500" viewBox="0 0 1853 1377" fill="none" xmlns="http://www.w3.org/2000/svg">
<path d="M373.757 354H108.243C94.3017 354 83 363.66 83 375.577V667.423C83 679.34 94.3017 689 108.243 689H373.757C387.698 689 399 679.34 399 667.423V375.577C399 363.66 387.698 354 373.757 354Z" fill="#FFD056" stroke="#4C4C4C" stroke-width="6" stroke-linecap="round" stroke-linejoin="round"/>
<path d="M316 354H275V689H316V354Z" fill="#4C4C4C"/>
<path d="M1425.04 1038H1740.96C1757.55 1038 1771 1024.54 1771 1007.93V700.066C1771 683.461 1757.55 670 1740.96 670H1425.04C1408.45 670 1395 683.461 1395 700.066V1007.93C1395 1024.54 1408.45 1038 1425.04 1038Z" fill="#35915F" stroke="#4C4C4C" stroke-width="6" stroke-linecap="round" stroke-linejoin="round"/>
<path d="M1512.37 1038.2H1548.92V670.217H1512.37V1038.2Z" fill="#4C4C4C"/>
<path d="M158.787 560.48C157.819 560.48 156.91 559.886 156.555 558.924C153.151 549.676 148.125 541.558 141.622 534.794C132.165 524.929 126.975 512.001 127 498.383C127.051 470.966 149.324 447.504 176.653 446.077C191.211 445.301 205.064 450.383 215.62 460.39C226.182 470.406 232 483.936 232 498.488C232 512.062 226.816 524.948 217.404 534.769C212.79 539.569 208.893 545.085 205.819 551.163C204.504 553.768 203.37 556.377 202.448 558.914C202.002 560.148 200.642 560.787 199.399 560.336C198.166 559.888 197.527 558.524 197.977 557.288C198.963 554.574 200.171 551.793 201.572 549.019C204.86 542.515 209.033 536.614 213.972 531.474C222.527 522.545 227.242 510.83 227.242 498.488C227.242 485.253 221.951 472.951 212.346 463.843C202.748 454.744 190.152 450.085 176.904 450.831C152.054 452.125 131.805 473.462 131.759 498.393C131.735 510.772 136.457 522.529 145.053 531.497C152.015 538.735 157.386 547.411 161.02 557.279C161.473 558.512 160.844 559.881 159.61 560.334C159.338 560.434 159.062 560.48 158.787 560.48Z" fill="black"/>
<path d="M204.069 574.185H154.723C153.408 574.185 152.344 573.12 152.344 571.805V558.095C152.344 556.779 153.408 555.715 154.723 555.715H204.069C205.384 555.715 206.448 556.779 206.448 558.095V571.805C206.448 573.12 205.384 574.185 204.069 574.185ZM157.102 569.426H201.69V560.474H157.102V569.426Z" fill="black"/>
<path d="M204.069 587.893H154.723C153.408 587.893 152.344 586.829 152.344 585.514V571.806C152.344 570.49 153.408 569.426 154.723 569.426H204.069C205.384 569.426 206.448 570.49 206.448 571.806V585.514C206.448 586.829 205.384 587.893 204.069 587.893ZM157.102 583.135H201.69V574.185H157.102V583.135Z" fill="black"/>
<path d="M179.389 603.023C169.737 603.023 161.884 595.17 161.884 585.518C161.884 584.203 162.948 583.139 164.263 583.139C165.578 583.139 166.643 584.203 166.643 585.518C166.643 592.547 172.361 598.265 179.389 598.265C186.434 598.265 192.164 592.547 192.164 585.518C192.164 584.203 193.228 583.139 194.543 583.139C195.858 583.139 196.922 584.203 196.922 585.518C196.922 595.17 189.057 603.023 179.389 603.023ZM190.6 560.466H168.687C167.658 560.466 166.745 559.804 166.426 558.826L150.367 509.622C149.958 508.372 150.641 507.029 151.888 506.622C153.15 506.209 154.481 506.897 154.888 508.144L170.414 555.708H188.873L204.399 508.144C204.806 506.897 206.139 506.204 207.398 506.622C208.646 507.029 209.329 508.372 208.92 509.622L192.861 558.826C192.542 559.804 191.629 560.466 190.6 560.466Z" fill="black"/>
<path d="M198.881 515.236C192.266 515.236 186.885 509.855 186.885 503.242C186.885 501.927 187.949 500.863 189.264 500.863C190.579 500.863 191.643 501.927 191.643 503.242C191.643 507.232 194.889 510.478 198.881 510.478C202.87 510.478 206.116 507.232 206.116 503.242C206.116 501.927 207.18 500.863 208.495 500.863C209.81 500.863 210.875 501.927 210.875 503.242C210.875 509.855 205.493 515.236 198.881 515.236Z" fill="black"/>
<path d="M179.65 515.236C173.037 515.236 167.656 509.855 167.656 503.242C167.656 501.927 168.72 500.863 170.035 500.863C171.351 500.863 172.415 501.927 172.415 503.242C172.415 507.232 175.661 510.478 179.65 510.478C183.642 510.478 186.888 507.232 186.888 503.242C186.888 501.927 187.952 500.863 189.267 500.863C190.582 500.863 191.646 501.927 191.646 503.242C191.646 509.855 186.265 515.236 179.65 515.236Z" fill="black"/>
<path d="M160.418 515.236C153.803 515.236 148.422 509.855 148.422 503.242C148.422 501.927 149.486 500.863 150.801 500.863C152.116 500.863 153.18 501.927 153.18 503.242C153.18 507.232 156.426 510.478 160.418 510.478C164.41 510.478 167.656 507.232 167.656 503.242C167.656 501.927 168.72 500.863 170.035 500.863C171.35 500.863 172.414 501.927 172.414 503.242C172.414 509.855 167.033 515.236 160.418 515.236Z" fill="black"/>
<path d="M1485.44 262H346.745C329.765 262 316 275.763 316 292.741V1085.97C316 1102.95 329.765 1116.71 346.745 1116.71H1485.44C1502.42 1116.71 1516.19 1102.95 1516.19 1085.97V292.741C1516.19 275.763 1502.42 262 1485.44 262Z" fill="#F4F1ED" stroke="#4C4C4C" stroke-width="6" stroke-linecap="round" stroke-linejoin="round"/>
<path d="M316 333.123H1516.19" stroke="#4C4C4C" stroke-width="6" stroke-linecap="round" stroke-linejoin="round"/>
<path d="M494.649 291.292H488.569C483.771 291.292 479.881 295.181 479.881 299.979V306.058C479.881 310.856 483.771 314.746 488.569 314.746H494.649C499.447 314.746 503.337 310.856 503.337 306.058V299.979C503.337 295.181 499.447 291.292 494.649 291.292Z" fill="#FFEFF0"/>
<path d="M454.635 291.292H448.556C443.757 291.292 439.867 295.181 439.867 299.979V306.058C439.867 310.856 443.757 314.746 448.556 314.746H454.635C459.434 314.746 463.324 310.856 463.324 306.058V299.979C463.324 295.181 459.434 291.292 454.635 291.292Z" fill="#FFEFF0"/>
<path d="M414.622 291.292H408.542C403.744 291.292 399.854 295.181 399.854 299.979V306.058C399.854 310.856 403.744 314.746 408.542 314.746H414.622C419.42 314.746 423.31 310.856 423.31 306.058V299.979C423.31 295.181 419.42 291.292 414.622 291.292Z" fill="#FFEFF0"/>
<path d="M1396.04 287.332H1389.96C1385.16 287.332 1381.27 291.221 1381.27 296.019V302.098C1381.27 306.896 1385.16 310.785 1389.96 310.785H1396.04C1400.83 310.785 1404.72 306.896 1404.72 302.098V296.019C1404.72 291.221 1400.83 287.332 1396.04 287.332Z" fill="#C5DCDD" stroke="#4C4C4C" stroke-width="6" stroke-linecap="round" stroke-linejoin="round"/>
<path d="M1439.04 287.332H1432.96C1428.16 287.332 1424.27 291.221 1424.27 296.019V302.098C1424.27 306.896 1428.16 310.785 1432.96 310.785H1439.04C1443.83 310.785 1447.72 306.896 1447.72 302.098V296.019C1447.72 291.221 1443.83 287.332 1439.04 287.332Z" fill="#FFD056" stroke="#4C4C4C" stroke-width="6" stroke-linecap="round" stroke-linejoin="round"/>
<path d="M1482.04 287.332H1475.96C1471.16 287.332 1467.27 291.221 1467.27 296.019V302.098C1467.27 306.896 1471.16 310.785 1475.96 310.785H1482.04C1486.83 310.785 1490.72 306.896 1490.72 302.098V296.019C1490.72 291.221 1486.83 287.332 1482.04 287.332Z" fill="#F46F40" stroke="#4C4C4C" stroke-width="6" stroke-linecap="round" stroke-linejoin="round"/>
<path d="M1296.51 865.581H539.344C531.288 865.581 524.758 872.11 524.758 880.164V1007.57C524.758 1015.62 531.288 1022.15 539.344 1022.15H1296.51C1304.56 1022.15 1311.09 1015.62 1311.09 1007.57V880.164C1311.09 872.11 1304.56 865.581 1296.51 865.581Z" stroke="#4C4C4C" stroke-width="6" stroke-linecap="round" stroke-linejoin="round"/>
<path d="M1175.3 909.084H1084.54V979.18H1175.3V909.084Z" fill="#E65832" stroke="#4C4C4C" stroke-width="6" stroke-linecap="round" stroke-linejoin="round"/>
<path d="M1213.74 979.188H1175.3V926.608H1194.52L1213.74 954.442V979.188Z" fill="#F4F1ED" stroke="#4C4C4C" stroke-width="6" stroke-linecap="round" stroke-linejoin="round"/>
<path d="M1182.26 936.339H1192.07L1201.88 950.55H1182.26V936.339Z" fill="#F4F1ED" stroke="#4C4C4C" stroke-width="6" stroke-linecap="round" stroke-linejoin="round"/>
<path d="M1111.31 989.722C1116.76 989.722 1121.17 985.31 1121.17 979.867C1121.17 974.424 1116.76 970.012 1111.31 970.012C1105.87 970.012 1101.46 974.424 1101.46 979.867C1101.46 985.31 1105.87 989.722 1111.31 989.722Z" fill="#F4F1ED" stroke="#4C4C4C" stroke-width="6" stroke-linecap="round" stroke-linejoin="round"/>
<path d="M1194.39 989.722C1199.83 989.722 1204.24 985.31 1204.24 979.867C1204.24 974.424 1199.83 970.012 1194.39 970.012C1188.94 970.012 1184.53 974.424 1184.53 979.867C1184.53 985.31 1188.94 989.722 1194.39 989.722Z" fill="#F4F1ED" stroke="#4C4C4C" stroke-width="6" stroke-linecap="round" stroke-linejoin="round"/>
<path d="M1157.08 926.608H1128.13" stroke="#4C4C4C" stroke-width="6" stroke-linecap="round" stroke-linejoin="round"/>
<path d="M1146.64 938.575H1117.7" stroke="#4C4C4C" stroke-width="6" stroke-linecap="round" stroke-linejoin="round"/>
<path d="M1157.08 950.55H1128.13" stroke="#4C4C4C" stroke-width="6" stroke-linecap="round" stroke-linejoin="round"/>
<path d="M1000.54 989.598C1023.05 989.598 1041.31 971.348 1041.31 948.836C1041.31 926.324 1023.05 908.074 1000.54 908.074C978.024 908.074 959.771 926.324 959.771 948.836C959.771 971.348 978.024 989.598 1000.54 989.598Z" fill="#F4F1ED" stroke="#4C4C4C" stroke-width="6" stroke-linecap="round" stroke-linejoin="round"/>
<path d="M1000.71 908.198V989.722" stroke="#4C4C4C" stroke-width="6" stroke-linecap="round" stroke-linejoin="round"/>
<path d="M1007.92 908.447C1007.92 908.447 1035.09 939.975 1007.92 989.474Z" fill="#F4F1ED"/>
<path d="M1007.92 908.447C1007.92 908.447 1035.09 939.975 1007.92 989.474" stroke="#4C4C4C" stroke-width="6" stroke-linecap="round" stroke-linejoin="round"/>
<path d="M993.498 908.447C993.498 908.447 966.323 939.975 993.498 989.474" stroke="#4C4C4C" stroke-width="6" stroke-linecap="round" stroke-linejoin="round"/>
<path d="M959.945 948.96H1041.48" stroke="#4C4C4C" stroke-width="6" stroke-linecap="round" stroke-linejoin="round"/>
<path d="M975.326 980.853C975.326 980.853 1000 966.028 1025.56 980.853" stroke="#4C4C4C" stroke-width="6" stroke-linecap="round" stroke-linejoin="round"/>
<path d="M975.326 917.25C975.326 917.25 1000 932.074 1025.56 917.25" stroke="#4C4C4C" stroke-width="6" stroke-linecap="round" stroke-linejoin="round"/>
<path d="M595.403 968.721C611.908 968.721 625.287 956.003 625.287 940.315C625.287 924.627 611.908 911.909 595.403 911.909C578.899 911.909 565.52 924.627 565.52 940.315C565.52 956.003 578.899 968.721 595.403 968.721Z" fill="#FFEFF0"/>
<path d="M589.762 966.468C606.751 966.468 620.524 953.38 620.524 937.234C620.524 921.089 606.751 908 589.762 908C572.772 908 559 921.089 559 937.234C559 953.38 572.772 966.468 589.762 966.468Z" fill="#FFD056" stroke="#4C4C4C" stroke-width="6" stroke-linecap="round" stroke-linejoin="round"/>
<path d="M605.143 922.609C607.153 924.477 608.757 926.739 609.854 929.255C610.95 931.771 611.517 934.486 611.517 937.23C611.517 939.974 610.95 942.689 609.854 945.205C608.757 947.721 607.153 949.983 605.143 951.851" stroke="#4C4C4C" stroke-width="6" stroke-linecap="round" stroke-linejoin="round"/>
<path d="M611.479 968.141L630.529 988.183C631.347 989.022 632.453 989.52 633.624 989.577C634.795 989.634 635.944 989.245 636.84 988.489V988.489C637.271 988.125 637.623 987.677 637.874 987.173C638.125 986.668 638.271 986.117 638.302 985.554C638.333 984.991 638.249 984.428 638.054 983.899C637.86 983.37 637.56 982.886 637.172 982.477L618.121 962.443C617.303 961.605 616.198 961.107 615.027 961.048C613.857 960.99 612.708 961.376 611.81 962.129C611.379 962.493 611.027 962.941 610.776 963.445C610.525 963.95 610.379 964.501 610.348 965.064C610.317 965.627 610.401 966.19 610.596 966.719C610.79 967.248 611.091 967.732 611.479 968.141V968.141Z" fill="#FFD056" stroke="#4C4C4C" stroke-width="6" stroke-linecap="round" stroke-linejoin="round"/>
<path d="M896.435 918.054H838.705C835.667 918.054 833.205 920.516 833.205 923.553V981.276C833.205 984.313 835.667 986.775 838.705 986.775H896.435C899.473 986.775 901.935 984.313 901.935 981.276V923.553C901.935 920.516 899.473 918.054 896.435 918.054Z" fill="#C5DCDD" stroke="#4C4C4C" stroke-width="6" stroke-linecap="round" stroke-linejoin="round"/>
<path d="M880.457 918.054H827.879C824.841 918.054 822.379 920.516 822.379 923.553V981.276C822.379 984.313 824.841 986.775 827.879 986.775H880.457C883.494 986.775 885.957 984.313 885.957 981.276V923.553C885.957 920.516 883.494 918.054 880.457 918.054Z" fill="#C5DCDD" stroke="#4C4C4C" stroke-width="6" stroke-linecap="round" stroke-linejoin="round"/>
<path d="M855.203 990.51V913.731" stroke="#4C4C4C" stroke-width="6" stroke-linecap="round" stroke-linejoin="round"/>
<path d="M819 952.249H904.983" stroke="#4C4C4C" stroke-width="6" stroke-linecap="round" stroke-linejoin="round"/>
<path d="M865.499 896H870.551C873.282 896 875.9 897.085 877.831 899.015C879.762 900.946 880.846 903.564 880.846 906.294V907.752C880.846 910.482 879.762 913.1 877.831 915.031C875.9 916.961 873.282 918.046 870.551 918.046H855.203V906.335C855.203 903.605 856.288 900.987 858.219 899.056C860.149 897.126 862.768 896.041 865.499 896.041V896Z" stroke="#4C4C4C" stroke-width="6" stroke-linecap="round" stroke-linejoin="round"/>
<path d="M855.089 918.062H841.066C838.909 918.062 836.84 917.205 835.315 915.68C833.789 914.155 832.932 912.087 832.932 909.93V908.779C832.932 906.622 833.789 904.553 835.315 903.028C836.84 901.503 838.909 900.646 841.066 900.646H846.98C849.137 900.646 851.206 901.503 852.731 903.028C854.256 904.553 855.113 906.622 855.113 908.779V918.062H855.089Z" stroke="#4C4C4C" stroke-width="6" stroke-linecap="round" stroke-linejoin="round"/>
<path d="M868.026 932.133L855.088 918.054L847.17 925.979" stroke="#4C4C4C" stroke-width="6" stroke-linecap="round" stroke-linejoin="round"/>
<path d="M741.064 897H742.339C744.727 897 747.017 897.948 748.706 899.637C750.394 901.325 751.343 903.615 751.343 906.002V918.292H732.061V906.002C732.061 903.615 733.009 901.325 734.698 899.637C736.386 897.948 738.676 897 741.064 897V897Z" stroke="#4C4C4C" stroke-width="6" stroke-linecap="round" stroke-linejoin="round"/>
<path d="M734.28 897H735.556C737.943 897 740.234 897.948 741.922 899.637C743.61 901.325 744.559 903.615 744.559 906.002V918.292H725.285V906.002C725.285 903.615 726.234 901.325 727.922 899.637C729.611 897.948 731.901 897 734.288 897H734.28Z" stroke="#4C4C4C" stroke-width="6" stroke-linecap="round" stroke-linejoin="round"/>
<path d="M771.27 989.117H750.447L759.128 918.251H762.59L771.27 989.117Z" fill="#4C4C4C"/>
<path d="M759.128 918.251L750.448 989.117H701L709.672 918.251H759.128Z" fill="#328257" stroke="#4C4C4C" stroke-width="6" stroke-linecap="round" stroke-linejoin="round"/>
<path d="M1056.61 577.066H889.385C881.329 577.066 874.799 583.595 874.799 591.65V758.856C874.799 766.91 881.329 773.44 889.385 773.44H1056.61C1064.67 773.44 1071.2 766.91 1071.2 758.856V591.65C1071.2 583.595 1064.67 577.066 1056.61 577.066Z" fill="#4C4C4C"/>
<path d="M1048.45 568.801H881.226C873.171 568.801 866.641 575.33 866.641 583.385V750.59C866.641 758.645 873.171 765.174 881.226 765.174H1048.45C1056.51 765.174 1063.04 758.645 1063.04 750.59V583.385C1063.04 575.33 1056.51 568.801 1048.45 568.801Z" fill="#FFE4A0" stroke="#4C4C4C" stroke-width="6" stroke-linecap="round" stroke-linejoin="round"/>
<path d="M1024.11 592.925C1036.1 592.925 1045.82 583.207 1045.82 571.219C1045.82 559.231 1036.1 549.513 1024.11 549.513C1012.12 549.513 1002.4 559.231 1002.4 571.219C1002.4 583.207 1012.12 592.925 1024.11 592.925Z" fill="#328257" stroke="#4C4C4C" stroke-width="6" stroke-linecap="round" stroke-linejoin="round"/>
<path d="M1016.12 570.59L1023.24 580.652L1032.11 561.786" stroke="#4C4C4C" stroke-width="6" stroke-linecap="round" stroke-linejoin="round"/>
<path d="M940.086 610.818L938.389 605.689C938.173 605.04 937.786 604.47 937.272 604.045C936.758 603.62 936.138 603.357 935.485 603.287L929.361 602.643L935.711 600.554C936.236 600.381 936.533 599.796 936.374 599.245C936.214 598.695 935.658 598.39 935.132 598.564L924.337 602.114L902.791 599.85C902.137 599.783 901.476 599.911 900.885 600.22C900.294 600.529 899.796 601.006 899.45 601.596L896.736 606.24C896.575 606.507 896.472 606.807 896.434 607.119C896.433 607.129 896.427 607.137 896.426 607.145L896.427 607.152C896.426 607.156 896.425 607.16 896.424 607.163L890.826 660.423C890.798 660.741 890.839 661.066 890.936 661.334L892.613 666.408C892.836 667.073 893.233 667.657 893.761 668.093C894.288 668.529 894.924 668.799 895.594 668.872L928.172 672.296C929.536 672.439 930.88 671.736 931.601 670.504L934.284 665.915C934.447 665.652 934.554 665.343 934.598 664.99L940.196 611.729C940.225 611.42 940.188 611.108 940.086 610.818ZM901.146 602.672C901.445 602.16 902.004 601.867 902.573 601.927L935.267 605.363C935.835 605.423 936.323 605.826 936.509 606.39L938.215 611.557L937.941 613.933L937.703 616.007L932.451 661.674L893.13 657.541L892.839 657.51C892.779 657.504 892.933 659.456 892.919 659.616C892.918 659.63 892.916 659.631 892.912 659.616L893.13 657.541L897.916 612.131L937.703 616.007L937.908 616.027C938.17 616.054 938.434 615.971 938.64 615.796C938.845 615.621 938.977 615.368 939.006 615.093C939.035 614.817 938.959 614.542 938.794 614.328C938.629 614.114 938.389 613.978 938.126 613.951L937.941 613.933L897.461 609.984L901.146 602.672ZM929.907 669.428C929.75 669.696 929.525 669.912 929.256 670.052C928.988 670.192 928.689 670.25 928.392 670.22L895.813 666.796C895.517 666.764 895.236 666.645 895.003 666.452C894.77 666.259 894.594 666 894.496 665.706L892.912 659.616L892.919 659.616L932.246 663.936L929.907 669.428Z" fill="#BDBDBD"/>
<path d="M932.451 661.674L937.703 616.007L897.916 612.131L893.13 657.541L932.451 661.674Z" fill="#BDBDBD"/>
<path d="M902.573 601.927C902.004 601.867 901.445 602.16 901.146 602.672L897.461 609.984L937.941 613.933L938.215 611.557L936.509 606.39C936.323 605.826 935.835 605.423 935.267 605.363L902.573 601.927Z" fill="#BDBDBD"/>
<path d="M892.919 659.616C892.918 659.63 892.916 659.631 892.912 659.616L894.496 665.706C894.594 666 894.77 666.259 895.003 666.452C895.236 666.645 895.517 666.764 895.813 666.796L928.392 670.22C928.689 670.25 928.988 670.192 929.256 670.052C929.525 669.912 929.75 669.696 929.907 669.428L932.246 663.936L892.919 659.616Z" fill="#BDBDBD"/>
<path d="M892.912 659.616L894.496 665.706C894.594 666 894.77 666.259 895.003 666.452C895.236 666.645 895.517 666.764 895.813 666.796L928.392 670.22C928.689 670.25 928.988 670.192 929.256 670.052C929.525 669.912 929.75 669.696 929.907 669.428L932.246 663.936L892.919 659.616M892.912 659.616L893.13 657.541M892.912 659.616C892.916 659.631 892.918 659.63 892.919 659.616M892.912 659.616L892.919 659.616M937.703 616.007L932.451 661.674L893.13 657.541M937.703 616.007L897.916 612.131L893.13 657.541M937.703 616.007L937.908 616.027C938.17 616.054 938.434 615.971 938.64 615.796C938.845 615.621 938.977 615.368 939.006 615.093C939.035 614.817 938.959 614.542 938.794 614.328C938.629 614.114 938.389 613.978 938.126 613.951L937.941 613.933M937.703 616.007L937.941 613.933M893.13 657.541L892.839 657.51C892.779 657.504 892.933 659.456 892.919 659.616M937.941 613.933L897.461 609.984L901.146 602.672C901.445 602.16 902.004 601.867 902.573 601.927L935.267 605.363C935.835 605.423 936.323 605.826 936.509 606.39L938.215 611.557L937.941 613.933ZM940.086 610.818L938.389 605.689C938.173 605.04 937.786 604.47 937.272 604.045C936.758 603.62 936.138 603.357 935.485 603.287L929.361 602.643L935.711 600.554C936.236 600.381 936.533 599.796 936.374 599.245C936.214 598.695 935.658 598.39 935.132 598.564L924.337 602.114L902.791 599.85C902.137 599.783 901.476 599.911 900.885 600.22C900.294 600.529 899.796 601.006 899.45 601.596L896.736 606.24C896.575 606.507 896.472 606.807 896.434 607.119C896.433 607.129 896.427 607.137 896.426 607.145L896.427 607.152C896.426 607.156 896.425 607.16 896.424 607.163L890.826 660.423C890.798 660.741 890.839 661.066 890.936 661.334L892.613 666.408C892.836 667.073 893.233 667.657 893.761 668.093C894.288 668.529 894.924 668.799 895.594 668.872L928.172 672.296C929.536 672.439 930.88 671.736 931.601 670.504L934.284 665.915C934.447 665.652 934.554 665.343 934.598 664.99L940.196 611.729C940.225 611.42 940.188 611.108 940.086 610.818Z" stroke="#BDBDBD" stroke-width="3"/>
<path d="M938.296 602.779L936.35 597.238C936.102 596.537 935.661 595.921 935.078 595.459C934.495 594.998 933.793 594.711 933.054 594.632L926.129 593.904L933.295 591.686C933.887 591.502 934.219 590.872 934.036 590.277C933.853 589.683 933.223 589.351 932.629 589.535L920.447 593.306L896.08 590.745C895.341 590.669 894.594 590.803 893.928 591.133C893.262 591.463 892.702 591.975 892.314 592.609L889.272 597.603C889.091 597.89 888.976 598.213 888.935 598.549C888.934 598.56 888.927 598.569 888.926 598.578L888.928 598.586C888.926 598.59 888.925 598.594 888.924 598.598L882.89 656.009C882.86 656.353 882.908 656.703 883.019 656.993L884.943 662.474C885.198 663.193 885.651 663.825 886.249 664.299C886.847 664.772 887.567 665.066 888.326 665.149L925.168 669.021C926.71 669.183 928.226 668.432 929.034 667.107L932.041 662.173C932.224 661.889 932.343 661.557 932.391 661.176L938.426 603.763C938.457 603.43 938.413 603.093 938.296 602.779ZM894.237 593.78C894.572 593.228 895.203 592.916 895.846 592.983L932.819 596.869C933.462 596.937 934.015 597.374 934.229 597.984L936.185 603.566L929.946 657.588L885.149 652.879C885.075 652.872 885.3 655.357 885.243 655.151L890.638 603.963L935.863 608.385C936.16 608.416 936.457 608.328 936.688 608.141C936.92 607.953 937.068 607.681 937.099 607.384C937.131 607.087 937.043 606.79 936.855 606.558C936.667 606.326 936.395 606.179 936.098 606.147L890.112 601.645L894.237 593.78ZM927.114 665.937C926.937 666.225 926.683 666.457 926.381 666.607C926.079 666.756 925.74 666.818 925.405 666.783L888.562 662.911C888.227 662.875 887.908 662.744 887.644 662.535C887.38 662.326 887.18 662.046 887.067 661.728L885.243 655.151L929.727 660.027L927.114 665.937Z" fill="#4C4C4C"/>
<path d="M885.243 655.151C885.3 655.357 885.075 652.872 885.149 652.879L929.946 657.588L936.185 603.566L934.229 597.984C934.015 597.374 933.462 596.937 932.819 596.869L895.846 592.983C895.203 592.916 894.572 593.228 894.237 593.78L890.112 601.645L936.098 606.147C936.395 606.179 936.667 606.326 936.855 606.558C937.043 606.79 937.131 607.087 937.099 607.384C937.068 607.681 936.92 607.953 936.688 608.141C936.457 608.328 936.16 608.416 935.863 608.385L890.638 603.963L885.243 655.151ZM885.243 655.151L887.067 661.728C887.18 662.046 887.38 662.326 887.644 662.535C887.908 662.744 888.227 662.875 888.562 662.911L925.405 666.783C925.74 666.818 926.079 666.756 926.381 666.607C926.683 666.457 926.937 666.225 927.114 665.937L929.727 660.027L885.243 655.151ZM938.296 602.779L936.35 597.238C936.102 596.537 935.661 595.921 935.078 595.459C934.495 594.998 933.793 594.711 933.054 594.632L926.129 593.904L933.295 591.686C933.887 591.502 934.219 590.872 934.036 590.277C933.853 589.683 933.223 589.351 932.629 589.535L920.447 593.306L896.08 590.745C895.341 590.669 894.594 590.803 893.928 591.133C893.262 591.463 892.702 591.975 892.314 592.609L889.272 597.603C889.091 597.89 888.976 598.213 888.935 598.549C888.934 598.56 888.927 598.569 888.926 598.578L888.928 598.586C888.926 598.59 888.925 598.594 888.924 598.598L882.89 656.009C882.86 656.353 882.908 656.703 883.019 656.993L884.943 662.474C885.198 663.193 885.651 663.825 886.249 664.299C886.847 664.772 887.567 665.066 888.326 665.149L925.168 669.021C926.71 669.183 928.226 668.432 929.034 667.107L932.041 662.173C932.224 661.889 932.343 661.557 932.391 661.176L938.426 603.763C938.457 603.43 938.413 603.093 938.296 602.779Z" stroke="#4C4C4C" stroke-width="3"/>
<path d="M912.364 613.645C902.922 612.653 894.433 619.528 893.44 628.97C892.448 638.411 899.322 646.9 908.764 647.893C918.207 648.885 926.694 642.011 927.687 632.57C928.679 623.127 921.807 614.638 912.364 613.645V613.645ZM912.129 615.883C919.279 616.634 924.732 622.336 925.449 629.219C925.003 629.632 923.44 630.973 921.253 631.717C917.88 632.865 914.713 632.007 911.843 629.168C905.157 622.565 898.536 625.436 896.132 626.867C898.014 619.897 904.726 615.105 912.129 615.883ZM909 645.654C900.878 644.8 894.952 637.565 895.664 629.461C895.983 629.527 896.325 629.469 896.598 629.249C896.869 629.028 903.343 623.933 910.261 630.767C912.705 633.183 915.152 634.171 917.343 634.401C919.093 634.585 920.682 634.287 921.977 633.847C923.394 633.365 924.576 632.677 925.464 632.061C925.456 632.152 925.459 632.242 925.449 632.332C924.586 640.541 917.207 646.517 909 645.654V645.654Z" fill="#4C4C4C" stroke="#4C4C4C" stroke-width="3"/>
<path d="M1017.7 610.716L1013.19 607.875C1012.62 607.516 1011.96 607.326 1011.29 607.326C1010.63 607.327 1009.98 607.517 1009.42 607.876L1004.23 611.248L1007.91 605.649C1008.21 605.186 1008.08 604.552 1007.61 604.233C1007.15 603.914 1006.52 604.033 1006.22 604.497L999.971 614.014L981.7 625.88C981.146 626.241 980.708 626.756 980.437 627.364C980.166 627.973 980.073 628.65 980.168 629.318L980.926 634.572C980.965 634.877 981.07 635.171 981.234 635.432C981.24 635.441 981.24 635.451 981.244 635.457L981.25 635.463C981.251 635.466 981.252 635.469 981.254 635.473L1009.92 679.615C1010.1 679.876 1010.33 680.098 1010.57 680.241L1015.03 683.052C1015.62 683.419 1016.29 683.613 1016.98 683.613C1017.66 683.613 1018.33 683.418 1018.9 683.05L1046.52 665.11C1047.68 664.359 1048.3 662.975 1048.09 661.58L1047.35 656.389C1047.31 656.085 1047.2 655.782 1047.02 655.484L1018.35 611.341C1018.18 611.087 1017.96 610.873 1017.7 610.716ZM982.164 629.069C982.079 628.49 982.336 627.914 982.818 627.6L996.681 618.598L1010.54 609.596C1011.02 609.283 1011.66 609.283 1012.15 609.595L1016.69 612.459L1017.95 614.443L1019.05 616.175L1043.28 654.311L1009.94 675.964L1009.69 676.125C1009.64 676.158 1010.97 677.549 1011.06 677.68C1011.07 677.692 1011.07 677.694 1011.05 677.685L1009.94 675.964L985.504 638.319L1019.05 616.175L1019.23 616.061C1019.45 615.917 1019.6 615.687 1019.66 615.424C1019.71 615.16 1019.66 614.884 1019.51 614.656C1019.36 614.428 1019.13 614.266 1018.87 614.207C1018.6 614.148 1018.33 614.196 1018.11 614.341L1017.95 614.443L983.817 636.969L982.164 629.069ZM1046.1 661.828C1046.14 662.131 1046.1 662.439 1045.98 662.715C1045.86 662.991 1045.66 663.224 1045.41 663.388L1017.78 681.329C1017.53 681.492 1017.23 681.578 1016.93 681.578C1016.63 681.578 1016.33 681.492 1016.07 681.329L1011.05 677.685L1011.06 677.68L1044.52 656.165L1046.1 661.828Z" fill="#BDBDBD"/>
<path d="M1043.28 654.311L1019.05 616.175L985.504 638.319L1009.94 675.964L1043.28 654.311Z" fill="#BDBDBD"/>
<path d="M982.818 627.6C982.336 627.914 982.079 628.49 982.164 629.069L983.817 636.969L1017.95 614.443L1016.69 612.459L1012.15 609.595C1011.66 609.283 1011.02 609.283 1010.54 609.596L996.681 618.598L982.818 627.6Z" fill="#BDBDBD"/>
<path d="M1011.06 677.68C1011.07 677.692 1011.07 677.694 1011.05 677.685L1016.07 681.329C1016.33 681.492 1016.63 681.578 1016.93 681.578C1017.23 681.578 1017.53 681.492 1017.78 681.329L1045.41 663.388C1045.66 663.224 1045.86 662.991 1045.98 662.715C1046.1 662.439 1046.14 662.131 1046.1 661.828L1044.52 656.165L1011.06 677.68Z" fill="#BDBDBD"/>
<path d="M1011.05 677.685L1016.07 681.329C1016.33 681.492 1016.63 681.578 1016.93 681.578C1017.23 681.578 1017.53 681.492 1017.78 681.329L1045.41 663.388C1045.66 663.224 1045.86 662.991 1045.98 662.715C1046.1 662.439 1046.14 662.131 1046.1 661.828L1044.52 656.165L1011.06 677.68M1011.05 677.685L1009.94 675.964M1011.05 677.685C1011.07 677.694 1011.07 677.692 1011.06 677.68M1011.05 677.685L1011.06 677.68M1019.05 616.175L1043.28 654.311L1009.94 675.964M1019.05 616.175L985.504 638.319L1009.94 675.964M1019.05 616.175L1019.23 616.061C1019.45 615.917 1019.6 615.687 1019.66 615.424C1019.71 615.16 1019.66 614.884 1019.51 614.656C1019.36 614.428 1019.13 614.266 1018.87 614.207C1018.6 614.148 1018.33 614.196 1018.11 614.341L1017.95 614.443M1019.05 616.175L1017.95 614.443M1009.94 675.964L1009.69 676.125C1009.64 676.158 1010.97 677.549 1011.06 677.68M1017.95 614.443L983.817 636.969L982.164 629.069C982.079 628.49 982.336 627.914 982.818 627.6L996.681 618.598L1010.54 609.596C1011.02 609.283 1011.66 609.283 1012.15 609.595L1016.69 612.459L1017.95 614.443ZM1017.7 610.716L1013.19 607.875C1012.62 607.516 1011.96 607.326 1011.29 607.326C1010.63 607.327 1009.98 607.517 1009.42 607.876L1004.23 611.248L1007.91 605.649C1008.21 605.186 1008.08 604.552 1007.61 604.233C1007.15 603.914 1006.52 604.033 1006.22 604.497L999.971 614.014L981.7 625.88C981.146 626.241 980.708 626.756 980.437 627.364C980.166 627.973 980.073 628.65 980.168 629.318L980.926 634.572C980.965 634.877 981.07 635.171 981.234 635.432C981.24 635.441 981.24 635.451 981.244 635.457L981.25 635.463C981.251 635.466 981.252 635.469 981.254 635.473L1009.92 679.615C1010.1 679.876 1010.33 680.098 1010.57 680.241L1015.03 683.052C1015.62 683.419 1016.29 683.613 1016.98 683.613C1017.66 683.613 1018.33 683.418 1018.9 683.05L1046.52 665.11C1047.68 664.359 1048.3 662.975 1048.09 661.58L1047.35 656.389C1047.31 656.085 1047.2 655.782 1047.02 655.484L1018.35 611.341C1018.18 611.087 1017.96 610.873 1017.7 610.716Z" stroke="#BDBDBD" stroke-width="3"/>
<path d="M1011.45 605.753L1006.45 602.671C1005.81 602.282 1005.08 602.08 1004.34 602.089C1003.6 602.098 1002.87 602.316 1002.25 602.72L996.406 606.512L1000.58 600.279C1000.92 599.763 1000.79 599.064 1000.27 598.718C999.753 598.371 999.054 598.51 998.708 599.026L991.614 609.623L971.066 622.967C970.443 623.373 969.948 623.948 969.638 624.624C969.327 625.299 969.214 626.049 969.312 626.786L970.091 632.582C970.131 632.918 970.245 633.242 970.425 633.529C970.431 633.538 970.431 633.549 970.436 633.557L970.442 633.562C970.443 633.566 970.444 633.57 970.447 633.573L1001.89 681.988C1002.08 682.274 1002.34 682.516 1002.61 682.672L1007.55 685.721C1008.2 686.119 1008.95 686.325 1009.71 686.316C1010.48 686.307 1011.22 686.083 1011.86 685.67L1042.93 665.494C1044.23 664.649 1044.94 663.112 1044.73 661.574L1043.96 655.846C1043.93 655.511 1043.81 655.178 1043.61 654.851L1012.17 606.436C1011.98 606.157 1011.74 605.923 1011.45 605.753ZM971.543 626.486C971.456 625.847 971.75 625.207 972.293 624.854L1003.47 604.606C1004.01 604.254 1004.72 604.246 1005.27 604.585L1010.3 607.692L1039.45 653.602L1001.67 678.134C1001.61 678.175 1003.35 679.965 1003.18 679.84L975.155 636.665L1013.08 611.64C1013.33 611.478 1013.51 611.223 1013.57 610.931C1013.63 610.639 1013.58 610.334 1013.41 610.084C1013.25 609.834 1013 609.658 1012.71 609.596C1012.41 609.534 1012.11 609.591 1011.86 609.753L973.288 635.194L971.543 626.486ZM1042.5 661.873C1042.55 662.207 1042.5 662.547 1042.36 662.854C1042.21 663.161 1041.99 663.421 1041.71 663.606L1010.64 683.782C1010.36 683.965 1010.03 684.064 1009.69 684.068C1009.35 684.072 1009.02 683.98 1008.73 683.804L1003.18 679.84L1040.81 655.635L1042.5 661.873Z" fill="#4C4C4C"/>
<path d="M1003.18 679.84C1003.35 679.965 1001.61 678.175 1001.67 678.134L1039.45 653.602L1010.3 607.692L1005.27 604.585C1004.72 604.246 1004.01 604.254 1003.47 604.606L972.293 624.854C971.75 625.207 971.456 625.847 971.543 626.486L973.288 635.194L1011.86 609.753C1012.11 609.591 1012.41 609.534 1012.71 609.596C1013 609.658 1013.25 609.834 1013.41 610.084C1013.58 610.334 1013.63 610.639 1013.57 610.931C1013.51 611.223 1013.33 611.478 1013.08 611.64L975.155 636.665L1003.18 679.84ZM1003.18 679.84L1008.73 683.804C1009.02 683.98 1009.35 684.072 1009.69 684.068C1010.03 684.064 1010.36 683.965 1010.64 683.782L1041.71 663.606C1041.99 663.421 1042.21 663.161 1042.36 662.854C1042.5 662.547 1042.55 662.207 1042.5 661.873L1040.81 655.635L1003.18 679.84ZM1011.45 605.753L1006.45 602.671C1005.81 602.282 1005.08 602.08 1004.34 602.089C1003.6 602.098 1002.87 602.316 1002.25 602.72L996.406 606.512L1000.58 600.279C1000.92 599.763 1000.79 599.064 1000.27 598.718C999.753 598.371 999.054 598.51 998.708 599.026L991.614 609.623L971.066 622.967C970.443 623.373 969.948 623.948 969.638 624.624C969.327 625.299 969.214 626.049 969.312 626.786L970.091 632.582C970.131 632.918 970.245 633.242 970.425 633.529C970.431 633.538 970.431 633.549 970.436 633.557L970.442 633.562C970.443 633.566 970.444 633.57 970.447 633.573L1001.89 681.988C1002.08 682.274 1002.34 682.516 1002.61 682.672L1007.55 685.721C1008.2 686.119 1008.95 686.325 1009.71 686.316C1010.48 686.307 1011.22 686.083 1011.86 685.67L1042.93 665.494C1044.23 664.649 1044.94 663.112 1044.73 661.574L1043.96 655.846C1043.93 655.511 1043.81 655.178 1043.61 654.851L1012.17 606.436C1011.98 606.157 1011.74 605.923 1011.45 605.753Z" stroke="#4C4C4C" stroke-width="3"/>
<path d="M998.132 630.516C990.169 635.687 987.899 646.373 993.07 654.335C998.24 662.297 1008.92 664.568 1016.89 659.397C1024.85 654.226 1027.12 643.542 1021.95 635.58C1016.78 627.617 1006.09 625.345 998.132 630.516V630.516ZM999.357 632.403C1005.39 628.488 1013.21 629.487 1018.1 634.385C1018.01 634.986 1017.64 637.012 1016.41 638.967C1014.51 641.982 1011.51 643.308 1007.5 642.908C998.144 641.984 994.805 648.382 993.838 651.007C990.914 644.406 993.114 636.458 999.357 632.403ZM1015.66 657.509C1008.81 661.957 999.654 660.063 995.107 653.317C995.396 653.168 995.626 652.908 995.698 652.565C995.771 652.222 997.595 644.188 1007.27 645.146C1010.69 645.486 1013.22 644.714 1015.06 643.514C1016.54 642.555 1017.59 641.323 1018.32 640.166C1019.11 638.9 1019.6 637.621 1019.9 636.585C1019.95 636.66 1020.01 636.728 1020.06 636.804C1024.56 643.727 1022.58 653.014 1015.66 657.509V657.509Z" fill="#4C4C4C" stroke="#4C4C4C" stroke-width="3"/>
<path d="M983.802 696.875L983.823 691.553C983.824 690.879 983.638 690.222 983.286 689.658C982.934 689.094 982.431 688.646 981.833 688.366L976.236 685.756L982.916 685.902C983.469 685.913 983.935 685.467 983.959 684.903C983.983 684.339 983.553 683.873 982.999 683.861L971.643 683.613L951.947 674.429C951.348 674.151 950.681 674.053 950.023 674.146C949.365 674.239 948.742 674.518 948.227 674.953L944.181 678.376C943.943 678.571 943.75 678.816 943.615 679.093C943.611 679.103 943.603 679.108 943.599 679.115L943.598 679.122C943.595 679.125 943.593 679.128 943.591 679.132L921.374 726.777C921.246 727.064 921.182 727.379 921.188 727.66L921.166 732.925C921.166 733.616 921.357 734.29 921.719 734.868C922.08 735.447 922.596 735.906 923.208 736.194L952.989 750.081C954.236 750.663 955.733 750.452 956.808 749.544L960.807 746.162C961.045 745.97 961.245 745.719 961.399 745.405L983.617 697.758C983.743 697.481 983.806 697.179 983.802 696.875ZM949.492 676.51C949.938 676.132 950.561 676.044 951.081 676.287L980.968 690.223C981.488 690.466 981.822 691 981.819 691.586L981.794 696.947L980.781 699.065L979.896 700.913L960.417 741.618L924.472 724.857L924.206 724.732C924.151 724.707 923.677 726.571 923.613 726.716C923.608 726.728 923.605 726.728 923.606 726.713L924.472 724.857L943.428 684.237L979.896 700.913L980.084 700.999C980.324 701.111 980.6 701.12 980.85 701.025C981.101 700.93 981.307 700.739 981.421 700.492C981.536 700.246 981.551 699.965 981.463 699.712C981.374 699.459 981.19 699.254 980.95 699.142L980.781 699.065L943.679 682.093L949.492 676.51ZM955.545 747.987C955.311 748.184 955.028 748.311 954.73 748.353C954.431 748.395 954.129 748.351 953.857 748.225L924.075 734.338C923.805 734.21 923.576 734.007 923.417 733.751C923.257 733.496 923.173 733.198 923.173 732.892L923.606 726.713L923.613 726.716L959.505 743.653L955.545 747.987Z" fill="#BDBDBD"/>
<path d="M951.081 676.287C950.561 676.044 949.938 676.132 949.492 676.51L943.679 682.093L980.781 699.065L981.794 696.947L981.819 691.586C981.822 691 981.488 690.466 980.968 690.223L951.081 676.287Z" fill="#BDBDBD"/>
<path d="M924.472 724.857L960.417 741.618L979.896 700.913L943.428 684.237L924.472 724.857Z" fill="#BDBDBD"/>
<path d="M923.613 726.716C923.608 726.728 923.605 726.728 923.606 726.713L923.173 732.892C923.173 733.198 923.257 733.496 923.417 733.751C923.576 734.007 923.805 734.21 924.075 734.338L953.857 748.225C954.129 748.351 954.431 748.395 954.73 748.353C955.028 748.311 955.311 748.184 955.545 747.987L959.505 743.653L923.613 726.716Z" fill="#BDBDBD"/>
<path d="M923.606 726.713L923.173 732.892C923.173 733.198 923.257 733.496 923.417 733.751C923.576 734.007 923.805 734.21 924.075 734.338L953.857 748.225C954.129 748.351 954.431 748.395 954.73 748.353C955.028 748.311 955.311 748.184 955.545 747.987L959.505 743.653L923.613 726.716M923.606 726.713L924.472 724.857M923.606 726.713C923.605 726.728 923.608 726.728 923.613 726.716M923.606 726.713L923.613 726.716M980.781 699.065L943.679 682.093L949.492 676.51C949.938 676.132 950.561 676.044 951.081 676.287L980.968 690.223C981.488 690.466 981.822 691 981.819 691.586L981.794 696.947L980.781 699.065ZM980.781 699.065L980.95 699.142C981.19 699.254 981.374 699.459 981.463 699.712C981.551 699.965 981.536 700.246 981.421 700.492C981.307 700.739 981.101 700.93 980.85 701.025C980.6 701.12 980.324 701.111 980.084 700.999L979.896 700.913M980.781 699.065L979.896 700.913M924.472 724.857L960.417 741.618L979.896 700.913M924.472 724.857L943.428 684.237L979.896 700.913M924.472 724.857L924.206 724.732C924.151 724.707 923.677 726.571 923.613 726.716M983.802 696.875L983.823 691.553C983.824 690.879 983.638 690.222 983.286 689.658C982.934 689.094 982.431 688.646 981.833 688.366L976.236 685.756L982.916 685.902C983.469 685.913 983.935 685.467 983.959 684.903C983.983 684.339 983.553 683.873 982.999 683.861L971.643 683.613L951.947 674.429C951.348 674.151 950.681 674.053 950.023 674.146C949.365 674.239 948.742 674.518 948.227 674.953L944.181 678.376C943.943 678.571 943.75 678.816 943.615 679.093C943.611 679.103 943.603 679.108 943.599 679.115L943.598 679.122C943.595 679.125 943.593 679.128 943.591 679.132L921.374 726.777C921.246 727.064 921.182 727.379 921.188 727.66L921.166 732.925C921.166 733.616 921.357 734.29 921.719 734.868C922.08 735.447 922.596 735.906 923.208 736.194L952.989 750.081C954.236 750.663 955.733 750.452 956.808 749.544L960.807 746.162C961.045 745.97 961.245 745.719 961.399 745.405L983.617 697.758C983.743 697.481 983.806 697.179 983.802 696.875Z" stroke="#BDBDBD" stroke-width="3"/>
<path d="M984.317 688.419L984.282 682.547C984.276 681.803 984.059 681.076 983.658 680.45C983.257 679.824 982.687 679.325 982.013 679.009L975.703 676.066L983.201 676.302C983.821 676.321 984.339 675.833 984.36 675.212C984.381 674.59 983.892 674.071 983.271 674.052L970.525 673.651L948.32 663.296C947.645 662.983 946.896 662.868 946.158 662.963C945.421 663.058 944.725 663.359 944.152 663.833L939.65 667.565C939.385 667.777 939.171 668.045 939.023 668.35C939.019 668.36 939.009 668.365 939.006 668.373L939.004 668.381C939.001 668.384 938.999 668.388 938.997 668.391L914.6 720.711C914.46 721.026 914.391 721.372 914.402 721.683L914.436 727.492C914.443 728.255 914.666 729 915.077 729.642C915.489 730.284 916.074 730.797 916.764 731.122L950.338 746.778C951.744 747.433 953.422 747.217 954.617 746.227L959.067 742.54C959.332 742.332 959.553 742.057 959.722 741.712L984.12 689.392C984.258 689.086 984.326 688.754 984.317 688.419ZM945.589 665.566C946.085 665.153 946.783 665.063 947.37 665.337L981.063 681.048C981.649 681.321 982.03 681.915 982.033 682.561L982.065 688.476L958.579 737.523L917.755 718.487C917.688 718.455 917.091 720.879 917.104 720.665L938.87 674.023L980.192 692.927C980.462 693.054 980.772 693.067 981.052 692.965C981.333 692.863 981.561 692.654 981.687 692.383C981.813 692.113 981.827 691.803 981.725 691.523C981.622 691.243 981.413 691.014 981.143 690.888L939.128 671.66L945.589 665.566ZM953.182 744.496C952.922 744.71 952.606 744.847 952.272 744.89C951.937 744.933 951.597 744.881 951.291 744.739L917.716 729.083C917.411 728.939 917.152 728.713 916.971 728.429C916.789 728.145 916.691 727.815 916.688 727.478L917.104 720.665L957.577 739.758L953.182 744.496Z" fill="#4C4C4C"/>
<path d="M917.104 720.665C917.091 720.879 917.688 718.455 917.755 718.487L958.579 737.523L982.065 688.476L982.033 682.561C982.03 681.915 981.649 681.321 981.063 681.048L947.37 665.337C946.783 665.063 946.085 665.153 945.589 665.566L939.128 671.66L981.143 690.888C981.413 691.014 981.622 691.243 981.725 691.523C981.827 691.803 981.813 692.113 981.687 692.383C981.561 692.654 981.333 692.863 981.052 692.965C980.772 693.067 980.462 693.054 980.192 692.927L938.87 674.023L917.104 720.665ZM917.104 720.665L916.688 727.478C916.691 727.815 916.789 728.145 916.971 728.429C917.152 728.713 917.411 728.939 917.716 729.083L951.291 744.739C951.597 744.881 951.937 744.933 952.272 744.89C952.606 744.847 952.922 744.71 953.182 744.496L957.577 739.758L917.104 720.665ZM984.317 688.419L984.282 682.547C984.276 681.803 984.059 681.076 983.658 680.45C983.257 679.824 982.687 679.325 982.013 679.009L975.703 676.066L983.201 676.302C983.821 676.321 984.339 675.833 984.36 675.212C984.381 674.59 983.892 674.071 983.271 674.052L970.525 673.651L948.32 663.296C947.645 662.983 946.896 662.868 946.158 662.963C945.421 663.058 944.725 663.359 944.152 663.833L939.65 667.565C939.385 667.777 939.171 668.045 939.023 668.35C939.019 668.36 939.009 668.365 939.006 668.373L939.004 668.381C939.001 668.384 938.999 668.388 938.997 668.391L914.6 720.711C914.46 721.026 914.391 721.372 914.402 721.683L914.436 727.492C914.443 728.255 914.666 729 915.077 729.642C915.489 730.284 916.074 730.797 916.764 731.122L950.338 746.778C951.744 747.433 953.422 747.217 954.617 746.227L959.067 742.54C959.332 742.332 959.553 742.057 959.722 741.712L984.12 689.392C984.258 689.086 984.326 688.754 984.317 688.419Z" stroke="#4C4C4C" stroke-width="3"/>
<path d="M956.261 690.25C947.657 686.238 937.392 689.975 933.379 698.579C929.367 707.183 933.103 717.448 941.708 721.46C950.313 725.473 960.576 721.736 964.588 713.132C968.601 704.527 964.866 694.263 956.261 690.25V690.25ZM955.31 692.289C961.827 695.328 965.126 702.494 963.563 709.236C963.007 709.481 961.093 710.24 958.782 710.232C955.219 710.219 952.504 708.377 950.714 704.757C946.543 696.338 939.347 696.897 936.609 697.467C940.657 691.49 948.564 689.143 955.31 692.289ZM942.659 719.42C935.258 715.969 932.01 707.198 935.322 699.768C935.602 699.934 935.944 699.991 936.274 699.871C936.602 699.75 944.383 697.04 948.698 705.755C950.222 708.834 952.214 710.565 954.211 711.496C955.806 712.24 957.406 712.475 958.773 712.481C960.27 712.487 961.612 712.221 962.651 711.928C962.615 712.011 962.588 712.097 962.55 712.179C959.061 719.66 950.139 722.908 942.659 719.42V719.42Z" fill="#4C4C4C" stroke="#4C4C4C" stroke-width="3"/>
<path d="M1301.11 446.116H878.651C872.018 446.116 866.641 451.493 866.641 458.125V520.668C866.641 527.3 872.018 532.676 878.651 532.676H1301.11C1307.74 532.676 1313.12 527.3 1313.12 520.668V458.125C1313.12 451.493 1307.74 446.116 1301.11 446.116Z" stroke="#4C4C4C" stroke-width="6" stroke-linecap="round" stroke-linejoin="round"/>
<path d="M1275.57 464.135C1285.83 464.135 1294.14 455.822 1294.14 445.567C1294.14 435.313 1285.83 427 1275.57 427C1265.31 427 1257 435.313 1257 445.567C1257 455.822 1265.31 464.135 1275.57 464.135Z" fill="#F46F40" stroke="#4C4C4C" stroke-width="6" stroke-linecap="round" stroke-linejoin="round"/>
<path d="M837.372 459.334H552.406C544.351 459.334 537.82 465.863 537.82 473.918V758.847C537.82 766.902 544.351 773.431 552.406 773.431H837.372C845.427 773.431 851.958 766.902 851.958 758.847V473.918C851.958 465.863 845.427 459.334 837.372 459.334Z" fill="#4C4C4C"/>
<path d="M824.309 446.116H539.344C531.288 446.116 524.758 452.646 524.758 460.7V745.63C524.758 753.684 531.288 760.214 539.344 760.214H824.309C832.365 760.214 838.895 753.684 838.895 745.63V460.7C838.895 452.646 832.365 446.116 824.309 446.116Z" fill="#5EEAA7" stroke="#4C4C4C" stroke-width="6" stroke-linecap="round" stroke-linejoin="round"/>
<path d="M769.25 569.339H677.573L661.99 554.239C658.451 551.003 637.5 530.076 637.5 535C637.5 538 647.5 556.258 647.5 556.258L656.077 569.339H608.75C593.501 569.339 582 594.474 582 627.805C582 661.136 593.501 686.271 608.75 686.271H769.25C784.499 686.271 796 661.136 796 627.805C796 594.474 784.5 569.339 769.25 569.339ZM588.688 627.805C588.688 597.178 599.261 575.835 608.75 575.835C618.239 575.835 628.812 597.178 628.812 627.805C628.812 658.432 618.239 679.775 608.75 679.775C599.261 679.775 588.688 658.432 588.688 627.805ZM769.25 679.775H621.368C629.91 670.237 635.5 651.024 635.5 627.805C635.5 604.585 629.91 585.373 621.368 575.835H666.117C667.276 575.835 668.353 575.251 668.962 574.295C669.571 573.337 669.626 572.141 669.109 571.134L657.106 560.469C656.672 559.625 655.391 556.924 656.077 556.258C656.944 555.422 662.9 560.708 663.793 561.522L696.739 591.192C697.386 591.782 698.209 592.076 699.031 592.076C699.919 592.076 700.808 591.733 701.465 591.054C702.731 589.747 702.667 587.692 701.323 586.462L689.7 575.835H769.25C778.74 575.835 789.313 597.178 789.313 627.805C789.313 658.432 778.739 679.775 769.25 679.775Z" fill="#9F8350"/>
<path d="M769.25 679.775H621.368C629.91 670.237 635.5 651.024 635.5 627.805C635.5 604.585 629.91 585.373 621.368 575.835H666.117C667.276 575.835 668.353 575.251 668.962 574.295C669.571 573.337 669.626 572.141 669.109 571.134L657.106 560.469C656.672 559.625 655.391 556.924 656.077 556.258C656.944 555.422 662.9 560.708 663.793 561.522L696.739 591.192C697.386 591.782 698.209 592.076 699.031 592.076C699.919 592.076 700.808 591.733 701.465 591.054C702.731 589.747 702.667 587.692 701.323 586.462L689.7 575.835H769.25C778.74 575.835 789.313 597.178 789.313 627.805C789.313 658.432 778.739 679.775 769.25 679.775Z" fill="#9F8350"/>
<path d="M588.688 627.805C588.688 597.178 599.261 575.835 608.75 575.835C618.239 575.835 628.812 597.178 628.812 627.805C628.812 658.432 618.239 679.775 608.75 679.775C599.261 679.775 588.688 658.432 588.688 627.805Z" fill="#9F8350"/>
<path d="M589.306 608.6C589.461 606.681 588.032 605.002 586.114 604.847C584.187 604.662 582.514 606.122 582.361 608.039C582.08 611.52 581.938 615.132 581.938 618.773C581.938 626.335 582.542 633.575 583.731 640.288C584.03 641.976 585.5 643.164 587.159 643.164C587.36 643.164 587.566 643.147 587.771 643.111C589.665 642.774 590.929 640.965 590.594 639.07C589.474 632.758 588.906 625.929 588.906 618.773C588.906 615.317 589.041 611.894 589.306 608.6Z" fill="#4C4C4C"/>
<path d="M604.184 654.826C604.919 652.837 605.601 650.69 606.21 648.441C606.711 646.583 605.614 644.671 603.756 644.167C601.907 643.668 599.986 644.763 599.483 646.621C598.93 648.667 598.312 650.614 597.647 652.407C596.98 654.212 597.9 656.216 599.706 656.885C600.104 657.031 600.514 657.102 600.915 657.102C602.331 657.102 603.663 656.231 604.184 654.826Z" fill="#4C4C4C"/>
<path d="M601.695 635.703C601.425 637.608 602.748 639.373 604.654 639.645C604.821 639.667 604.986 639.679 605.151 639.679C606.857 639.679 608.348 638.425 608.596 636.686C609.404 631.009 609.814 624.983 609.814 618.773C609.814 592.075 602.413 576.552 598.5 572.072C597.238 570.626 595.038 570.474 593.583 571.742C592.135 573.008 591.987 575.209 593.253 576.659C596.962 580.902 602.845 596.09 602.845 618.772C602.845 624.654 602.459 630.35 601.695 635.703Z" fill="#4C4C4C"/>
<path d="M763.125 556.054H672.825L637.223 522.546C633.535 519.075 627.84 519.165 624.257 522.745C621.419 525.583 620.716 529.902 622.511 533.496L633.792 556.054H595.875C579.985 556.054 568 583.017 568 618.773C568 654.528 579.985 681.491 595.875 681.491H763.125C779.015 681.491 791 654.528 791 618.773C791 583.017 779.016 556.054 763.125 556.054ZM574.969 618.773C574.969 585.918 585.987 563.023 595.875 563.023C605.763 563.023 616.781 585.918 616.781 618.773C616.781 651.628 605.763 674.523 595.875 674.523C585.987 674.523 574.969 651.628 574.969 618.773ZM763.125 674.523H609.024C617.925 664.291 623.75 643.681 623.75 618.773C623.75 593.864 617.925 573.254 609.024 563.023H639.43C640.637 563.023 641.759 562.396 642.394 561.371C643.028 560.343 643.086 559.06 642.547 557.98L628.745 530.381C628.293 529.476 628.47 528.387 629.184 527.672C630.088 526.775 631.518 526.748 632.449 527.621L687.565 579.497C688.238 580.13 689.096 580.445 689.953 580.445C690.879 580.445 691.804 580.077 692.49 579.349C693.808 577.947 693.742 575.742 692.342 574.423L680.229 563.023H763.125C773.014 563.023 784.032 585.918 784.032 618.773C784.032 651.628 773.013 674.523 763.125 674.523Z" fill="#4C4C4C"/>
<path d="M721.312 580.445H752.672C754.596 580.445 756.156 578.885 756.156 576.96C756.156 575.036 754.596 573.476 752.672 573.476H721.312C719.388 573.476 717.828 575.036 717.828 576.96C717.828 578.885 719.388 580.445 721.312 580.445Z" fill="#4C4C4C"/>
<path d="M651.625 604.835C651.625 606.76 653.185 608.32 655.109 608.32H672.531C673.629 608.32 674.662 607.802 675.318 606.926L680.196 600.422C681.526 598.653 684.442 598.653 685.773 600.422L690.65 606.926C691.307 607.803 692.34 608.32 693.437 608.32H717.828C719.752 608.32 721.312 606.76 721.312 604.835C721.312 602.911 719.752 601.351 717.828 601.351H695.179L691.346 596.24C689.352 593.582 686.305 592.06 682.984 592.06C679.663 592.06 676.616 593.582 674.622 596.24L670.789 601.351H655.109C653.185 601.351 651.625 602.911 651.625 604.835Z" fill="#4C4C4C"/>
<path d="M634.203 608.32H641.172C643.096 608.32 644.656 606.759 644.656 604.835C644.656 602.911 643.096 601.351 641.172 601.351H634.203C632.279 601.351 630.719 602.911 630.719 604.835C630.719 606.759 632.279 608.32 634.203 608.32Z" fill="#4C4C4C"/>
<path d="M766.609 632.71H747.146L742.64 628.205C738.564 624.129 731.935 624.129 727.859 628.205L723.354 632.71H696.922C694.998 632.71 693.438 634.27 693.438 636.195C693.438 638.119 694.998 639.679 696.922 639.679H724.797C725.721 639.679 726.607 639.311 727.26 638.658L732.787 633.132C734.103 631.818 736.397 631.818 737.713 633.132L743.24 638.658C743.893 639.311 744.779 639.679 745.703 639.679H766.609C768.534 639.679 770.094 638.119 770.094 636.195C770.094 634.27 768.534 632.71 766.609 632.71Z" fill="#4C4C4C"/>
<path d="M703.891 653.616H634.203C632.279 653.616 630.719 655.177 630.719 657.101C630.719 659.025 632.279 660.585 634.203 660.585H703.891C705.815 660.585 707.375 659.025 707.375 657.101C707.375 655.177 705.815 653.616 703.891 653.616Z" fill="#4C4C4C"/>
<path d="M742.219 653.616H717.828C715.904 653.616 714.344 655.177 714.344 657.101C714.344 659.025 715.904 660.585 717.828 660.585H742.219C744.143 660.585 745.703 659.025 745.703 657.101C745.703 655.177 744.143 653.616 742.219 653.616Z" fill="#4C4C4C"/>
<path d="M679.5 632.71C677.576 632.71 676.016 634.271 676.016 636.195C676.016 638.119 677.576 639.679 679.5 639.679H682.984C684.909 639.679 686.469 638.119 686.469 636.195C686.469 634.271 684.909 632.71 682.984 632.71H679.5Z" fill="#4C4C4C"/>
<path d="M731.766 601.351C729.841 601.351 728.281 602.911 728.281 604.835C728.281 606.759 729.841 608.32 731.766 608.32H735.25C737.174 608.32 738.734 606.759 738.734 604.835C738.734 602.911 737.174 601.351 735.25 601.351H731.766Z" fill="#4C4C4C"/>
<path d="M637.194 580.409C637.641 580.473 639.237 580.677 641.36 580.677C645.719 580.677 652.3 579.816 655.692 575.109C658.675 570.971 658.355 565.207 654.741 557.98C653.88 556.258 651.791 555.559 650.066 556.421C648.344 557.282 647.646 559.375 648.507 561.097C650.803 565.685 651.347 569.212 650.044 571.029C648.005 573.866 641.164 573.92 638.173 573.51C636.275 573.268 634.508 574.573 634.24 576.474C633.971 578.377 635.292 580.138 637.194 580.409Z" fill="#4C4C4C"/>
<path d="M651.625 618.773C649.701 618.773 648.141 620.333 648.141 622.257C648.141 624.182 649.701 625.742 651.625 625.742H669.047C670.971 625.742 672.531 624.182 672.531 622.257C672.531 620.333 670.971 618.773 669.047 618.773H651.625Z" fill="#4C4C4C"/>
<path d="M710.859 625.742C712.784 625.742 714.344 624.182 714.344 622.257C714.344 620.333 712.784 618.773 710.859 618.773H686.469C684.545 618.773 682.984 620.333 682.984 622.257C682.984 624.182 684.545 625.742 686.469 625.742H710.859Z" fill="#4C4C4C"/>
<path d="M1302.34 577.066H1135.11C1127.05 577.066 1120.52 583.595 1120.52 591.65V758.856C1120.52 766.91 1127.05 773.44 1135.11 773.44H1302.34C1310.39 773.44 1316.92 766.91 1316.92 758.856V591.65C1316.92 583.595 1310.39 577.066 1302.34 577.066Z" fill="#4C4C4C"/>
<path d="M1294.17 568.801H1126.94C1118.89 568.801 1112.36 575.33 1112.36 583.385V750.59C1112.36 758.645 1118.89 765.174 1126.94 765.174H1294.17C1302.22 765.174 1308.75 758.645 1308.75 750.59V583.385C1308.75 575.33 1302.22 568.801 1294.17 568.801Z" fill="#C5DCDD" stroke="#4C4C4C" stroke-width="6" stroke-linecap="round" stroke-linejoin="round"/>
<path d="M1222.01 613.001C1221.6 612.993 1221.18 613.069 1220.8 613.225L1161.91 638.032C1161.9 638.034 1161.9 638.036 1161.9 638.038C1161.27 638.302 1160.75 638.767 1160.41 639.361C1160.07 639.954 1159.94 640.643 1160.03 641.32V709.093C1160.03 709.7 1160.2 710.296 1160.54 710.804C1160.87 711.312 1161.35 711.711 1161.91 711.95L1220.8 736.758C1220.82 736.766 1220.84 736.774 1220.86 736.782C1220.87 736.786 1220.88 736.79 1220.89 736.794C1220.98 736.828 1221.07 736.859 1221.17 736.885C1221.24 736.906 1221.31 736.924 1221.39 736.939C1221.39 736.939 1221.39 736.939 1221.4 736.939C1221.47 736.954 1221.54 736.966 1221.62 736.976C1221.65 736.98 1221.67 736.984 1221.7 736.988C1221.71 736.988 1221.73 736.988 1221.74 736.988C1221.8 736.992 1221.87 736.994 1221.93 736.994C1221.98 736.997 1222.03 736.999 1222.09 737C1222.11 736.998 1222.14 736.996 1222.16 736.994C1222.24 736.99 1222.31 736.984 1222.39 736.976C1222.4 736.974 1222.41 736.971 1222.42 736.969C1222.5 736.959 1222.58 736.944 1222.67 736.927C1222.68 736.925 1222.69 736.923 1222.7 736.921C1222.77 736.903 1222.85 736.883 1222.92 736.86C1222.93 736.858 1222.94 736.856 1222.95 736.854C1223.03 736.825 1223.12 736.793 1223.2 736.757L1223.21 736.751L1282.1 711.95C1282.66 711.713 1283.14 711.315 1283.47 710.807C1283.81 710.298 1283.99 709.702 1283.99 709.092V641.126C1284.04 640.476 1283.88 639.828 1283.54 639.272C1283.2 638.717 1282.7 638.283 1282.1 638.032L1253.75 626.091C1253.56 625.985 1253.36 625.9 1253.15 625.837L1223.2 613.225C1222.82 613.073 1222.42 612.997 1222.01 613.001ZM1222.01 619.449L1244.24 628.822L1193.34 650.257L1171.13 640.896L1222.01 619.449ZM1252.23 632.189L1272.89 640.896L1222 662.33L1201.33 653.623L1252.23 632.189ZM1166.2 645.564L1218.9 667.761V729.231L1166.2 707.034V645.564ZM1277.79 645.564V707.034L1225.1 729.231V667.761L1243.98 659.811L1277.79 645.564ZM1175.87 684.915C1175.76 684.913 1175.65 684.917 1175.54 684.927C1174.84 684.989 1174.19 685.284 1173.68 685.764C1173.18 686.243 1172.85 686.88 1172.75 687.57C1172.65 688.261 1172.78 688.964 1173.13 689.568C1173.48 690.172 1174.02 690.64 1174.67 690.897L1186.36 695.82C1186.74 695.978 1187.14 696.06 1187.55 696.062C1187.96 696.065 1188.36 695.986 1188.74 695.832C1189.11 695.678 1189.46 695.451 1189.75 695.165C1190.04 694.878 1190.27 694.537 1190.43 694.161C1190.58 693.785 1190.67 693.382 1190.67 692.975C1190.67 692.567 1190.59 692.163 1190.44 691.786C1190.28 691.409 1190.06 691.065 1189.77 690.776C1189.48 690.486 1189.14 690.256 1188.77 690.098L1177.08 685.175C1176.7 685.009 1176.29 684.92 1175.87 684.915ZM1175.87 697.316C1175.76 697.314 1175.65 697.318 1175.54 697.328C1174.84 697.387 1174.19 697.681 1173.68 698.161C1173.17 698.641 1172.84 699.28 1172.74 699.972C1172.63 700.665 1172.77 701.371 1173.12 701.976C1173.48 702.581 1174.02 703.049 1174.67 703.304L1186.36 708.221C1186.74 708.378 1187.14 708.461 1187.55 708.463C1187.96 708.465 1188.36 708.387 1188.74 708.233C1189.11 708.079 1189.46 707.852 1189.75 707.565C1190.04 707.279 1190.27 706.938 1190.43 706.562C1190.58 706.186 1190.67 705.783 1190.67 705.375C1190.67 704.968 1190.59 704.564 1190.44 704.186C1190.28 703.809 1190.06 703.466 1189.77 703.176C1189.48 702.887 1189.14 702.656 1188.77 702.499L1177.08 697.582C1176.7 697.413 1176.29 697.323 1175.87 697.316Z" fill="#9F8350"/>
<path fill-rule="evenodd" clip-rule="evenodd" d="M1166.2 645.564L1218.9 667.761V729.231L1166.2 707.034V645.564ZM1175.54 684.927C1175.65 684.917 1175.76 684.913 1175.87 684.915C1176.29 684.92 1176.7 685.009 1177.08 685.175L1188.77 690.098C1189.14 690.256 1189.48 690.486 1189.77 690.776C1190.06 691.065 1190.28 691.409 1190.44 691.786C1190.59 692.163 1190.67 692.567 1190.67 692.975C1190.67 693.382 1190.58 693.785 1190.43 694.161C1190.27 694.537 1190.04 694.878 1189.75 695.165C1189.46 695.451 1189.11 695.678 1188.74 695.832C1188.36 695.986 1187.96 696.065 1187.55 696.062C1187.14 696.06 1186.74 695.978 1186.36 695.82L1174.67 690.897C1174.02 690.64 1173.48 690.172 1173.13 689.568C1172.78 688.964 1172.65 688.261 1172.75 687.57C1172.85 686.88 1173.18 686.243 1173.68 685.764C1174.19 685.284 1174.84 684.989 1175.54 684.927ZM1175.54 697.328C1175.65 697.318 1175.76 697.314 1175.87 697.316C1176.29 697.323 1176.7 697.413 1177.08 697.582L1188.77 702.499C1189.14 702.656 1189.48 702.887 1189.77 703.176C1190.06 703.466 1190.28 703.809 1190.44 704.186C1190.59 704.564 1190.67 704.968 1190.67 705.375C1190.67 705.783 1190.58 706.186 1190.43 706.562C1190.27 706.938 1190.04 707.279 1189.75 707.565C1189.46 707.852 1189.11 708.079 1188.74 708.233C1188.36 708.387 1187.96 708.465 1187.55 708.463C1187.14 708.461 1186.74 708.378 1186.36 708.221L1174.67 703.304C1174.02 703.049 1173.48 702.581 1173.12 701.976C1172.77 701.371 1172.63 700.665 1172.74 699.972C1172.84 699.28 1173.17 698.641 1173.68 698.161C1174.19 697.681 1174.84 697.387 1175.54 697.328Z" fill="#9F8350"/>
<path d="M1277.79 645.564V707.034L1225.1 729.231V667.761L1243.98 659.811L1277.79 645.564Z" fill="#9F8350"/>
<path d="M1252.23 632.189L1272.89 640.896L1222 662.33L1201.33 653.623L1252.23 632.189Z" fill="#9F8350"/>
<path d="M1222.01 619.449L1244.24 628.822L1193.34 650.257L1171.13 640.896L1222.01 619.449Z" fill="#9F8350"/>
<path d="M1213.51 603.001C1213.07 602.992 1212.62 603.074 1212.21 603.241L1149.04 629.848C1149.04 629.851 1149.04 629.853 1149.04 629.855C1148.36 630.139 1147.8 630.638 1147.44 631.274C1147.07 631.911 1146.93 632.649 1147.03 633.375V706.067C1147.03 706.719 1147.22 707.357 1147.58 707.902C1147.93 708.447 1148.44 708.875 1149.04 709.132L1212.21 735.74C1212.23 735.749 1212.26 735.758 1212.28 735.766C1212.29 735.77 1212.3 735.775 1212.31 735.779C1212.41 735.816 1212.51 735.848 1212.6 735.876C1212.68 735.899 1212.76 735.918 1212.85 735.935C1212.85 735.935 1212.85 735.935 1212.85 735.935C1212.93 735.951 1213.01 735.964 1213.09 735.974C1213.12 735.978 1213.15 735.983 1213.18 735.987C1213.19 735.987 1213.21 735.987 1213.22 735.987C1213.29 735.991 1213.36 735.993 1213.42 735.993C1213.48 735.997 1213.54 735.999 1213.59 736C1213.62 735.998 1213.65 735.996 1213.68 735.993C1213.76 735.99 1213.84 735.983 1213.92 735.974C1213.93 735.972 1213.94 735.969 1213.95 735.967C1214.04 735.956 1214.13 735.94 1214.22 735.922C1214.23 735.919 1214.24 735.917 1214.25 735.915C1214.33 735.896 1214.41 735.875 1214.49 735.85C1214.5 735.848 1214.51 735.846 1214.51 735.843C1214.61 735.813 1214.7 735.778 1214.79 735.739L1214.8 735.733L1277.96 709.132C1278.56 708.877 1279.08 708.451 1279.44 707.906C1279.8 707.36 1279.99 706.721 1279.99 706.066V633.167C1280.04 632.47 1279.88 631.775 1279.51 631.179C1279.15 630.584 1278.6 630.118 1277.96 629.848L1247.56 617.042C1247.35 616.928 1247.13 616.836 1246.91 616.769L1214.79 603.241C1214.38 603.078 1213.95 602.996 1213.51 603.001V603.001ZM1213.51 609.917L1237.36 619.97L1182.76 642.961L1158.93 632.92L1213.51 609.917ZM1245.93 623.581L1268.09 632.92L1213.5 655.911L1191.33 646.572L1245.93 623.581ZM1153.65 637.928L1210.17 661.736V727.667L1153.65 703.859V637.928ZM1273.34 637.928V703.859L1216.83 727.667V661.736L1237.07 653.209L1273.34 637.928ZM1164.02 680.135C1163.9 680.133 1163.79 680.137 1163.67 680.148C1162.92 680.214 1162.22 680.531 1161.68 681.045C1161.13 681.56 1160.78 682.242 1160.67 682.983C1160.57 683.723 1160.71 684.478 1161.09 685.126C1161.46 685.773 1162.04 686.275 1162.74 686.551L1175.28 691.831C1175.68 692.001 1176.11 692.089 1176.55 692.091C1176.99 692.093 1177.42 692.01 1177.82 691.844C1178.23 691.679 1178.6 691.436 1178.91 691.128C1179.22 690.821 1179.46 690.455 1179.63 690.052C1179.8 689.649 1179.89 689.216 1179.89 688.779C1179.9 688.342 1179.81 687.909 1179.65 687.504C1179.48 687.099 1179.24 686.731 1178.93 686.421C1178.62 686.11 1178.26 685.863 1177.85 685.694L1165.32 680.414C1164.91 680.235 1164.47 680.14 1164.02 680.135V680.135ZM1164.02 693.435C1163.9 693.433 1163.79 693.437 1163.67 693.448C1162.92 693.512 1162.21 693.827 1161.67 694.342C1161.12 694.857 1160.77 695.542 1160.66 696.285C1160.55 697.028 1160.7 697.785 1161.08 698.434C1161.45 699.083 1162.04 699.585 1162.74 699.858L1175.28 705.132C1175.68 705.301 1176.11 705.389 1176.55 705.392C1176.99 705.394 1177.42 705.31 1177.82 705.145C1178.23 704.98 1178.6 704.736 1178.91 704.429C1179.22 704.121 1179.46 703.756 1179.63 703.353C1179.8 702.949 1179.89 702.517 1179.89 702.08C1179.9 701.643 1179.81 701.209 1179.65 700.805C1179.48 700.4 1179.24 700.032 1178.93 699.721C1178.62 699.411 1178.26 699.164 1177.85 698.994L1165.32 693.721C1164.91 693.54 1164.47 693.443 1164.02 693.435V693.435Z" fill="black"/>
<path d="M1365 881H1253V1006H1365V881Z" fill="#4C4C4C"/>
<path d="M1657.78 853.379C1657.9 854.691 1658.85 855.646 1660.05 856.004L1687.11 862.328C1687.34 862.328 1687.58 862.448 1687.82 862.448C1689.01 862.448 1690.09 861.732 1690.56 860.538L1701.29 834.883C1701.77 833.689 1701.53 832.377 1700.58 831.541C1699.62 830.706 1698.31 830.467 1697.12 831.064L1691.75 833.809L1685.79 822.114C1683.17 816.983 1677.93 814 1672.32 814H1647.29H1647.17H1647.05C1644.43 814 1641.93 814.835 1639.54 816.267C1637.52 817.461 1635.97 819.012 1634.65 820.921L1619.99 842.997C1619.51 843.713 1619.4 844.548 1619.51 845.264C1619.63 846.1 1620.11 846.696 1620.83 847.174L1641.09 860.18C1642.52 861.016 1644.31 860.658 1645.26 859.345L1659.57 837.389L1664.81 847.532L1659.45 850.276C1658.26 850.873 1657.66 852.066 1657.78 853.379ZM1641.81 853.498L1626.79 843.832L1639.66 824.143C1640.38 822.95 1641.33 822.114 1642.52 821.398C1643.95 820.563 1645.5 820.086 1647.05 820.086C1647.05 820.086 1647.05 820.086 1647.17 820.086C1649.32 820.086 1651.46 821.398 1652.42 823.308L1656.47 831.183L1641.81 853.498ZM1662.67 829.99L1657.78 820.444C1657.66 820.324 1657.66 820.086 1657.54 819.966H1672.32C1675.78 819.966 1678.88 821.756 1680.43 824.859L1687.7 839.298C1688.06 840.014 1688.66 840.61 1689.49 840.849C1690.2 841.088 1691.04 841.088 1691.75 840.61L1692.47 840.252L1685.91 855.885L1669.46 852.066L1670.18 851.708C1670.89 851.35 1671.49 850.753 1671.73 849.918C1671.97 849.202 1671.97 848.367 1671.49 847.651L1662.67 829.99ZM1707.01 856.481C1706.18 856.243 1705.34 856.362 1704.75 856.839L1684.01 868.772C1682.58 869.607 1682.1 871.397 1682.93 872.949L1695.93 895.741H1684.48V889.655C1684.48 888.342 1683.65 887.268 1682.46 886.791C1681.26 886.314 1679.95 886.672 1679.12 887.626L1661.24 908.867C1660.28 909.941 1660.28 911.611 1661.24 912.805L1679.12 933.926C1679.71 934.642 1680.55 935 1681.38 935C1681.74 935 1682.1 934.881 1682.46 934.761C1683.65 934.284 1684.48 933.21 1684.48 931.897V925.812H1697.6C1703.32 925.812 1708.44 922.59 1710.95 917.459L1722.39 895.144C1722.39 895.025 1722.51 895.025 1722.51 894.905C1722.51 894.905 1722.51 894.905 1722.51 894.786C1723.7 892.399 1724.18 889.774 1723.94 887.03C1723.82 884.762 1723.11 882.495 1722.03 880.586L1708.92 857.555C1708.44 857.197 1707.85 856.601 1707.01 856.481ZM1705.58 914.953C1704.03 918.055 1700.93 919.964 1697.6 919.964H1681.5C1680.67 919.964 1679.95 920.322 1679.36 920.8C1678.76 921.396 1678.52 922.112 1678.52 922.948V923.783L1667.56 910.895L1678.52 898.008V898.843C1678.52 900.514 1679.83 901.826 1681.5 901.826H1711.78C1711.9 901.826 1712.14 901.826 1712.26 901.826L1705.58 914.953ZM1717.98 887.746C1718.1 889.416 1717.86 890.967 1717.15 892.399V892.519C1716.19 894.428 1714.05 895.741 1711.9 895.741H1702.96L1689.73 872.591L1705.22 863.522L1716.91 883.927C1717.5 885.12 1717.86 886.433 1717.98 887.746ZM1599.61 897.889L1613.2 918.771C1613.32 918.891 1613.32 919.01 1613.44 919.129C1614.87 921.277 1616.89 923.067 1619.4 924.26C1621.42 925.215 1623.69 925.692 1625.95 925.812L1654.44 926.05C1655.28 926.05 1655.99 925.692 1656.59 925.215C1657.18 924.618 1657.42 923.902 1657.42 923.067V898.724C1657.42 897.889 1657.07 897.173 1656.59 896.576C1655.99 895.979 1655.28 895.741 1654.44 895.741H1626.07L1631.79 885.836L1637.04 888.82C1638.11 889.416 1639.54 889.297 1640.5 888.462C1641.45 887.626 1641.81 886.314 1641.33 885.12L1631.79 858.987C1631.32 857.555 1629.89 856.839 1628.46 857.078L1601.16 862.209C1599.96 862.448 1598.89 863.402 1598.77 864.715C1598.53 865.908 1599.13 867.221 1600.2 867.818L1605.45 870.801L1598.89 882.137C1596.15 887.149 1596.39 893.115 1599.61 897.889ZM1651.46 901.707V919.845L1625.95 919.726C1624.52 919.726 1623.33 919.487 1622.02 918.891C1620.47 918.175 1619.28 917.101 1618.44 915.907L1618.32 915.669C1617.13 913.879 1617.13 911.492 1618.2 909.583L1622.61 901.826L1651.46 901.707ZM1604.26 885.12L1612.24 871.159C1612.6 870.443 1612.72 869.607 1612.48 868.892C1612.24 868.056 1611.77 867.46 1611.05 867.102L1610.45 866.624L1627.14 863.522L1632.99 879.512L1632.27 879.154C1631.55 878.796 1630.72 878.677 1630 878.915C1629.29 879.154 1628.57 879.631 1628.22 880.347L1618.44 897.411L1613.2 906.719C1613.08 906.838 1613.08 907.077 1612.96 907.196L1604.85 894.786C1602.71 891.683 1602.59 888.104 1604.26 885.12Z" fill="#4C4C4C"/>
<path d="M993.426 474.8V503H985.586V487.44L980.266 503H973.706L968.346 487.32V503H960.506V474.8H969.986L977.066 493.12L983.986 474.8H993.426ZM995.808 491.76C995.808 489.44 996.222 487.413 997.048 485.68C997.902 483.947 999.048 482.613 1000.49 481.68C1001.96 480.747 1003.58 480.28 1005.37 480.28C1006.92 480.28 1008.25 480.587 1009.37 481.2C1010.49 481.813 1011.36 482.64 1011.97 483.68V480.56H1019.81V503H1011.97V499.88C1011.36 500.92 1010.48 501.747 1009.33 502.36C1008.21 502.973 1006.89 503.28 1005.37 503.28C1003.58 503.28 1001.96 502.813 1000.49 501.88C999.048 500.947 997.902 499.613 997.048 497.88C996.222 496.12 995.808 494.08 995.808 491.76ZM1011.97 491.76C1011.97 490.32 1011.57 489.187 1010.77 488.36C1010 487.533 1009.04 487.12 1007.89 487.12C1006.72 487.12 1005.74 487.533 1004.97 488.36C1004.2 489.16 1003.81 490.293 1003.81 491.76C1003.81 493.2 1004.2 494.347 1004.97 495.2C1005.74 496.027 1006.72 496.44 1007.89 496.44C1009.04 496.44 1010 496.027 1010.77 495.2C1011.57 494.373 1011.97 493.227 1011.97 491.76ZM1031.32 484.52C1032.2 483.24 1033.26 482.227 1034.52 481.48C1035.77 480.733 1037.12 480.36 1038.56 480.36V488.72H1036.36C1034.65 488.72 1033.38 489.053 1032.56 489.72C1031.73 490.387 1031.32 491.547 1031.32 493.2V503H1023.48V480.56H1031.32V484.52ZM1054.61 503L1048.41 493.8V503H1040.57V473.4H1048.41V489.36L1054.61 480.56H1064.01L1055.17 491.84L1064.17 503H1054.61ZM1087.11 491.52C1087.11 492.133 1087.07 492.747 1086.99 493.36H1072.15C1072.23 494.587 1072.56 495.507 1073.15 496.12C1073.76 496.707 1074.53 497 1075.47 497C1076.77 497 1077.71 496.413 1078.27 495.24H1086.63C1086.28 496.787 1085.6 498.173 1084.59 499.4C1083.6 500.6 1082.35 501.547 1080.83 502.24C1079.31 502.933 1077.63 503.28 1075.79 503.28C1073.57 503.28 1071.6 502.813 1069.87 501.88C1068.16 500.947 1066.81 499.613 1065.83 497.88C1064.87 496.147 1064.39 494.107 1064.39 491.76C1064.39 489.413 1064.87 487.387 1065.83 485.68C1066.79 483.947 1068.12 482.613 1069.83 481.68C1071.56 480.747 1073.55 480.28 1075.79 480.28C1078 480.28 1079.96 480.733 1081.67 481.64C1083.37 482.547 1084.71 483.853 1085.67 485.56C1086.63 487.24 1087.11 489.227 1087.11 491.52ZM1079.11 489.56C1079.11 488.6 1078.79 487.853 1078.15 487.32C1077.51 486.76 1076.71 486.48 1075.75 486.48C1074.79 486.48 1074 486.747 1073.39 487.28C1072.77 487.787 1072.37 488.547 1072.19 489.56H1079.11ZM1102.75 496.32V503H1099.35C1093.62 503 1090.75 500.16 1090.75 494.48V487.08H1087.99V480.56H1090.75V475.12H1098.63V480.56H1102.71V487.08H1098.63V494.6C1098.63 495.213 1098.77 495.653 1099.03 495.92C1099.33 496.187 1099.81 496.32 1100.47 496.32H1102.75ZM1113.39 483.68C1114 482.64 1114.87 481.813 1115.99 481.2C1117.11 480.587 1118.43 480.28 1119.95 480.28C1121.74 480.28 1123.35 480.747 1124.79 481.68C1126.26 482.613 1127.4 483.947 1128.23 485.68C1129.08 487.413 1129.51 489.44 1129.51 491.76C1129.51 494.08 1129.08 496.12 1128.23 497.88C1127.4 499.613 1126.26 500.947 1124.79 501.88C1123.35 502.813 1121.74 503.28 1119.95 503.28C1118.43 503.28 1117.11 502.973 1115.99 502.36C1114.9 501.747 1114.03 500.92 1113.39 499.88V513.72H1105.55V480.56H1113.39V483.68ZM1121.55 491.76C1121.55 490.293 1121.15 489.16 1120.35 488.36C1119.58 487.533 1118.62 487.12 1117.47 487.12C1116.32 487.12 1115.35 487.533 1114.55 488.36C1113.78 489.187 1113.39 490.32 1113.39 491.76C1113.39 493.227 1113.78 494.373 1114.55 495.2C1115.35 496.027 1116.32 496.44 1117.47 496.44C1118.62 496.44 1119.58 496.027 1120.35 495.2C1121.15 494.347 1121.55 493.2 1121.55 491.76ZM1139.78 473.4V503H1131.94V473.4H1139.78ZM1142.16 491.76C1142.16 489.44 1142.57 487.413 1143.4 485.68C1144.25 483.947 1145.4 482.613 1146.84 481.68C1148.31 480.747 1149.93 480.28 1151.72 480.28C1153.27 480.28 1154.6 480.587 1155.72 481.2C1156.84 481.813 1157.71 482.64 1158.32 483.68V480.56H1166.16V503H1158.32V499.88C1157.71 500.92 1156.83 501.747 1155.68 502.36C1154.56 502.973 1153.24 503.28 1151.72 503.28C1149.93 503.28 1148.31 502.813 1146.84 501.88C1145.4 500.947 1144.25 499.613 1143.4 497.88C1142.57 496.12 1142.16 494.08 1142.16 491.76ZM1158.32 491.76C1158.32 490.32 1157.92 489.187 1157.12 488.36C1156.35 487.533 1155.39 487.12 1154.24 487.12C1153.07 487.12 1152.09 487.533 1151.32 488.36C1150.55 489.16 1150.16 490.293 1150.16 491.76C1150.16 493.2 1150.55 494.347 1151.32 495.2C1152.09 496.027 1153.07 496.44 1154.24 496.44C1155.39 496.44 1156.35 496.027 1157.12 495.2C1157.92 494.373 1158.32 493.227 1158.32 491.76ZM1168.55 491.76C1168.55 489.44 1169.03 487.413 1169.99 485.68C1170.95 483.947 1172.28 482.613 1173.99 481.68C1175.72 480.747 1177.7 480.28 1179.91 480.28C1182.76 480.28 1185.16 481.067 1187.11 482.64C1189.06 484.187 1190.31 486.36 1190.87 489.16H1182.55C1182.07 487.693 1181.14 486.96 1179.75 486.96C1178.76 486.96 1177.98 487.373 1177.39 488.2C1176.83 489 1176.55 490.187 1176.55 491.76C1176.55 493.333 1176.83 494.533 1177.39 495.36C1177.98 496.187 1178.76 496.6 1179.75 496.6C1181.16 496.6 1182.1 495.867 1182.55 494.4H1190.87C1190.31 497.173 1189.06 499.347 1187.11 500.92C1185.16 502.493 1182.76 503.28 1179.91 503.28C1177.7 503.28 1175.72 502.813 1173.99 501.88C1172.28 500.947 1170.95 499.613 1169.99 497.88C1169.03 496.147 1168.55 494.107 1168.55 491.76ZM1214.77 491.52C1214.77 492.133 1214.73 492.747 1214.65 493.36H1199.81C1199.89 494.587 1200.22 495.507 1200.81 496.12C1201.42 496.707 1202.19 497 1203.13 497C1204.43 497 1205.37 496.413 1205.93 495.24H1214.29C1213.94 496.787 1213.26 498.173 1212.25 499.4C1211.26 500.6 1210.01 501.547 1208.49 502.24C1206.97 502.933 1205.29 503.28 1203.45 503.28C1201.23 503.28 1199.26 502.813 1197.53 501.88C1195.82 500.947 1194.47 499.613 1193.49 497.88C1192.53 496.147 1192.05 494.107 1192.05 491.76C1192.05 489.413 1192.53 487.387 1193.49 485.68C1194.45 483.947 1195.78 482.613 1197.49 481.68C1199.22 480.747 1201.21 480.28 1203.45 480.28C1205.66 480.28 1207.62 480.733 1209.33 481.64C1211.03 482.547 1212.37 483.853 1213.33 485.56C1214.29 487.24 1214.77 489.227 1214.77 491.52ZM1206.77 489.56C1206.77 488.6 1206.45 487.853 1205.81 487.32C1205.17 486.76 1204.37 486.48 1203.41 486.48C1202.45 486.48 1201.66 486.747 1201.05 487.28C1200.43 487.787 1200.03 488.547 1199.85 489.56H1206.77Z" fill="#4C4C4C"/>
<path d="M1272.19 932H1285.25C1291.68 932 1295.38 928.562 1295.38 923.861C1295.38 919.656 1292.32 917.014 1288.8 916.858V916.574C1292 915.906 1294.24 913.591 1294.24 910.267C1294.24 905.878 1290.86 902.909 1284.33 902.909H1272.19V932ZM1279.23 926.332V919.401H1283.7C1286.39 919.401 1288.03 920.821 1288.03 923.051C1288.03 925.111 1286.61 926.332 1283.57 926.332H1279.23ZM1279.23 914.869V908.491H1283.23C1285.58 908.491 1287.07 909.699 1287.07 911.631C1287.07 913.676 1285.42 914.869 1283.12 914.869H1279.23ZM1312.03 922.582C1312.03 925.125 1310.41 926.545 1308.35 926.545C1306.22 926.545 1304.92 925.097 1304.9 922.724V910.182H1297.96V924.088C1297.97 929.017 1300.97 932.284 1305.46 932.284C1308.72 932.284 1311.15 930.608 1312.12 927.938H1312.35V932H1318.97V910.182H1312.03V922.582ZM1326.83 940.182C1331.83 940.182 1334.32 937.653 1335.53 934.088L1343.75 910.196L1336.44 910.182L1332.36 925.75H1332.13L1328.11 910.182H1320.84L1328.6 932.795L1328.33 933.449C1327.66 935.082 1326.15 935.111 1324.11 934.443L1322.57 939.486C1323.62 939.912 1325.17 940.182 1326.83 940.182ZM1271.73 980H1278.76V968.31H1290.32V962.585H1278.76V956.619H1291.58V950.909H1271.73V980ZM1300.12 980.369C1303.16 980.369 1305.27 979.19 1306.46 976.96H1306.63V980H1313.16V965.17C1313.16 960.554 1309.06 957.898 1303.5 957.898C1297.64 957.898 1294.31 960.852 1293.76 964.83L1300.17 965.057C1300.46 963.665 1301.61 962.812 1303.45 962.812C1305.15 962.812 1306.23 963.636 1306.23 965.099V965.17C1306.23 966.506 1304.78 966.79 1301.06 967.116C1296.64 967.486 1292.95 969.119 1292.95 973.949C1292.95 978.267 1295.95 980.369 1300.12 980.369ZM1302.27 975.824C1300.66 975.824 1299.53 975.057 1299.53 973.608C1299.53 972.202 1300.63 971.349 1302.61 971.051C1303.9 970.866 1305.49 970.582 1306.27 970.17V972.244C1306.27 974.375 1304.48 975.824 1302.27 975.824ZM1335.66 964.844C1335.29 960.526 1331.75 957.898 1325.84 957.898C1319.93 957.898 1316.17 960.469 1316.2 964.844C1316.17 968.196 1318.31 970.355 1322.68 971.165L1326.48 971.889C1328.29 972.244 1329.11 972.812 1329.14 973.778C1329.11 974.872 1327.89 975.597 1326.11 975.597C1324.14 975.597 1322.8 974.744 1322.51 973.153L1315.64 973.324C1316.14 977.642 1319.85 980.412 1326.08 980.412C1331.92 980.412 1336.17 977.5 1336.2 973.011C1336.17 969.83 1334.07 967.94 1329.72 967.102L1325.52 966.307C1323.67 965.938 1323.07 965.284 1323.09 964.446C1323.07 963.338 1324.37 962.656 1325.97 962.656C1327.8 962.656 1329.08 963.636 1329.28 965.014L1335.66 964.844ZM1351.13 958.182H1347.2V952.955H1340.25V958.182H1337.37V963.295H1340.25V973.906C1340.21 978.324 1343.08 980.54 1347.98 980.312C1349.66 980.227 1350.86 979.886 1351.53 979.688L1350.48 974.673C1350.18 974.744 1349.49 974.886 1348.96 974.886C1347.84 974.886 1347.2 974.432 1347.2 973.139V963.295H1351.13V958.182Z" fill="#F9F9F9"/>
</svg>
