<svg width="51" height="48" viewBox="0 0 51 48" fill="none" xmlns="http://www.w3.org/2000/svg">
<path d="M31.4404 35.3935H39.3505V46.9999H35.2234L31.4404 35.3935Z" fill="#328257"/>
<path d="M33.0385 30.5829L36.5352 32.4212L39.3505 35.3935H31.4404L33.0385 30.5829Z" fill="#328257"/>
<path d="M50 32.4212V35.3935H39.3505L36.5352 32.4212H50Z" fill="#328257"/>
<path d="M39.3505 11.3854V6.14844C41.1564 13.5086 41.804 28.0334 50 32.4212H47.5572C46.0941 31.1572 45.0386 30.0835 44.1082 28.3702C43.2794 26.8438 42.5497 24.8096 41.7196 21.6809C41.0355 19.1022 40.283 15.7799 39.3505 11.3854Z" fill="#328257"/>
<path d="M31.4404 35.3935H39.3505V46.9999H35.2234L31.4404 35.3935Z" fill="#328257"/>
<path d="M33.0385 30.5829L36.5352 32.4212L39.3505 35.3935H31.4404L33.0385 30.5829Z" fill="#328257"/>
<path d="M50 32.4212V35.3935H39.3505L36.5352 32.4212H50Z" fill="#328257"/>
<path d="M39.3505 11.3854V6.14844C41.1564 13.5086 41.804 28.0334 50 32.4212H47.5572C46.0941 31.1572 45.0386 30.0835 44.1082 28.3702C43.2794 26.8438 42.5497 24.8096 41.7196 21.6809C41.0355 19.1022 40.283 15.7799 39.3505 11.3854Z" fill="#328257"/>
<path d="M41.562 32.4212H44.1082V28.3702C43.2794 26.8438 42.5497 24.8096 41.7196 21.6809L41.9387 22.2945L41.562 32.4212Z" fill="#328257"/>
<path d="M39.3505 6.14844H37.8439L40.4983 22.2945H41.9387L41.7196 21.6809C41.0355 19.1022 40.283 15.7799 39.3505 11.3854V6.14844Z" fill="#328257"/>
<path d="M19.1925 35.3935H11.6495L11.2824 46.9999H15.4095L19.1925 35.3935Z" fill="#328257"/>
<path d="M18.472 30.5829L14.0977 32.4212L11.6495 35.3935H19.1925L18.472 30.5829Z" fill="#328257"/>
<path d="M1 32.4212V35.3935H11.6495L14.0977 32.4212H1Z" fill="#328257"/>
<path d="M11.6495 11.3854V6.14844C9.84354 13.5086 9.19604 28.0334 1 32.4212H3.4428C4.90586 31.1572 5.96134 30.0835 6.89174 28.3702C7.72062 26.8438 8.45023 24.8096 9.28033 21.6809C9.96449 19.1022 10.7169 15.7799 11.6495 11.3854Z" fill="#328257"/>
<path d="M19.1925 35.3935H11.6495L11.2824 46.9999H15.4095L19.1925 35.3935Z" fill="#328257"/>
<path d="M18.472 30.5829L14.0977 32.4212L11.6495 35.3935H19.1925L18.472 30.5829Z" fill="#328257"/>
<path d="M1 32.4212V35.3935H11.6495L14.0977 32.4212H1Z" fill="#328257"/>
<path d="M11.6495 11.3854V6.14844C9.84354 13.5086 9.19604 28.0334 1 32.4212H3.4428C4.90586 31.1572 5.96134 30.0835 6.89174 28.3702C7.72062 26.8438 8.45023 24.8096 9.28033 21.6809C9.96449 19.1022 10.7169 15.7799 11.6495 11.3854Z" fill="#328257"/>
<path d="M9.43792 32.4212H6.89174V28.3702C7.72062 26.8438 8.45023 24.8096 9.28033 21.6809L9.06123 22.2945L9.43792 32.4212Z" fill="#328257"/>
<path d="M11.6495 6.14844H13.156L10.5016 22.2945H9.06123L9.28033 21.6809C9.96449 19.1022 10.7169 15.7799 11.6495 11.3854V6.14844Z" fill="#328257"/>
<path d="M50 32.4212V35.3935H39.3505M50 32.4212H36.5352M50 32.4212H47.5572C46.0941 31.1572 45.0386 30.0835 44.1082 28.3702M50 32.4212C41.804 28.0334 41.1564 13.5086 39.3505 6.14844M39.3505 6.14844H37.8439L40.4983 22.2945M39.3505 6.14844V11.3854C40.283 15.7799 41.0355 19.1022 41.7196 21.6809M39.3505 6.14844L41.7196 21.6809M36.5352 32.4212L33.0385 30.5829M36.5352 32.4212L39.3505 35.3935M33.0385 30.5829L31.4404 35.3935M33.0385 30.5829L36.0298 22.9497L40.4983 22.2945M31.4404 35.3935H39.3505M31.4404 35.3935L35.2234 46.9999H39.3505V35.3935M40.4983 22.2945H41.9387M44.1082 28.3702L41.7196 21.6809M44.1082 28.3702V32.4212H41.5621L41.9387 22.2945M44.1082 28.3702C43.2794 26.8438 42.5497 24.8096 41.7196 21.6809M41.9387 22.2945L41.7196 21.6809M1 32.4212V35.3935H11.6495M1 32.4212H14.0977M1 32.4212H3.4428C4.90586 31.1572 5.96134 30.0835 6.89174 28.3702M1 32.4212C9.19604 28.0334 9.84355 13.5086 11.6495 6.14844M11.6495 6.14844H13.156L10.5016 22.2945M11.6495 6.14844V11.3854C10.7169 15.7799 9.96449 19.1022 9.28033 21.6809M11.6495 6.14844L9.28033 21.6809M14.0977 32.4212L18.472 30.5829M14.0977 32.4212L11.6495 35.3935M18.472 30.5829L19.1925 35.3935M18.472 30.5829L14.8205 22.2945H10.5016M19.1925 35.3935H11.6495M19.1925 35.3935L15.4095 46.9999H11.2824L11.6495 35.3935M10.5016 22.2945H9.06123M6.89174 28.3702L9.28033 21.6809M6.89174 28.3702V32.4212H9.43792L9.06123 22.2945M6.89174 28.3702C7.72062 26.8438 8.45023 24.8096 9.28033 21.6809M9.06123 22.2945L9.28033 21.6809" stroke="#328257" stroke-width="0.5"/>
<path d="M19.5955 6.03284C19.4259 6.03254 19.2709 6.12669 19.187 6.28101L16.1524 11.8612C16.0228 12.0993 16.0976 12.4091 16.3212 12.5605L19.3848 14.6349C19.6269 14.7988 19.9434 14.7113 20.0702 14.4454L21.575 11.2902C21.6555 11.1215 21.8185 11.0167 21.9984 11.018L29.4071 11.0751C29.5697 11.0763 29.7231 11.1643 29.8155 11.3093L31.2178 13.5098C31.3664 13.7431 31.3172 14.0547 31.1066 14.2136L30.5674 14.6207C30.2183 14.8842 30.3576 15.4743 30.7871 15.5514L34.6793 16.2496C34.923 16.2933 35.1538 16.1365 35.2158 15.8851L36.2744 11.5956C36.3862 11.1429 35.9109 10.7662 35.5402 11.0138L35.2287 11.2218C35.0027 11.3726 34.6993 11.2943 34.5543 11.0477L31.7668 6.30385C31.6755 6.14853 31.5156 6.05332 31.3455 6.05303L19.5955 6.03284Z" fill="#328257" stroke="#328257" stroke-width="0.5"/>
<path d="M40.9393 22.6715C40.9983 22.5189 40.9864 22.3477 40.9071 22.2101L37.4184 16.1563C37.2753 15.908 36.9616 15.844 36.7314 16.0161L33.8008 18.2065C33.5877 18.3658 33.524 18.6705 33.6558 18.9008L35.8652 22.7642C35.9436 22.9011 35.9553 23.0711 35.897 23.2229L33.1449 30.3837C33.0662 30.5883 32.8757 30.7215 32.6699 30.7158L29.1119 30.6167C28.8606 30.6097 28.6617 30.3996 28.654 30.1329L28.6527 30.0859C28.6404 29.661 28.1746 29.4488 27.8629 29.7261L24.7664 32.4809C24.5327 32.6889 24.5257 33.0649 24.7519 33.2682L27.9647 36.1561C28.2328 36.3971 28.6522 36.1742 28.6413 35.7964C28.634 35.5423 28.834 35.33 29.0734 35.3378L35.6078 35.5502C35.8139 35.5569 36.0052 35.4242 36.0844 35.2194L40.9393 22.6715Z" fill="#328257" stroke="#328257" stroke-width="0.5"/>
<path d="M15.5768 35.1665C15.6564 35.351 15.8382 35.4705 16.0387 35.4703L23.3901 35.4619C23.6647 35.4616 23.8866 35.2397 23.8869 34.9649L23.8909 31.1925C23.8912 30.9138 23.6637 30.6875 23.3851 30.6893L18.6537 30.7207C18.4505 30.722 18.266 30.6001 18.1871 30.4123L14.9057 22.6C14.8455 22.4569 14.855 22.2943 14.9313 22.1598L16.4022 19.5674C16.5358 19.3319 16.849 19.2731 17.0609 19.4436C17.3623 19.6861 17.8058 19.4531 17.7754 19.0682L17.4315 14.7098C17.4065 14.3943 17.0988 14.1794 16.7948 14.2654L13.0133 15.3349C12.6601 15.4348 12.5764 15.8969 12.8716 16.1175C13.0541 16.254 13.1048 16.5058 12.989 16.7009L9.9999 21.7343C9.91828 21.8717 9.90764 22.0403 9.97128 22.1877L15.5768 35.1665Z" fill="#328257" stroke="#328257" stroke-width="0.5"/>
</svg>
