<svg width="154" height="45" viewBox="0 0 154 45" fill="none" xmlns="http://www.w3.org/2000/svg">
<path d="M19.91 5.03C20.33 5.35 20.67 5.725 20.93 6.155C21.19 6.585 21.325 6.98 21.335 7.34C21.345 7.7 21.205 8.085 20.915 8.495C20.625 8.905 20.275 9.24 19.865 9.5C19.455 9.76 19.05 9.89 18.65 9.89C17.53 9.89 15.87 9.11 13.67 7.55C12.45 6.65 10.94 6.98 9.14 8.54C8.32 9.18 7.8 9.5 7.58 9.5C7.44 9.5 7.26 9.68 7.04 10.04C6.82 10.4 6.64 10.84 6.5 11.36C6.36 11.88 6.255 12.4 6.185 12.92C6.115 13.44 6.095 13.89 6.125 14.27C6.155 14.65 6.26 14.86 6.44 14.9C6.48 14.9 6.6 14.91 6.8 14.93C6.98 14.95 7.27 14.97 7.67 14.99C8.03 14.99 8.36 14.99 8.66 14.99C9.24 15.03 9.69 15.08 10.01 15.14C10.33 15.2 10.6 15.31 10.82 15.47C11.04 15.63 11.27 15.87 11.51 16.19C12.05 16.83 12.52 17.62 12.92 18.56C13.06 18.92 13.125 19.245 13.115 19.535C13.105 19.825 13.06 20.055 12.98 20.225C12.9 20.395 12.735 20.57 12.485 20.75C12.235 20.93 12.025 21.055 11.855 21.125C11.685 21.195 11.42 21.3 11.06 21.44C10.7 21.58 10.45 21.68 10.31 21.74C9.95 21.9 9.455 22.09 8.825 22.31C8.195 22.53 7.74 22.705 7.46 22.835C7.18 22.965 6.815 23.21 6.365 23.57C5.915 23.93 5.46 24.39 5 24.95C4.32 25.81 4.02 26.51 4.1 27.05C4.24 28.09 4.76 28.81 5.66 29.21C6.56 29.61 7.615 29.725 8.825 29.555C10.035 29.385 11.295 29.095 12.605 28.685C13.915 28.275 15.07 27.825 16.07 27.335C17.07 26.845 17.78 26.43 18.2 26.09C18.66 25.71 19.065 25.555 19.415 25.625C19.765 25.695 19.95 26.03 19.97 26.63C19.97 26.87 19.87 27.155 19.67 27.485C19.47 27.815 19.265 28.095 19.055 28.325C18.845 28.555 18.565 28.85 18.215 29.21C17.865 29.57 17.66 29.78 17.6 29.84C16.82 30.7 15.755 31.38 14.405 31.88C13.055 32.38 11.61 32.76 10.07 33.02C6.75 33.56 4.09 33.13 2.09 31.73C1.79 31.51 1.53 31.29 1.31 31.07C1.09 30.85 0.915 30.615 0.785 30.365C0.655 30.115 0.545 29.875 0.455 29.645C0.365 29.415 0.315 29.155 0.305 28.865C0.295 28.575 0.295 28.315 0.305 28.085C0.315 27.855 0.355 27.575 0.425 27.245C0.495 26.915 0.555 26.64 0.605 26.42C0.655 26.2 0.73 25.9 0.83 25.52C0.99 24.96 1.57 23.78 2.57 21.98C3.73 19.84 4.5 18.87 4.88 19.07C4.92 19.09 4.95 19.11 4.97 19.13C3.97 17.85 3.2 16.63 2.66 15.47C2.12 14.31 1.93 13.12 2.09 11.9C2.23 10.7 2.58 9.62 3.14 8.66C3.7 7.7 4.5 6.79 5.54 5.93C6.28 5.33 7.075 4.86 7.925 4.52C8.775 4.18 10.08 3.83 11.84 3.47C12.38 3.35 12.72 3.23 12.86 3.11C13 2.99 13.06 2.73 13.04 2.33C13 2.15 13.005 1.97 13.055 1.79C13.105 1.61 13.185 1.44 13.295 1.28C13.405 1.12 13.54 0.959998 13.7 0.799998C13.86 0.639997 14.03 0.504997 14.21 0.394998C14.39 0.284999 14.57 0.195 14.75 0.125C14.93 0.0549979 15.11 0.0199969 15.29 0.0199969C15.65 0.0199969 16.3 0.204998 17.24 0.575C18.18 0.944999 18.65 1.22 18.65 1.4C18.65 1.56 18.39 1.94 17.87 2.54C17.45 3.12 17.285 3.525 17.375 3.755C17.465 3.985 17.89 4.19 18.65 4.37C19.07 4.49 19.49 4.71 19.91 5.03ZM33.4079 28.31C33.8479 27.95 34.2279 27.8 34.5479 27.86C34.8679 27.92 35.0379 28.24 35.0579 28.82C35.0579 28.96 35.0329 29.105 34.9829 29.255C34.9329 29.405 34.8529 29.55 34.7429 29.69C34.6329 29.83 34.5279 29.955 34.4279 30.065C34.3279 30.175 34.1929 30.295 34.0229 30.425C33.8529 30.555 33.7129 30.655 33.6029 30.725C33.4929 30.795 33.3479 30.89 33.1679 31.01C32.9879 31.13 32.8679 31.21 32.8079 31.25C32.3279 31.57 31.8379 31.84 31.3379 32.06C31.0179 32.2 30.4779 32.395 29.7179 32.645C28.9579 32.895 27.9879 33.175 26.8079 33.485C25.6279 33.795 24.4779 33.915 23.3579 33.845C22.2379 33.775 21.3979 33.46 20.8379 32.9C20.6179 32.68 20.3679 32.36 20.0879 31.94C19.8079 31.52 19.5629 31.11 19.3529 30.71C19.1429 30.31 18.9879 29.98 18.8879 29.72C18.6279 29.02 18.5079 28.05 18.5279 26.81C18.7079 23.03 20.3279 19.79 23.3879 17.09C24.1079 16.49 24.6379 16.125 24.9779 15.995C25.3179 15.865 25.9579 15.8 26.8979 15.8C28.6179 15.8 29.9329 16.18 30.8429 16.94C31.7529 17.7 32.0979 18.7 31.8779 19.94C31.7379 20.56 31.6029 20.945 31.4729 21.095C31.3429 21.245 31.0479 21.35 30.5879 21.41C29.9679 21.47 29.3829 21.345 28.8329 21.035C28.2829 20.725 28.0679 20.39 28.1879 20.03C28.3079 19.73 28.2429 19.425 27.9929 19.115C27.7429 18.805 27.4379 18.65 27.0779 18.65C26.4179 18.65 25.4129 19.345 24.0629 20.735C22.7129 22.125 22.0379 23.17 22.0379 23.87C22.0379 24.13 21.8979 24.51 21.6179 25.01C21.3179 25.45 21.1779 26.21 21.1979 27.29C21.2379 28.35 21.4079 29.1 21.7079 29.54C22.1879 30.26 22.9929 30.755 24.1229 31.025C25.2529 31.295 26.2879 31.34 27.2279 31.16C27.7279 31.08 28.2679 30.92 28.8479 30.68C29.9079 30.26 30.8779 29.71 31.7579 29.03C32.4379 28.53 32.9079 28.34 33.1679 28.46C33.1879 28.46 33.2229 28.44 33.2729 28.4C33.3229 28.36 33.3679 28.33 33.4079 28.31ZM50.6234 26.24C50.9234 26.4 51.0734 26.75 51.0734 27.29C51.0934 27.91 50.7434 28.49 50.0234 29.03C49.7634 29.21 49.4634 29.39 49.1234 29.57C49.0634 29.59 48.9934 29.63 48.9134 29.69C48.6334 29.85 48.3934 29.94 48.1934 29.96C47.5934 30 47.0134 29.76 46.4534 29.24C46.3134 29.12 46.1634 28.91 46.0034 28.61L45.9134 28.46C45.7334 28.16 45.5634 27.97 45.4034 27.89C45.2434 27.81 45.0434 27.83 44.8034 27.95C44.5034 28.11 44.1634 28.6 43.7834 29.42C43.6034 29.84 43.4534 30.13 43.3334 30.29C42.9534 30.85 42.6234 31.17 42.3434 31.25C41.9834 31.43 41.4934 31.71 40.8734 32.09C40.1134 32.55 39.3934 32.8 38.7134 32.84C37.9334 32.9 37.3534 32.98 36.9734 33.08C36.8734 33.1 36.7734 33.11 36.6734 33.11C36.4534 33.11 36.2634 33.07 36.1034 32.99C35.8634 32.89 35.5134 32.62 35.0534 32.18C34.5534 31.72 34.2134 31.315 34.0334 30.965C33.8534 30.615 33.6734 30 33.4934 29.12C33.1934 27.68 33.1234 26.525 33.2834 25.655C33.4434 24.785 33.8834 23.77 34.6034 22.61C35.5234 21.13 36.3934 20.06 37.2134 19.4C38.0334 18.74 39.0434 18.27 40.2434 17.99C40.8234 17.87 41.3334 17.66 41.7734 17.36C42.4734 16.9 43.0934 16.73 43.6334 16.85C44.1534 16.95 44.7534 17.36 45.4334 18.08C45.7934 18.48 46.0534 18.8 46.2134 19.04C46.3734 19.28 46.4834 19.51 46.5434 19.73C46.6034 19.95 46.6334 20.27 46.6334 20.69C46.6334 22.47 46.6934 23.85 46.8134 24.83C46.8734 25.41 47.0084 25.855 47.2184 26.165C47.4284 26.475 47.7934 26.85 48.3134 27.29L48.4034 27.23C48.7634 26.99 49.0234 26.8 49.1834 26.66C49.7834 26.2 50.2634 26.06 50.6234 26.24ZM43.6934 21.08C43.6934 20.3 43.6134 19.87 43.4534 19.79C43.4134 19.83 43.3734 19.88 43.3334 19.94C43.2334 20.12 43.2434 20.53 43.3634 21.17C43.4434 21.63 43.5234 21.92 43.6034 22.04C43.6634 21.88 43.6934 21.56 43.6934 21.08ZM42.8234 25.7C42.9034 25.24 42.8934 24.91 42.7934 24.71C42.7134 24.51 42.4634 24.2 42.0434 23.78C41.3834 23.14 41.0534 22.61 41.0534 22.19C41.0534 21.91 40.9634 21.58 40.7834 21.2C40.6034 20.82 40.4234 20.57 40.2434 20.45C40.1034 20.35 39.9834 20.3 39.8834 20.3C39.8034 20.3 39.7334 20.32 39.6734 20.36C39.4734 20.46 39.0634 20.83 38.4434 21.47C37.9034 22.01 37.3984 22.7 36.9284 23.54C36.4584 24.38 36.1134 25.17 35.8934 25.91C35.6734 26.61 35.6334 27.12 35.7734 27.44C35.9334 27.74 36.0234 28.25 36.0434 28.97C36.1034 29.51 36.1834 29.91 36.2834 30.17C36.3834 30.39 36.5334 30.54 36.7334 30.62C36.9534 30.72 37.3134 30.77 37.8134 30.77C38.0534 30.77 38.2534 30.76 38.4134 30.74C38.5734 30.74 38.7234 30.72 38.8634 30.68C39.0034 30.64 39.1334 30.59 39.2534 30.53C39.3934 30.45 39.5334 30.36 39.6734 30.26C39.8134 30.16 39.9834 30.03 40.1834 29.87C40.9434 29.27 41.3734 28.79 41.4734 28.43C41.5934 28.05 41.8334 27.65 42.1934 27.23C42.5134 26.89 42.7234 26.38 42.8234 25.7ZM60.7618 4.43C61.4218 3.95 62.2018 3.42 63.1018 2.84C64.0018 2.22 64.7318 1.91 65.2918 1.91C65.8518 1.91 66.2868 2.115 66.5968 2.525C66.9068 2.935 66.9718 3.4 66.7918 3.92C66.6118 4.62 66.8418 4.95 67.4818 4.91C67.8818 4.89 68.4518 4.69 69.1918 4.31C70.0918 3.83 71.1018 3.57 72.2218 3.53C73.3418 3.49 74.2918 3.66 75.0718 4.04C75.8118 4.44 76.4818 5.11 77.0818 6.05C77.5218 6.67 77.7718 7.16 77.8318 7.52C77.8918 7.88 77.8118 8.54 77.5918 9.5C77.0318 12.26 75.2818 14.96 72.3418 17.6L70.0918 19.52L70.9318 20.96C71.4518 21.86 71.8018 22.96 71.9818 24.26C72.1018 24.78 72.1318 25.245 72.0718 25.655C72.0118 26.065 71.9168 26.42 71.7868 26.72C71.6568 27.02 71.4118 27.45 71.0518 28.01C69.9718 29.57 68.5218 30.86 66.7018 31.88C64.9018 32.9 63.1418 33.43 61.4218 33.47C60.6018 33.47 59.9318 33.39 59.4118 33.23C58.8918 33.07 58.2018 32.67 57.3418 32.03L55.1818 30.5L54.0118 31.64C53.4518 32.2 53.0868 32.49 52.9168 32.51C52.7468 32.53 52.4518 32.35 52.0318 31.97C51.6718 31.67 51.4518 31.36 51.3718 31.04C51.2918 30.74 51.3118 30.19 51.4318 29.39C51.5518 28.57 51.5818 28.03 51.5218 27.77C51.4618 27.51 51.2418 27.29 50.8618 27.11C50.3418 26.81 50.0818 26.53 50.0818 26.27C50.0818 25.79 50.3618 25.355 50.9218 24.965C51.4818 24.575 52.0818 24.38 52.7218 24.38C53.0018 24.38 53.2418 24.36 53.4418 24.32C53.6218 24.28 53.8068 24.185 53.9968 24.035C54.1868 23.885 54.3618 23.7 54.5218 23.48C54.7418 23.18 54.9818 22.86 55.2418 22.52C55.5618 21.98 55.8568 21.2 56.1268 20.18C56.3968 19.16 56.6218 18.44 56.8018 18.02C56.9218 17.78 57.0618 17.525 57.2218 17.255C57.3818 16.985 57.5468 16.71 57.7168 16.43C57.8868 16.15 58.0218 15.9 58.1218 15.68C58.3818 15.16 58.5218 14.64 58.5418 14.12C58.5618 13.6 58.5418 13.05 58.4818 12.47C58.4218 11.89 58.4118 11.39 58.4518 10.97C58.4718 10.87 58.5418 10.64 58.6618 10.28C58.7818 9.92 58.9118 9.54 59.0518 9.14C59.1918 8.74 59.3318 8.375 59.4718 8.045C59.6118 7.715 59.7118 7.55 59.7718 7.55C58.4318 7.91 57.4218 7.99 56.7418 7.79C56.0818 7.61 55.6518 7.33 55.4518 6.95C55.2518 6.57 55.2718 6.195 55.5118 5.825C55.7518 5.455 56.1318 5.17 56.6518 4.97C57.0118 4.83 57.6918 4.78 58.6918 4.82C59.6918 4.86 60.3818 4.73 60.7618 4.43ZM68.2018 24.38C68.2018 23.08 67.9418 22.21 67.4218 21.77C67.1218 21.49 66.7168 21.34 66.2068 21.32C65.6968 21.3 65.0868 21.33 64.3768 21.41C63.6668 21.49 63.0918 21.51 62.6518 21.47C61.4318 21.35 60.6218 21.39 60.2218 21.59C59.9618 21.73 59.7168 22.16 59.4868 22.88C59.2568 23.6 59.0818 24.375 58.9618 25.205C58.8418 26.035 58.8018 26.83 58.8418 27.59C58.8818 28.35 59.0118 28.84 59.2318 29.06C59.6318 29.46 60.1268 29.695 60.7168 29.765C61.3068 29.835 61.9118 29.78 62.5318 29.6C63.1518 29.42 63.7218 29.2 64.2418 28.94C64.7618 28.68 65.2218 28.4 65.6218 28.1C67.3418 26.84 68.2018 25.6 68.2018 24.38ZM72.1018 8.33C71.5818 7.71 70.9518 7.34 70.2118 7.22C69.3518 7.1 68.4018 7.32 67.3618 7.88C66.3218 8.44 65.4018 9.15 64.6018 10.01C63.8018 10.87 63.1418 11.8 62.6218 12.8C62.1018 13.8 61.8718 14.65 61.9318 15.35C62.0718 16.85 63.0218 17.52 64.7818 17.36C66.4418 17.2 68.1718 16.46 69.9718 15.14C71.7518 13.82 72.7118 12.56 72.8518 11.36C72.9918 10.08 72.7418 9.07 72.1018 8.33ZM94.5793 27.14C94.9993 26.76 95.3743 26.605 95.7043 26.675C96.0343 26.745 96.2093 27.06 96.2293 27.62C96.2293 27.78 96.2043 27.935 96.1543 28.085C96.1043 28.235 96.0243 28.375 95.9143 28.505C95.8043 28.635 95.6943 28.76 95.5843 28.88C95.4743 29 95.3393 29.12 95.1793 29.24C95.0193 29.36 94.8843 29.46 94.7743 29.54C94.6643 29.62 94.5193 29.715 94.3393 29.825C94.1593 29.935 94.0393 30.02 93.9793 30.08C93.4993 30.4 93.0093 30.66 92.5093 30.86C92.4693 30.88 92.4093 30.91 92.3293 30.95C92.2893 31.05 92.2093 31.13 92.0893 31.19C91.9693 31.25 91.7893 31.31 91.5493 31.37C91.0893 31.63 90.4093 31.81 89.5093 31.91C88.6093 32.01 87.7893 32.035 87.0493 31.985C86.3093 31.935 85.8293 31.85 85.6093 31.73C85.4293 31.61 85.2293 31.36 85.0093 30.98C84.7893 30.6 84.5993 30.22 84.4393 29.84C84.2793 29.46 84.1793 29.17 84.1393 28.97C83.9993 28.39 83.9493 27.77 83.9893 27.11C84.0493 26.43 84.1593 25.37 84.3193 23.93V23.51C84.3193 23.41 84.2843 23.335 84.2143 23.285C84.1443 23.235 84.0493 23.2 83.9293 23.18C83.8093 23.18 83.6493 23.18 83.4493 23.18C83.2093 23.18 82.9393 23.14 82.6393 23.06C82.3393 22.98 82.0443 22.905 81.7543 22.835C81.4643 22.765 81.2093 22.73 80.9893 22.73C81.0093 22.73 80.9393 23.045 80.7793 23.675C80.6193 24.305 80.4143 24.97 80.1643 25.67C79.9143 26.37 79.6893 26.78 79.4893 26.9C78.7693 27.32 78.0093 27.62 77.2093 27.8C76.1693 28.04 76.6393 25.77 78.6193 20.99C78.6593 20.87 78.7593 20.62 78.9193 20.24C79.0793 19.86 79.1893 19.595 79.2493 19.445C79.3093 19.295 79.4043 19.055 79.5343 18.725C79.6643 18.395 79.7593 18.125 79.8193 17.915C79.8793 17.705 79.9443 17.45 80.0143 17.15C80.0843 16.85 80.1343 16.565 80.1643 16.295C80.1943 16.025 80.2093 15.75 80.2093 15.47C80.2093 15.15 80.4143 14.58 80.8243 13.76C81.2343 12.94 81.5593 12.44 81.7993 12.26C82.1193 12.08 82.5543 12.015 83.1043 12.065C83.6543 12.115 84.0193 12.24 84.1993 12.44C84.4393 12.74 84.4393 13.9 84.1993 15.92C84.0193 17.24 83.9393 18.09 83.9593 18.47C83.9793 18.87 84.0893 19.19 84.2893 19.43C84.5293 19.63 84.7393 19.725 84.9193 19.715C85.0993 19.705 85.4393 19.55 85.9393 19.25C86.6793 18.83 87.2143 18.63 87.5443 18.65C87.8743 18.67 88.1793 18.9 88.4593 19.34C88.6793 19.66 88.7793 19.95 88.7593 20.21C88.7393 20.47 88.5893 20.97 88.3093 21.71C87.9093 22.77 87.5493 23.98 87.2293 25.34C86.9893 26.42 86.9143 27.22 87.0043 27.74C87.0943 28.26 87.4193 28.87 87.9793 29.57C88.2193 29.91 88.4093 30.1 88.5493 30.14C88.6093 30.16 88.7143 30.145 88.8643 30.095C89.0143 30.045 89.1743 29.985 89.3443 29.915C89.5143 29.845 89.6293 29.8 89.6893 29.78C90.3093 29.62 90.7193 29.49 90.9193 29.39C92.4593 28.59 93.6793 27.84 94.5793 27.14ZM100.611 13.79C100.051 13.93 99.5014 13.73 98.9614 13.19C98.5814 12.81 98.3814 12.56 98.3614 12.44C98.3414 12.32 98.4814 12.14 98.7814 11.9C99.2014 11.6 99.7364 11.45 100.386 11.45C101.036 11.45 101.481 11.6 101.721 11.9C101.981 12.24 101.996 12.61 101.766 13.01C101.536 13.41 101.151 13.67 100.611 13.79ZM105.951 28.16C106.091 28.4 106.096 28.63 105.966 28.85C105.836 29.07 105.471 29.43 104.871 29.93C103.931 30.73 102.821 31.46 101.541 32.12C100.581 32.6 99.5864 32.795 98.5564 32.705C97.5264 32.615 96.5564 32.32 95.6464 31.82C94.7364 31.32 93.9514 30.67 93.2914 29.87C92.3514 28.75 92.0714 27.26 92.4514 25.4C92.4914 25.26 92.5714 24.78 92.6914 23.96C92.8114 23.14 92.9364 22.415 93.0664 21.785C93.1964 21.155 93.3414 20.74 93.5014 20.54C93.6814 20.32 93.9764 20.17 94.3864 20.09C94.7964 20.01 95.2214 20.005 95.6614 20.075C96.1014 20.145 96.5214 20.275 96.9214 20.465C97.3214 20.655 97.5964 20.91 97.7464 21.23C97.8964 21.55 97.8914 21.91 97.7314 22.31C97.2714 23.27 97.0414 23.94 97.0414 24.32C97.0414 24.68 96.8414 25.13 96.4414 25.67C96.1014 26.07 95.8964 26.555 95.8264 27.125C95.7564 27.695 95.8514 28.07 96.1114 28.25C96.3314 28.33 96.4414 28.58 96.4414 29C96.4414 29.36 96.7014 29.77 97.2214 30.23C97.5814 30.57 97.8664 30.76 98.0764 30.8C98.2864 30.84 98.6714 30.79 99.2314 30.65C100.051 30.35 101.101 29.74 102.381 28.82C103.401 28.08 104.176 27.66 104.706 27.56C105.236 27.46 105.651 27.66 105.951 28.16ZM125.091 27.41C125.531 27.03 125.916 26.875 126.246 26.945C126.576 27.015 126.741 27.33 126.741 27.89C126.761 28.07 126.726 28.25 126.636 28.43C126.546 28.61 126.451 28.765 126.351 28.895C126.251 29.025 126.106 29.175 125.916 29.345C125.726 29.515 125.571 29.64 125.451 29.72C125.331 29.8 125.156 29.915 124.926 30.065C124.696 30.215 124.561 30.31 124.521 30.35C124.041 30.67 123.551 30.93 123.051 31.13C122.971 31.17 122.831 31.25 122.631 31.37C122.431 31.49 122.281 31.57 122.181 31.61C121.521 31.87 121.031 32.02 120.711 32.06C119.011 32.28 117.851 32.32 117.231 32.18C116.611 32.04 115.911 31.62 115.131 30.92C114.651 30.44 114.311 30 114.111 29.6C113.911 29.2 113.751 28.66 113.631 27.98C113.391 26.88 113.151 26.32 112.911 26.3C112.731 26.3 112.521 26.5 112.281 26.9C111.961 27.48 111.391 28.22 110.571 29.12C109.751 30.02 109.081 30.65 108.561 31.01C108.201 31.25 107.796 31.445 107.346 31.595C106.896 31.745 106.411 31.85 105.891 31.91C105.171 31.97 104.691 31.975 104.451 31.925C104.211 31.875 103.991 31.69 103.791 31.37C103.171 30.39 102.956 28.925 103.146 26.975C103.336 25.025 103.871 23.37 104.751 22.01C105.271 21.25 105.981 20.445 106.881 19.595C107.781 18.745 108.741 18.04 109.761 17.48C110.401 17.1 111.511 16.91 113.091 16.91C113.591 16.89 114.011 16.815 114.351 16.685C114.691 16.555 114.971 16.355 115.191 16.085C115.411 15.815 115.586 15.545 115.716 15.275C115.846 15.005 116.016 14.645 116.226 14.195C116.436 13.745 116.641 13.36 116.841 13.04C119.921 8.18 121.581 5.57 121.821 5.21C121.881 5.09 122.001 4.88 122.181 4.58C123.441 2.44 124.371 1.28 124.971 1.1C125.491 0.939997 125.861 1.31 126.081 2.21C126.321 3.11 126.221 4.17 125.781 5.39C125.341 6.61 124.806 7.695 124.176 8.645C123.546 9.595 122.791 10.685 121.911 11.915C121.031 13.145 120.451 14.02 120.171 14.54C119.931 14.94 119.666 15.545 119.376 16.355C119.086 17.165 118.881 17.71 118.761 17.99C117.021 21.77 116.321 24.95 116.661 27.53C116.781 28.49 117.026 29.175 117.396 29.585C117.766 29.995 118.301 30.2 119.001 30.2C119.501 30.2 120.141 30.09 120.921 29.87C121.221 29.77 121.401 29.7 121.461 29.66C123.001 28.86 124.211 28.11 125.091 27.41ZM109.491 26.21C112.331 22.61 113.711 20.52 113.631 19.94C113.531 19.52 113.146 19.315 112.476 19.325C111.806 19.335 111.161 19.56 110.541 20C109.781 20.52 108.946 21.29 108.036 22.31C107.126 23.33 106.541 24.15 106.281 24.77C105.981 25.43 105.831 26.25 105.831 27.23C105.831 28.45 106.071 29.03 106.551 28.97C107.111 28.91 108.091 27.99 109.491 26.21ZM139.108 28.1C139.548 27.72 139.933 27.565 140.263 27.635C140.593 27.705 140.758 28.03 140.758 28.61C140.758 28.77 140.718 28.94 140.638 29.12C140.558 29.3 140.468 29.455 140.368 29.585C140.268 29.715 140.118 29.865 139.918 30.035C139.718 30.205 139.563 30.33 139.453 30.41C139.343 30.49 139.173 30.605 138.943 30.755C138.713 30.905 138.578 31 138.538 31.04C138.058 31.36 137.558 31.62 137.038 31.82C136.978 31.86 136.748 31.99 136.348 32.21C135.948 32.43 135.518 32.65 135.058 32.87C134.598 33.09 134.188 33.26 133.828 33.38C133.388 33.7 132.818 34.05 132.118 34.43C131.078 35.01 130.388 35.69 130.048 36.47C129.948 36.67 129.808 36.93 129.628 37.25C129.468 37.55 129.278 37.86 129.058 38.18C128.858 38.48 128.628 38.81 128.368 39.17C128.108 39.55 127.878 39.89 127.678 40.19C127.478 40.49 127.268 40.78 127.048 41.06C126.828 41.36 126.668 41.58 126.568 41.72C126.428 41.96 125.983 42.315 125.233 42.785C124.483 43.255 123.728 43.69 122.968 44.09C121.348 44.89 120.328 44.61 119.908 43.25C119.728 42.67 119.638 42.23 119.638 41.93C119.638 41.77 119.673 41.605 119.743 41.435C119.813 41.265 119.888 41.11 119.968 40.97C120.048 40.83 120.163 40.68 120.313 40.52C120.463 40.36 120.593 40.23 120.703 40.13C120.813 40.03 120.953 39.9 121.123 39.74C121.293 39.58 121.418 39.47 121.498 39.41C122.258 38.67 123.278 37.96 124.558 37.28C124.918 37.08 125.448 36.75 126.148 36.29C127.068 35.69 127.608 35.35 127.768 35.27C128.208 35.03 128.758 34.41 129.418 33.41C130.078 32.41 130.328 31.83 130.168 31.67C130.048 31.57 129.528 31.67 128.608 31.97C126.148 32.81 124.578 31.92 123.898 29.3C123.698 28.58 123.768 27.62 124.108 26.42C124.448 25.22 124.938 24.15 125.578 23.21C125.958 22.67 126.363 22.15 126.793 21.65C127.223 21.15 127.723 20.655 128.293 20.165C128.863 19.675 129.443 19.255 130.033 18.905C130.623 18.555 131.258 18.3 131.938 18.14C132.618 17.98 133.268 17.96 133.888 18.08C134.608 18.2 135.148 18.48 135.508 18.92C135.868 19.36 136.053 19.86 136.063 20.42C136.073 20.98 136.018 21.58 135.898 22.22C135.678 23.14 135.413 24.02 135.103 24.86C134.793 25.7 134.528 26.25 134.308 26.51C134.048 26.83 133.918 27.09 133.918 27.29C133.918 27.47 133.648 28.08 133.108 29.12C132.608 30.22 132.358 30.99 132.358 31.43C132.358 31.61 132.368 31.75 132.388 31.85C132.448 31.75 132.663 31.61 133.033 31.43C133.403 31.25 133.853 31.05 134.383 30.83C134.913 30.61 135.268 30.46 135.448 30.38C136.988 29.56 138.208 28.8 139.108 28.1ZM127.408 37.79C127.788 37.15 127.848 36.83 127.588 36.83C127.208 36.83 126.488 37.26 125.428 38.12C124.368 38.98 123.423 39.885 122.593 40.835C121.763 41.785 121.438 42.35 121.618 42.53C122.038 42.93 122.908 42.59 124.228 41.51C125.548 40.43 126.608 39.19 127.408 37.79ZM130.018 28.01C131.158 26.15 131.728 25.11 131.728 24.89C131.728 24.45 131.878 24.005 132.178 23.555C132.478 23.105 132.658 22.57 132.718 21.95C132.798 21.37 132.718 21.04 132.478 20.96C132.218 20.88 131.693 21.085 130.903 21.575C130.113 22.065 129.588 22.5 129.328 22.88C129.248 23 129.033 23.205 128.683 23.495C128.333 23.785 127.968 24.13 127.588 24.53C127.208 24.93 126.928 25.33 126.748 25.73C126.088 27.13 125.838 28.14 125.998 28.76C126.178 29.5 126.488 29.915 126.928 30.005C127.368 30.095 128.008 29.87 128.848 29.33C129.228 29.11 129.618 28.67 130.018 28.01ZM152.03 28.64C152.47 28.28 152.855 28.135 153.185 28.205C153.515 28.275 153.68 28.59 153.68 29.15C153.7 29.33 153.665 29.51 153.575 29.69C153.485 29.87 153.39 30.025 153.29 30.155C153.19 30.285 153.045 30.43 152.855 30.59C152.665 30.75 152.51 30.87 152.39 30.95C152.27 31.03 152.095 31.145 151.865 31.295C151.635 31.445 151.5 31.54 151.46 31.58C150.98 31.9 150.49 32.17 149.99 32.39C149.95 32.41 149.895 32.435 149.825 32.465C149.755 32.495 149.68 32.525 149.6 32.555C149.52 32.585 149.44 32.615 149.36 32.645C149.28 32.675 149.215 32.7 149.165 32.72L149.09 32.75C147.87 33.25 146.56 33.54 145.16 33.62C143.72 33.7 142.67 33.57 142.01 33.23C141.93 33.19 141.61 33.05 141.05 32.81C140.49 32.57 140.09 32.36 139.85 32.18C139.39 31.88 138.95 31.23 138.53 30.23C137.75 28.43 137.36 26.84 137.36 25.46C137.36 24.62 137.51 23.52 137.81 22.16C137.83 22.08 137.865 21.91 137.915 21.65C137.965 21.39 138.01 21.195 138.05 21.065C138.09 20.935 138.14 20.755 138.2 20.525C138.26 20.295 138.32 20.1 138.38 19.94C138.44 19.78 138.51 19.615 138.59 19.445C138.67 19.275 138.75 19.12 138.83 18.98C139.25 18.4 139.59 17.98 139.85 17.72C140.93 16.6 142.3 16.1 143.96 16.22C145.68 16.36 146.61 16.93 146.75 17.93C146.87 18.71 146.825 19.515 146.615 20.345C146.405 21.175 146.145 21.86 145.835 22.4C145.525 22.94 145.095 23.64 144.545 24.5C143.995 25.36 143.6 26.02 143.36 26.48C142.48 28.14 142.04 29.13 142.04 29.45C142.04 29.71 142.29 30.08 142.79 30.56C143.11 30.86 143.395 31.04 143.645 31.1C143.895 31.16 144.35 31.13 145.01 31.01C146.05 30.87 147.18 30.62 148.4 30.26C148.86 30.1 149.53 29.83 150.41 29.45C151.29 29.07 151.83 28.8 152.03 28.64ZM140.39 26.51C140.57 26.51 141.07 25.73 141.89 24.17C142.69 22.61 143.09 21.67 143.09 21.35C143.09 20.97 142.885 20.725 142.475 20.615C142.065 20.505 141.74 20.6 141.5 20.9C141.3 21.14 141.1 21.5 140.9 21.98C140.7 22.46 140.54 22.95 140.42 23.45C140.32 23.95 140.23 24.43 140.15 24.89C140.07 25.35 140.05 25.735 140.09 26.045C140.13 26.355 140.23 26.51 140.39 26.51Z" fill="#18884D"/>
</svg>
