<svg width="679" height="189" viewBox="0 0 679 189" fill="none" xmlns="http://www.w3.org/2000/svg">
<path d="M471.945 165.082C456.211 165.453 440.477 165.269 424.93 166.195C408.457 167.305 391.98 169.156 375.508 171.012C356.996 173.047 338.488 176.012 319.977 177.68C296.285 179.715 272.594 181.566 248.715 182.492C229.836 183.234 210.77 182.492 191.891 182.68C170.418 182.68 148.945 182.68 127.473 183.234C115.996 183.418 104.523 184.715 92.8594 185.457C77.125 186.754 61.207 186.566 45.4766 185.086C38.625 184.344 36.9609 182.125 36.4062 175.457C34.7383 154.156 32.7031 133.039 31.5938 111.742C30.8516 97.664 28.2617 83.7734 27.3359 69.6952C27.1484 67.4726 27.1484 65.2499 27.3359 63.0273C27.3359 59.6952 29.7422 56.7304 33.0742 55.9921C33.8125 55.8046 34.5547 55.621 35.293 55.4335C46.2148 54.6952 56.2109 50.621 66.207 46.3593C72.3125 44.1367 78.6094 42.6562 85.0859 41.914C102.672 39.3202 120.441 38.582 138.023 37.2851C151.906 35.9882 165.789 35.4335 179.855 35.8007C191.148 36.1718 202.254 36.7304 213.547 37.8398C227.613 38.9492 241.68 38.7656 255.562 37.0976C276.293 35.0624 297.211 33.2109 317.941 33.9492C328.676 34.3202 339.414 35.4335 350.336 36.1718C364.586 36.914 379.023 36.7304 393.277 35.4335C406.605 34.5077 419.746 33.2109 433.074 32.2851C456.953 30.8007 480.645 29.6913 504.336 28.5781C521.551 27.6523 538.949 26.914 556.164 25.9843C566.348 25.4296 576.527 24.5038 586.707 24.1327C592.074 23.9492 597.629 24.6913 603.18 24.6913C606.699 24.6913 610.215 24.1327 613.73 23.9492C622.617 23.3945 631.5 22.6523 640.199 24.8749C643.719 25.8007 647.234 25.6171 650.75 26.5429C656.305 28.0234 657.785 30.0624 657.785 35.8007C657.969 48.0273 657.785 60.0663 657.785 72.289C657.785 95.0702 653.527 117.297 650.012 139.707C649.457 142.855 648.531 146.008 647.605 149.156C646.496 153.414 642.605 156.379 638.164 156.562C632.613 156.934 626.875 157.305 621.32 157.488C607.066 158.23 593 158.414 578.746 159.527C566.715 160.269 554.684 161.934 542.469 163.047C521.551 165.082 500.637 165.824 479.535 165.641C476.941 165.641 474.535 165.641 471.945 165.641V165.082Z" fill="#F7F7F7"/>
<path d="M68.9803 188.051C61.0233 188.051 53.0623 187.68 45.2889 186.754C37.6991 185.828 35.1092 183.234 34.5545 175.457C33.9998 168.973 33.4412 162.488 32.8866 156.191C31.5936 141.563 30.2967 126.559 29.5545 111.742C29.1873 104.52 28.2616 97.1094 27.3358 89.8868C26.7811 83.4024 25.8553 76.5509 25.4842 69.6954C25.2967 67.4727 25.4842 65.2501 25.4842 62.8438C25.4842 58.586 28.4451 55.0665 32.5194 53.9532H32.8866C33.4412 53.7696 34.1834 53.5821 34.9256 53.5821C45.2889 53.0274 54.9139 48.9532 64.1678 45.0626L65.2811 44.6915C71.5741 42.2852 78.0506 40.8048 84.7147 40.0626C97.8592 38.211 111.183 37.2852 124.14 36.3594C128.769 35.9883 133.211 35.8008 137.84 35.4337C151.722 34.1368 165.789 33.5782 179.672 33.7657C191.332 34.1368 202.808 34.8751 213.359 35.8008C227.242 36.9141 241.308 36.7305 255.191 35.2462C277.406 33.0235 297.394 31.3555 317.941 32.0977C325.348 32.2852 332.933 32.8399 340.152 33.5782L350.336 34.3204C364.586 35.0626 378.84 34.8751 393.094 33.5782L407.715 32.4688C416.043 31.7266 424.558 30.9883 432.89 30.6173C451.953 29.504 471.39 28.5782 490.086 27.4688L504.336 26.7266L527.66 25.6173C537.101 25.2462 546.726 24.6915 556.164 24.1329C560.238 23.9493 564.496 23.5782 568.566 23.3946C574.492 23.0235 580.597 22.6524 586.707 22.2813C589.855 22.0977 593 22.2813 596.148 22.6524C598.555 22.836 600.773 23.0235 603.18 23.0235C605.402 23.0235 607.625 22.836 609.844 22.4688C611.14 22.2813 612.437 22.2813 613.547 22.0977H614.472C622.988 21.5391 631.871 20.8008 640.57 23.2071C642.238 23.5782 643.719 23.7618 645.383 23.9493C647.234 24.1329 649.269 24.504 651.121 24.8751C657.601 26.7266 659.453 29.1329 659.453 35.8008C659.453 45.0626 659.453 54.3243 659.453 63.3985V72.2891C659.453 91.9219 656.305 111.371 653.156 130.449C652.601 133.598 652.23 136.93 651.676 140.078C651.121 143.227 650.195 146.375 649.269 149.524L649.086 149.895C647.789 154.895 643.164 158.414 637.98 158.602C632.055 158.973 626.133 159.34 621.137 159.527C616.137 159.711 611.512 159.898 606.699 160.082C597.441 160.453 588.004 160.824 578.562 161.379C570.789 161.934 562.644 162.859 554.871 163.602C550.613 163.973 546.539 164.527 542.281 164.898C521.367 166.934 500.265 167.676 479.164 167.492H469.723V167.121L457.137 167.305C446.402 167.492 435.297 167.676 424.558 168.231C410.121 169.156 395.312 170.824 381.246 172.305L375.324 173.047C368.105 173.789 360.515 174.898 353.48 175.641C342.375 177.121 331.082 178.606 319.793 179.531C293.137 181.938 269.816 183.418 248.344 184.344C235.941 184.902 223.355 184.715 211.14 184.531C204.66 184.531 197.996 184.344 191.519 184.531H181.707C163.754 184.531 145.242 184.715 127.105 185.086C120.07 185.273 112.668 185.828 105.633 186.383C101.375 186.754 96.9334 187.125 92.6756 187.309C85.2694 187.68 77.1248 188.051 68.9803 188.051ZM172.269 37.4688C160.793 37.4688 149.129 38.211 138.211 39.1368C133.582 39.5079 128.953 39.879 124.512 40.0626C111.555 40.9883 98.4139 41.9141 85.4569 43.7657C79.1639 44.5079 72.8709 45.8048 66.9451 48.0274L65.8358 48.3985C56.2108 52.2852 46.2147 56.5469 35.2928 57.1016C34.7381 57.1016 34.367 57.2891 33.8123 57.4727H33.6287C31.035 58.0274 29.1873 60.2501 29.1873 63.0274C29.1873 65.4376 28.9998 67.4727 29.1873 69.5118C29.5545 76.1798 30.4803 82.8477 31.2225 89.3282C32.1483 96.5548 33.0741 103.961 33.4412 111.371C34.1834 126.188 35.4803 141.191 36.7733 155.824C37.3319 162.305 37.8866 168.789 38.4412 175.086C38.9959 181.195 40.1053 182.492 46.0311 183.051C61.7616 184.531 77.4959 184.715 93.2303 183.418C97.4881 183.234 101.93 182.863 106.187 182.492C113.222 181.938 120.625 181.383 127.844 181.195C145.984 180.828 164.492 180.828 182.449 180.641H192.258C198.922 180.641 205.586 180.641 211.879 180.641C224.097 180.828 236.683 180.828 248.898 180.457C270.187 179.531 293.508 178.047 320.164 175.641C331.269 174.715 342.746 173.234 353.668 171.75C360.887 170.824 368.289 169.898 375.691 168.973L381.617 168.231C395.867 166.566 410.676 164.898 425.113 163.973C436.035 163.231 447.14 163.231 457.879 163.047C462.691 163.047 467.504 162.859 472.316 162.859H474.168V163.231H480.09C501.004 163.418 521.922 162.676 542.84 160.637C547.094 160.27 551.168 159.711 555.426 159.34C563.199 158.414 571.16 157.676 579.117 157.117C588.558 156.563 598.183 156.008 607.437 155.637C612.25 155.453 617.062 155.266 621.691 155.082C626.316 154.895 632.613 154.527 638.535 154.156C642.238 154.156 645.57 151.563 646.308 148.043L646.496 147.672C647.418 144.711 648.16 141.93 648.715 138.781C649.269 135.633 649.64 132.301 650.195 129.152C653.156 110.445 656.305 90.9962 656.305 71.7344V62.8438C656.305 53.7696 656.305 44.5079 656.305 35.2462C656.305 30.2462 655.379 29.1329 650.566 27.8399C648.902 27.4688 647.234 27.0977 645.383 27.0977C643.531 26.9102 641.867 26.7266 640.015 26.3555C631.871 24.3204 623.726 24.8751 615.027 25.4298H614.101C612.805 25.4298 611.695 25.6173 610.398 25.8008C607.992 25.9844 605.773 26.1719 603.367 26.1719C600.961 26.1719 598.555 25.9844 596.148 25.8008C593.183 25.6173 590.039 25.4298 587.078 25.4298C581.152 25.6173 574.859 25.9844 568.937 26.543C564.863 26.9102 560.609 27.0977 556.535 27.2813L527.66 29.1329L504.336 30.2462L490.086 30.9883C471.39 31.9141 451.953 32.8399 432.89 33.9493C424.558 34.5079 416.043 35.2462 407.715 35.8008C402.902 36.1719 397.906 36.543 393.094 36.9141C378.656 38.211 364.215 38.3946 349.777 37.6563C346.445 37.4688 343.117 37.0977 339.598 36.9141C332.379 36.3594 324.789 35.8008 317.387 35.4337C297.211 34.6915 277.219 36.543 255.191 38.5821C241.125 40.0626 226.871 40.2462 212.805 39.1368C202.254 38.211 190.965 37.4688 179.301 37.0977C177.082 37.4688 174.676 37.4688 172.269 37.4688Z" fill="#F7F7F7"/>
<path d="M86.637 50.121C86.931 50.345 87.169 50.6075 87.351 50.9085C87.533 51.2095 87.6275 51.486 87.6345 51.738C87.6415 51.99 87.5435 52.2595 87.3405 52.5465C87.1375 52.8335 86.8925 53.068 86.6055 53.25C86.3185 53.432 86.035 53.523 85.755 53.523C84.971 53.523 83.809 52.977 82.269 51.885C81.415 51.255 80.358 51.486 79.098 52.578C78.524 53.026 78.16 53.25 78.006 53.25C77.908 53.25 77.782 53.376 77.628 53.628C77.474 53.88 77.348 54.188 77.25 54.552C77.152 54.916 77.0785 55.28 77.0295 55.644C76.9805 56.008 76.9665 56.323 76.9875 56.589C77.0085 56.855 77.082 57.002 77.208 57.03C77.236 57.03 77.32 57.037 77.46 57.051C77.586 57.065 77.789 57.079 78.069 57.093C78.321 57.093 78.552 57.093 78.762 57.093C79.168 57.121 79.483 57.156 79.707 57.198C79.931 57.24 80.12 57.317 80.274 57.429C80.428 57.541 80.589 57.709 80.757 57.933C81.135 58.381 81.464 58.934 81.744 59.592C81.842 59.844 81.8875 60.0715 81.8805 60.2745C81.8735 60.4775 81.842 60.6385 81.786 60.7575C81.73 60.8765 81.6145 60.999 81.4395 61.125C81.2645 61.251 81.1175 61.3385 80.9985 61.3875C80.8795 61.4365 80.694 61.51 80.442 61.608C80.19 61.706 80.015 61.776 79.917 61.818C79.665 61.93 79.3185 62.063 78.8775 62.217C78.4365 62.371 78.118 62.4935 77.922 62.5845C77.726 62.6755 77.4705 62.847 77.1555 63.099C76.8405 63.351 76.522 63.673 76.2 64.065C75.724 64.667 75.514 65.157 75.57 65.535C75.668 66.263 76.032 66.767 76.662 67.047C77.292 67.327 78.0305 67.4075 78.8775 67.2885C79.7245 67.1695 80.6065 66.9665 81.5235 66.6795C82.4405 66.3925 83.249 66.0775 83.949 65.7345C84.649 65.3915 85.146 65.101 85.44 64.863C85.762 64.597 86.0455 64.4885 86.2905 64.5375C86.5355 64.5865 86.665 64.821 86.679 65.241C86.679 65.409 86.609 65.6085 86.469 65.8395C86.329 66.0705 86.1855 66.2665 86.0385 66.4275C85.8915 66.5885 85.6955 66.795 85.4505 67.047C85.2055 67.299 85.062 67.446 85.02 67.488C84.474 68.09 83.7285 68.566 82.7835 68.916C81.8385 69.266 80.827 69.532 79.749 69.714C77.425 70.092 75.563 69.791 74.163 68.811C73.953 68.657 73.771 68.503 73.617 68.349C73.463 68.195 73.3405 68.0305 73.2495 67.8555C73.1585 67.6805 73.0815 67.5125 73.0185 67.3515C72.9555 67.1905 72.9205 67.0085 72.9135 66.8055C72.9065 66.6025 72.9065 66.4205 72.9135 66.2595C72.9205 66.0985 72.9485 65.9025 72.9975 65.6715C73.0465 65.4405 73.0885 65.248 73.1235 65.094C73.1585 64.94 73.211 64.73 73.281 64.464C73.393 64.072 73.799 63.246 74.499 61.986C75.311 60.488 75.85 59.809 76.116 59.949C76.144 59.963 76.165 59.977 76.179 59.991C75.479 59.095 74.94 58.241 74.562 57.429C74.184 56.617 74.051 55.784 74.163 54.93C74.261 54.09 74.506 53.334 74.898 52.662C75.29 51.99 75.85 51.353 76.578 50.751C77.096 50.331 77.6525 50.002 78.2475 49.764C78.8425 49.526 79.756 49.281 80.988 49.029C81.366 48.945 81.604 48.861 81.702 48.777C81.8 48.693 81.842 48.511 81.828 48.231C81.8 48.105 81.8035 47.979 81.8385 47.853C81.8735 47.727 81.9295 47.608 82.0065 47.496C82.0835 47.384 82.178 47.272 82.29 47.16C82.402 47.048 82.521 46.9535 82.647 46.8765C82.773 46.7995 82.899 46.7365 83.025 46.6875C83.151 46.6385 83.277 46.614 83.403 46.614C83.655 46.614 84.11 46.7435 84.768 47.0025C85.426 47.2615 85.755 47.454 85.755 47.58C85.755 47.692 85.573 47.958 85.209 48.378C84.915 48.784 84.7995 49.0675 84.8625 49.2285C84.9255 49.3895 85.223 49.533 85.755 49.659C86.049 49.743 86.343 49.897 86.637 50.121ZM96.0855 66.417C96.3935 66.165 96.6595 66.06 96.8835 66.102C97.1075 66.144 97.2265 66.368 97.2405 66.774C97.2405 66.872 97.223 66.9735 97.188 67.0785C97.153 67.1835 97.097 67.285 97.02 67.383C96.943 67.481 96.8695 67.5685 96.7995 67.6455C96.7295 67.7225 96.635 67.8065 96.516 67.8975C96.397 67.9885 96.299 68.0585 96.222 68.1075C96.145 68.1565 96.0435 68.223 95.9175 68.307C95.7915 68.391 95.7075 68.447 95.6655 68.475C95.3295 68.699 94.9865 68.888 94.6365 69.042C94.4125 69.14 94.0345 69.2765 93.5025 69.4515C92.9705 69.6265 92.2915 69.8225 91.4655 70.0395C90.6395 70.2565 89.8345 70.3405 89.0505 70.2915C88.2665 70.2425 87.6785 70.022 87.2865 69.63C87.1325 69.476 86.9575 69.252 86.7615 68.958C86.5655 68.664 86.394 68.377 86.247 68.097C86.1 67.817 85.9915 67.586 85.9215 67.404C85.7395 66.914 85.6555 66.235 85.6695 65.367C85.7955 62.721 86.9295 60.453 89.0715 58.563C89.5755 58.143 89.9465 57.8875 90.1845 57.7965C90.4225 57.7055 90.8705 57.66 91.5285 57.66C92.7325 57.66 93.653 57.926 94.29 58.458C94.927 58.99 95.1685 59.69 95.0145 60.558C94.9165 60.992 94.822 61.2615 94.731 61.3665C94.64 61.4715 94.4335 61.545 94.1115 61.587C93.6775 61.629 93.268 61.5415 92.883 61.3245C92.498 61.1075 92.3475 60.873 92.4315 60.621C92.5155 60.411 92.47 60.1975 92.295 59.9805C92.12 59.7635 91.9065 59.655 91.6545 59.655C91.1925 59.655 90.489 60.1415 89.544 61.1145C88.599 62.0875 88.1265 62.819 88.1265 63.309C88.1265 63.491 88.0285 63.757 87.8325 64.107C87.6225 64.415 87.5245 64.947 87.5385 65.703C87.5665 66.445 87.6855 66.97 87.8955 67.278C88.2315 67.782 88.795 68.1285 89.586 68.3175C90.377 68.5065 91.1015 68.538 91.7595 68.412C92.1095 68.356 92.4875 68.244 92.8935 68.076C93.6355 67.782 94.3145 67.397 94.9305 66.921C95.4065 66.571 95.7355 66.438 95.9175 66.522C95.9315 66.522 95.956 66.508 95.991 66.48C96.026 66.452 96.0575 66.431 96.0855 66.417ZM108.136 64.968C108.346 65.08 108.451 65.325 108.451 65.703C108.465 66.137 108.22 66.543 107.716 66.921C107.534 67.047 107.324 67.173 107.086 67.299C107.044 67.313 106.995 67.341 106.939 67.383C106.743 67.495 106.575 67.558 106.435 67.572C106.015 67.6 105.609 67.432 105.217 67.068C105.119 66.984 105.014 66.837 104.902 66.627L104.839 66.522C104.713 66.312 104.594 66.179 104.482 66.123C104.37 66.067 104.23 66.081 104.062 66.165C103.852 66.277 103.614 66.62 103.348 67.194C103.222 67.488 103.117 67.691 103.033 67.803C102.767 68.195 102.536 68.419 102.34 68.475C102.088 68.601 101.745 68.797 101.311 69.063C100.779 69.385 100.275 69.56 99.7994 69.588C99.2534 69.63 98.8474 69.686 98.5814 69.756C98.5114 69.77 98.4414 69.777 98.3714 69.777C98.2174 69.777 98.0844 69.749 97.9724 69.693C97.8044 69.623 97.5594 69.434 97.2374 69.126C96.8874 68.804 96.6494 68.5205 96.5234 68.2755C96.3974 68.0305 96.2714 67.6 96.1454 66.984C95.9354 65.976 95.8864 65.1675 95.9984 64.5585C96.1104 63.9495 96.4184 63.239 96.9224 62.427C97.5664 61.391 98.1754 60.642 98.7494 60.18C99.3234 59.718 100.03 59.389 100.87 59.193C101.276 59.109 101.633 58.962 101.941 58.752C102.431 58.43 102.865 58.311 103.243 58.395C103.607 58.465 104.027 58.752 104.503 59.256C104.755 59.536 104.937 59.76 105.049 59.928C105.161 60.096 105.238 60.257 105.28 60.411C105.322 60.565 105.343 60.789 105.343 61.083C105.343 62.329 105.385 63.295 105.469 63.981C105.511 64.387 105.606 64.6985 105.753 64.9155C105.9 65.1325 106.155 65.395 106.519 65.703L106.582 65.661C106.834 65.493 107.016 65.36 107.128 65.262C107.548 64.94 107.884 64.842 108.136 64.968ZM103.285 61.356C103.285 60.81 103.229 60.509 103.117 60.453C103.089 60.481 103.061 60.516 103.033 60.558C102.963 60.684 102.97 60.971 103.054 61.419C103.11 61.741 103.166 61.944 103.222 62.028C103.264 61.916 103.285 61.692 103.285 61.356ZM102.676 64.59C102.732 64.268 102.725 64.037 102.655 63.897C102.599 63.757 102.424 63.54 102.13 63.246C101.668 62.798 101.437 62.427 101.437 62.133C101.437 61.937 101.374 61.706 101.248 61.44C101.122 61.174 100.996 60.999 100.87 60.915C100.772 60.845 100.688 60.81 100.618 60.81C100.562 60.81 100.513 60.824 100.471 60.852C100.331 60.922 100.044 61.181 99.6104 61.629C99.2324 62.007 98.8789 62.49 98.5499 63.078C98.2209 63.666 97.9794 64.219 97.8254 64.737C97.6714 65.227 97.6434 65.584 97.7414 65.808C97.8534 66.018 97.9164 66.375 97.9304 66.879C97.9724 67.257 98.0284 67.537 98.0984 67.719C98.1684 67.873 98.2734 67.978 98.4134 68.034C98.5674 68.104 98.8194 68.139 99.1694 68.139C99.3374 68.139 99.4774 68.132 99.5894 68.118C99.7014 68.118 99.8064 68.104 99.9044 68.076C100.002 68.048 100.093 68.013 100.177 67.971C100.275 67.915 100.373 67.852 100.471 67.782C100.569 67.712 100.688 67.621 100.828 67.509C101.36 67.089 101.661 66.753 101.731 66.501C101.815 66.235 101.983 65.955 102.235 65.661C102.459 65.423 102.606 65.066 102.676 64.59ZM115.233 49.701C115.695 49.365 116.241 48.994 116.871 48.588C117.501 48.154 118.012 47.937 118.404 47.937C118.796 47.937 119.101 48.0805 119.318 48.3675C119.535 48.6545 119.58 48.98 119.454 49.344C119.328 49.834 119.489 50.065 119.937 50.037C120.217 50.023 120.616 49.883 121.134 49.617C121.764 49.281 122.471 49.099 123.255 49.071C124.039 49.043 124.704 49.162 125.25 49.428C125.768 49.708 126.237 50.177 126.657 50.835C126.965 51.269 127.14 51.612 127.182 51.864C127.224 52.116 127.168 52.578 127.014 53.25C126.622 55.182 125.397 57.072 123.339 58.92L121.764 60.264L122.352 61.272C122.716 61.902 122.961 62.672 123.087 63.582C123.171 63.946 123.192 64.2715 123.15 64.5585C123.108 64.8455 123.042 65.094 122.951 65.304C122.86 65.514 122.688 65.815 122.436 66.207C121.68 67.299 120.665 68.202 119.391 68.916C118.131 69.63 116.899 70.001 115.695 70.029C115.121 70.029 114.652 69.973 114.288 69.861C113.924 69.749 113.441 69.469 112.839 69.021L111.327 67.95L110.508 68.748C110.116 69.14 109.861 69.343 109.742 69.357C109.623 69.371 109.416 69.245 109.122 68.979C108.87 68.769 108.716 68.552 108.66 68.328C108.604 68.118 108.618 67.733 108.702 67.173C108.786 66.599 108.807 66.221 108.765 66.039C108.723 65.857 108.569 65.703 108.303 65.577C107.939 65.367 107.757 65.171 107.757 64.989C107.757 64.653 107.953 64.3485 108.345 64.0755C108.737 63.8025 109.157 63.666 109.605 63.666C109.801 63.666 109.969 63.652 110.109 63.624C110.235 63.596 110.365 63.5295 110.498 63.4245C110.631 63.3195 110.753 63.19 110.865 63.036C111.019 62.826 111.187 62.602 111.369 62.364C111.593 61.986 111.8 61.44 111.989 60.726C112.178 60.012 112.335 59.508 112.461 59.214C112.545 59.046 112.643 58.8675 112.755 58.6785C112.867 58.4895 112.983 58.297 113.102 58.101C113.221 57.905 113.315 57.73 113.385 57.576C113.567 57.212 113.665 56.848 113.679 56.484C113.693 56.12 113.679 55.735 113.637 55.329C113.595 54.923 113.588 54.573 113.616 54.279C113.63 54.209 113.679 54.048 113.763 53.796C113.847 53.544 113.938 53.278 114.036 52.998C114.134 52.718 114.232 52.4625 114.33 52.2315C114.428 52.0005 114.498 51.885 114.54 51.885C113.602 52.137 112.895 52.193 112.419 52.053C111.957 51.927 111.656 51.731 111.516 51.465C111.376 51.199 111.39 50.9365 111.558 50.6775C111.726 50.4185 111.992 50.219 112.356 50.079C112.608 49.981 113.084 49.946 113.784 49.974C114.484 50.002 114.967 49.911 115.233 49.701ZM120.441 63.666C120.441 62.756 120.259 62.147 119.895 61.839C119.685 61.643 119.402 61.538 119.045 61.524C118.688 61.51 118.261 61.531 117.764 61.587C117.267 61.643 116.864 61.657 116.556 61.629C115.702 61.545 115.135 61.573 114.855 61.713C114.673 61.811 114.502 62.112 114.341 62.616C114.18 63.12 114.057 63.6625 113.973 64.2435C113.889 64.8245 113.861 65.381 113.889 65.913C113.917 66.445 114.008 66.788 114.162 66.942C114.442 67.222 114.789 67.3865 115.202 67.4355C115.615 67.4845 116.038 67.446 116.472 67.32C116.906 67.194 117.305 67.04 117.669 66.858C118.033 66.676 118.355 66.48 118.635 66.27C119.839 65.388 120.441 64.52 120.441 63.666ZM123.171 52.431C122.807 51.997 122.366 51.738 121.848 51.654C121.246 51.57 120.581 51.724 119.853 52.116C119.125 52.508 118.481 53.005 117.921 53.607C117.361 54.209 116.899 54.86 116.535 55.56C116.171 56.26 116.01 56.855 116.052 57.345C116.15 58.395 116.815 58.864 118.047 58.752C119.209 58.64 120.42 58.122 121.68 57.198C122.926 56.274 123.598 55.392 123.696 54.552C123.794 53.656 123.619 52.949 123.171 52.431ZM138.906 65.598C139.2 65.332 139.462 65.2235 139.693 65.2725C139.924 65.3215 140.047 65.542 140.061 65.934C140.061 66.046 140.043 66.1545 140.008 66.2595C139.973 66.3645 139.917 66.4625 139.84 66.5535C139.763 66.6445 139.686 66.732 139.609 66.816C139.532 66.9 139.438 66.984 139.326 67.068C139.214 67.152 139.119 67.222 139.042 67.278C138.965 67.334 138.864 67.4005 138.738 67.4775C138.612 67.5545 138.528 67.614 138.486 67.656C138.15 67.88 137.807 68.062 137.457 68.202C137.429 68.216 137.387 68.237 137.331 68.265C137.303 68.335 137.247 68.391 137.163 68.433C137.079 68.475 136.953 68.517 136.785 68.559C136.463 68.741 135.987 68.867 135.357 68.937C134.727 69.007 134.153 69.0245 133.635 68.9895C133.117 68.9545 132.781 68.895 132.627 68.811C132.501 68.727 132.361 68.552 132.207 68.286C132.053 68.02 131.92 67.754 131.808 67.488C131.696 67.222 131.626 67.019 131.598 66.879C131.5 66.473 131.465 66.039 131.493 65.577C131.535 65.101 131.612 64.359 131.724 63.351V63.057C131.724 62.987 131.699 62.9345 131.65 62.8995C131.601 62.8645 131.535 62.84 131.451 62.826C131.367 62.826 131.255 62.826 131.115 62.826C130.947 62.826 130.758 62.798 130.548 62.742C130.338 62.686 130.131 62.6335 129.928 62.5845C129.725 62.5355 129.547 62.511 129.393 62.511C129.407 62.511 129.358 62.7315 129.246 63.1725C129.134 63.6135 128.99 64.079 128.815 64.569C128.64 65.059 128.483 65.346 128.343 65.43C127.839 65.724 127.307 65.934 126.747 66.06C126.019 66.228 126.348 64.639 127.734 61.293C127.762 61.209 127.832 61.034 127.944 60.768C128.056 60.502 128.133 60.3165 128.175 60.2115C128.217 60.1065 128.283 59.9385 128.374 59.7075C128.465 59.4765 128.532 59.2875 128.574 59.1405C128.616 58.9935 128.661 58.815 128.71 58.605C128.759 58.395 128.794 58.1955 128.815 58.0065C128.836 57.8175 128.847 57.625 128.847 57.429C128.847 57.205 128.99 56.806 129.277 56.232C129.564 55.658 129.792 55.308 129.96 55.182C130.184 55.056 130.488 55.0105 130.873 55.0455C131.258 55.0805 131.514 55.168 131.64 55.308C131.808 55.518 131.808 56.33 131.64 57.744C131.514 58.668 131.458 59.263 131.472 59.529C131.486 59.809 131.563 60.033 131.703 60.201C131.871 60.341 132.018 60.4075 132.144 60.4005C132.27 60.3935 132.508 60.285 132.858 60.075C133.376 59.781 133.75 59.641 133.981 59.655C134.212 59.669 134.426 59.83 134.622 60.138C134.776 60.362 134.846 60.565 134.832 60.747C134.818 60.929 134.713 61.279 134.517 61.797C134.237 62.539 133.985 63.386 133.761 64.338C133.593 65.094 133.54 65.654 133.603 66.018C133.666 66.382 133.894 66.809 134.286 67.299C134.454 67.537 134.587 67.67 134.685 67.698C134.727 67.712 134.8 67.7015 134.905 67.6665C135.01 67.6315 135.122 67.5895 135.241 67.5405C135.36 67.4915 135.441 67.46 135.483 67.446C135.917 67.334 136.204 67.243 136.344 67.173C137.422 66.613 138.276 66.088 138.906 65.598ZM143.128 56.253C142.736 56.351 142.351 56.211 141.973 55.833C141.707 55.567 141.567 55.392 141.553 55.308C141.539 55.224 141.637 55.098 141.847 54.93C142.141 54.72 142.515 54.615 142.97 54.615C143.425 54.615 143.737 54.72 143.905 54.93C144.087 55.168 144.097 55.427 143.936 55.707C143.775 55.987 143.506 56.169 143.128 56.253ZM146.866 66.312C146.964 66.48 146.967 66.641 146.876 66.795C146.785 66.949 146.53 67.201 146.11 67.551C145.452 68.111 144.675 68.622 143.779 69.084C143.107 69.42 142.41 69.5565 141.689 69.4935C140.968 69.4305 140.289 69.224 139.652 68.874C139.015 68.524 138.466 68.069 138.004 67.509C137.346 66.725 137.15 65.682 137.416 64.38C137.444 64.282 137.5 63.946 137.584 63.372C137.668 62.798 137.755 62.2905 137.846 61.8495C137.937 61.4085 138.039 61.118 138.151 60.978C138.277 60.824 138.483 60.719 138.77 60.663C139.057 60.607 139.355 60.6035 139.663 60.6525C139.971 60.7015 140.265 60.7925 140.545 60.9255C140.825 61.0585 141.017 61.237 141.122 61.461C141.227 61.685 141.224 61.937 141.112 62.217C140.79 62.889 140.629 63.358 140.629 63.624C140.629 63.876 140.489 64.191 140.209 64.569C139.971 64.849 139.827 65.1885 139.778 65.5875C139.729 65.9865 139.796 66.249 139.978 66.375C140.132 66.431 140.209 66.606 140.209 66.9C140.209 67.152 140.391 67.439 140.755 67.761C141.007 67.999 141.206 68.132 141.353 68.16C141.5 68.188 141.77 68.153 142.162 68.055C142.736 67.845 143.471 67.418 144.367 66.774C145.081 66.256 145.623 65.962 145.994 65.892C146.365 65.822 146.656 65.962 146.866 66.312ZM160.264 65.787C160.572 65.521 160.841 65.4125 161.072 65.4615C161.303 65.5105 161.419 65.731 161.419 66.123C161.433 66.249 161.408 66.375 161.345 66.501C161.282 66.627 161.216 66.7355 161.146 66.8265C161.076 66.9175 160.974 67.0225 160.841 67.1415C160.708 67.2605 160.6 67.348 160.516 67.404C160.432 67.46 160.309 67.5405 160.148 67.6455C159.987 67.7505 159.893 67.817 159.865 67.845C159.529 68.069 159.186 68.251 158.836 68.391C158.78 68.419 158.682 68.475 158.542 68.559C158.402 68.643 158.297 68.699 158.227 68.727C157.765 68.909 157.422 69.014 157.198 69.042C156.008 69.196 155.196 69.224 154.762 69.126C154.328 69.028 153.838 68.734 153.292 68.244C152.956 67.908 152.718 67.6 152.578 67.32C152.438 67.04 152.326 66.662 152.242 66.186C152.074 65.416 151.906 65.024 151.738 65.01C151.612 65.01 151.465 65.15 151.297 65.43C151.073 65.836 150.674 66.354 150.1 66.984C149.526 67.614 149.057 68.055 148.693 68.307C148.441 68.475 148.157 68.6115 147.842 68.7165C147.527 68.8215 147.188 68.895 146.824 68.937C146.32 68.979 145.984 68.9825 145.816 68.9475C145.648 68.9125 145.494 68.783 145.354 68.559C144.92 67.873 144.769 66.8475 144.902 65.4825C145.035 64.1175 145.41 62.959 146.026 62.007C146.39 61.475 146.887 60.9115 147.517 60.3165C148.147 59.7215 148.819 59.228 149.533 58.836C149.981 58.57 150.758 58.437 151.864 58.437C152.214 58.423 152.508 58.3705 152.746 58.2795C152.984 58.1885 153.18 58.0485 153.334 57.8595C153.488 57.6705 153.61 57.4815 153.701 57.2925C153.792 57.1035 153.911 56.8515 154.058 56.5365C154.205 56.2215 154.349 55.952 154.489 55.728C156.645 52.326 157.807 50.499 157.975 50.247C158.017 50.163 158.101 50.016 158.227 49.806C159.109 48.308 159.76 47.496 160.18 47.37C160.544 47.258 160.803 47.517 160.957 48.147C161.125 48.777 161.055 49.519 160.747 50.373C160.439 51.227 160.064 51.9865 159.623 52.6515C159.182 53.3165 158.654 54.0795 158.038 54.9405C157.422 55.8015 157.016 56.414 156.82 56.778C156.652 57.058 156.466 57.4815 156.263 58.0485C156.06 58.6155 155.917 58.997 155.833 59.193C154.615 61.839 154.125 64.065 154.363 65.871C154.447 66.543 154.618 67.0225 154.877 67.3095C155.136 67.5965 155.511 67.74 156.001 67.74C156.351 67.74 156.799 67.663 157.345 67.509C157.555 67.439 157.681 67.39 157.723 67.362C158.801 66.802 159.648 66.277 160.264 65.787ZM149.344 64.947C151.332 62.427 152.298 60.964 152.242 60.558C152.172 60.264 151.902 60.1205 151.433 60.1275C150.964 60.1345 150.513 60.292 150.079 60.6C149.547 60.964 148.962 61.503 148.325 62.217C147.688 62.931 147.279 63.505 147.097 63.939C146.887 64.401 146.782 64.975 146.782 65.661C146.782 66.515 146.95 66.921 147.286 66.879C147.678 66.837 148.364 66.193 149.344 64.947ZM170.076 66.27C170.384 66.004 170.653 65.8955 170.884 65.9445C171.115 65.9935 171.231 66.221 171.231 66.627C171.231 66.739 171.203 66.858 171.147 66.984C171.091 67.11 171.028 67.2185 170.958 67.3095C170.888 67.4005 170.783 67.5055 170.643 67.6245C170.503 67.7435 170.394 67.831 170.317 67.887C170.24 67.943 170.121 68.0235 169.96 68.1285C169.799 68.2335 169.705 68.3 169.677 68.328C169.341 68.552 168.991 68.734 168.627 68.874C168.585 68.902 168.424 68.993 168.144 69.147C167.864 69.301 167.563 69.455 167.241 69.609C166.919 69.763 166.632 69.882 166.38 69.966C166.072 70.19 165.673 70.435 165.183 70.701C164.455 71.107 163.972 71.583 163.734 72.129C163.664 72.269 163.566 72.451 163.44 72.675C163.328 72.885 163.195 73.102 163.041 73.326C162.901 73.536 162.74 73.767 162.558 74.019C162.376 74.285 162.215 74.523 162.075 74.733C161.935 74.943 161.788 75.146 161.634 75.342C161.48 75.552 161.368 75.706 161.298 75.804C161.2 75.972 160.888 76.2205 160.363 76.5495C159.838 76.8785 159.31 77.183 158.778 77.463C157.644 78.023 156.93 77.827 156.636 76.875C156.51 76.469 156.447 76.161 156.447 75.951C156.447 75.839 156.471 75.7235 156.52 75.6045C156.569 75.4855 156.622 75.377 156.678 75.279C156.734 75.181 156.814 75.076 156.919 74.964C157.024 74.852 157.115 74.761 157.192 74.691C157.269 74.621 157.367 74.53 157.486 74.418C157.605 74.306 157.693 74.229 157.749 74.187C158.281 73.669 158.995 73.172 159.891 72.696C160.143 72.556 160.514 72.325 161.004 72.003C161.648 71.583 162.026 71.345 162.138 71.289C162.446 71.121 162.831 70.687 163.293 69.987C163.755 69.287 163.93 68.881 163.818 68.769C163.734 68.699 163.37 68.769 162.726 68.979C161.004 69.567 159.905 68.944 159.429 67.11C159.289 66.606 159.338 65.934 159.576 65.094C159.814 64.254 160.157 63.505 160.605 62.847C160.871 62.469 161.154 62.105 161.455 61.755C161.756 61.405 162.106 61.0585 162.505 60.7155C162.904 60.3725 163.31 60.0785 163.723 59.8335C164.136 59.5885 164.581 59.41 165.057 59.298C165.533 59.186 165.988 59.172 166.422 59.256C166.926 59.34 167.304 59.536 167.556 59.844C167.808 60.152 167.937 60.502 167.944 60.894C167.951 61.286 167.913 61.706 167.829 62.154C167.675 62.798 167.489 63.414 167.272 64.002C167.055 64.59 166.87 64.975 166.716 65.157C166.534 65.381 166.443 65.563 166.443 65.703C166.443 65.829 166.254 66.256 165.876 66.984C165.526 67.754 165.351 68.293 165.351 68.601C165.351 68.727 165.358 68.825 165.372 68.895C165.414 68.825 165.564 68.727 165.823 68.601C166.082 68.475 166.397 68.335 166.768 68.181C167.139 68.027 167.388 67.922 167.514 67.866C168.592 67.292 169.446 66.76 170.076 66.27ZM161.886 73.053C162.152 72.605 162.194 72.381 162.012 72.381C161.746 72.381 161.242 72.682 160.5 73.284C159.758 73.886 159.096 74.5195 158.515 75.1845C157.934 75.8495 157.707 76.245 157.833 76.371C158.127 76.651 158.736 76.413 159.66 75.657C160.584 74.901 161.326 74.033 161.886 73.053ZM163.713 66.207C164.511 64.905 164.91 64.177 164.91 64.023C164.91 63.715 165.015 63.4035 165.225 63.0885C165.435 62.7735 165.561 62.399 165.603 61.965C165.659 61.559 165.603 61.328 165.435 61.272C165.253 61.216 164.885 61.3595 164.332 61.7025C163.779 62.0455 163.412 62.35 163.23 62.616C163.174 62.7 163.023 62.8435 162.778 63.0465C162.533 63.2495 162.278 63.491 162.012 63.771C161.746 64.051 161.55 64.331 161.424 64.611C160.962 65.591 160.787 66.298 160.899 66.732C161.025 67.25 161.242 67.5405 161.55 67.6035C161.858 67.6665 162.306 67.509 162.894 67.131C163.16 66.977 163.433 66.669 163.713 66.207ZM179.121 66.648C179.429 66.396 179.699 66.2945 179.93 66.3435C180.161 66.3925 180.276 66.613 180.276 67.005C180.29 67.131 180.266 67.257 180.203 67.383C180.14 67.509 180.073 67.6175 180.003 67.7085C179.933 67.7995 179.832 67.901 179.699 68.013C179.566 68.125 179.457 68.209 179.373 68.265C179.289 68.321 179.167 68.4015 179.006 68.5065C178.845 68.6115 178.75 68.678 178.722 68.706C178.386 68.93 178.043 69.119 177.693 69.273C177.665 69.287 177.627 69.3045 177.578 69.3255C177.529 69.3465 177.476 69.3675 177.42 69.3885C177.364 69.4095 177.308 69.4305 177.252 69.4515C177.196 69.4725 177.151 69.49 177.116 69.504L177.063 69.525C176.209 69.875 175.292 70.078 174.312 70.134C173.304 70.19 172.569 70.099 172.107 69.861C172.051 69.833 171.827 69.735 171.435 69.567C171.043 69.399 170.763 69.252 170.595 69.126C170.273 68.916 169.965 68.461 169.671 67.761C169.125 66.501 168.852 65.388 168.852 64.422C168.852 63.834 168.957 63.064 169.167 62.112C169.181 62.056 169.206 61.937 169.241 61.755C169.276 61.573 169.307 61.4365 169.335 61.3455C169.363 61.2545 169.398 61.1285 169.44 60.9675C169.482 60.8065 169.524 60.67 169.566 60.558C169.608 60.446 169.657 60.3305 169.713 60.2115C169.769 60.0925 169.825 59.984 169.881 59.886C170.175 59.48 170.413 59.186 170.595 59.004C171.351 58.22 172.31 57.87 173.472 57.954C174.676 58.052 175.327 58.451 175.425 59.151C175.509 59.697 175.478 60.2605 175.331 60.8415C175.184 61.4225 175.002 61.902 174.785 62.28C174.568 62.658 174.267 63.148 173.882 63.75C173.497 64.352 173.22 64.814 173.052 65.136C172.436 66.298 172.128 66.991 172.128 67.215C172.128 67.397 172.303 67.656 172.653 67.992C172.877 68.202 173.077 68.328 173.252 68.37C173.427 68.412 173.745 68.391 174.207 68.307C174.935 68.209 175.726 68.034 176.58 67.782C176.902 67.67 177.371 67.481 177.987 67.215C178.603 66.949 178.981 66.76 179.121 66.648ZM170.973 65.157C171.099 65.157 171.449 64.611 172.023 63.519C172.583 62.427 172.863 61.769 172.863 61.545C172.863 61.279 172.72 61.1075 172.433 61.0305C172.146 60.9535 171.918 61.02 171.75 61.23C171.61 61.398 171.47 61.65 171.33 61.986C171.19 62.322 171.078 62.665 170.994 63.015C170.924 63.365 170.861 63.701 170.805 64.023C170.749 64.345 170.735 64.6145 170.763 64.8315C170.791 65.0485 170.861 65.157 170.973 65.157Z" fill="#328257"/>
<path d="M419.998 57.3745C417.947 56.4136 414.908 54.1089 411.947 55.3667C408.983 56.6245 405.506 60.9682 405.076 63.2612C404.643 65.5581 405.971 70.6987 411.24 72.1518C416.51 73.6089 420.932 71.3042 422.615 62.5698C422.615 62.5698 422.049 58.3354 419.998 57.3745ZM414.897 70.9136C413.459 71.269 411.561 70.605 409.51 69.019C407.459 67.437 407.459 66.2612 406.944 64.7222C406.432 63.187 407.303 61.6011 408.533 59.9214C409.768 58.2378 411.369 57.3393 412.893 57.1089C414.889 56.8003 417.408 57.4175 418.795 57.9214C420.178 58.4292 420.998 60.5854 421.1 62.0151C421.205 63.4487 420.639 64.7222 419.717 66.9253C418.795 69.1245 416.334 70.5581 414.897 70.9136Z" fill="#328257"/>
<path d="M236.689 25.251C232.961 22.8934 227.651 17.6979 221.623 19.4052C215.587 21.1116 207.808 28.6558 206.418 32.9814C205.019 37.3137 206.33 47.571 216.157 51.6658C225.984 55.768 235.091 52.3947 240.477 35.9288C240.477 35.9288 240.417 27.6086 236.689 25.251ZM223.525 50.166C220.66 50.5018 217.154 48.755 213.579 45.1898C210.003 41.632 210.29 39.3601 209.669 36.2603C209.055 33.169 211.126 30.3174 213.914 27.3723C216.71 24.4206 220.024 23.0757 223.024 23.0025C226.956 22.8937 231.674 24.7015 234.23 26.0139C236.778 27.3328 237.837 31.6996 237.684 34.4869C237.537 37.2827 236.132 39.605 233.813 43.6369C231.494 47.6612 226.389 49.8302 223.525 50.166Z" fill="#328257"/>
<path d="M669.587 13.0213C663.704 9.30065 655.325 1.10146 645.811 3.79583C636.286 6.48869 624.01 18.3945 621.816 25.2211C619.609 32.058 621.677 48.2457 637.186 54.7078C652.693 61.1818 667.066 55.8582 675.566 29.8725C675.566 29.8725 675.471 16.742 669.587 13.0213ZM648.813 52.3409C644.292 52.8709 638.759 50.1142 633.117 44.4877C627.473 38.873 627.926 35.2876 626.947 30.3957C625.978 25.5172 629.245 21.0168 633.645 16.369C638.058 11.7108 643.288 9.5884 648.022 9.47277C654.228 9.30108 661.673 12.1542 665.708 14.2253C669.729 16.3067 671.399 23.1981 671.158 27.5969C670.927 32.0092 668.709 35.6741 665.049 42.037C661.39 48.3879 653.333 51.811 648.813 52.3409Z" fill="#328257"/>
<path d="M560.27 68.7188C561.797 73.9297 563.449 79.9492 563.449 79.9492L566.594 78.6523C566.594 78.6523 566.113 77.3828 564.996 73.9844C564.277 71.7695 563.645 69.8281 562.816 67.6211C567.965 69.4219 574.285 71.7773 574.285 71.7773L575.207 68.4141C575.207 68.4141 573.93 68.082 570.621 67.0312C568.008 66.2148 565.785 65.5 562.879 64.7773C565.84 60.4219 571.895 52.3008 571.895 52.3008L569.957 50.8242C569.957 50.8242 569.469 51.3086 567.949 53.8242C566.836 55.6641 563.961 59.6445 561.086 63.375C559.297 58.9922 555.504 48 555.504 48L553.238 48.9258C553.238 48.9258 553.367 49.5977 554.566 52.2266C555.496 54.2539 557.273 59.1836 558.766 63.8164C553.777 62.5703 544.672 59.8594 544.672 59.8594L544 62.2812C544 62.2812 544.613 62.582 547.379 63.0977C549.496 63.5 554.352 64.8594 558.812 66.2891L558.102 67.1758C554.527 71.5508 549.977 76.918 549.977 76.918L552.664 78.9531C552.664 78.9531 553.457 77.832 555.633 74.9766C557.266 72.8672 558.68 71.043 560.27 68.7188Z" fill="#328257"/>
<path d="M280.998 60.3745C278.947 59.4136 275.908 57.1089 272.947 58.3667C269.987 59.6245 266.51 63.9682 266.076 66.2612C265.643 68.5581 266.971 73.6987 272.24 75.1518C277.51 76.6089 281.932 74.3042 283.615 65.5698C283.615 65.5698 283.049 61.3354 280.998 60.3745ZM275.897 73.9136C274.459 74.269 272.561 73.605 270.51 72.019C268.459 70.437 268.459 69.2612 267.947 67.7222C267.432 66.187 268.303 64.6011 269.533 62.9214C270.768 61.2378 272.369 60.3393 273.893 60.1089C275.893 59.8003 278.408 60.4175 279.795 60.9214C281.178 61.4292 281.998 63.5854 282.104 65.0151C282.209 66.4487 281.639 67.7222 280.717 69.9253C279.795 72.1245 277.334 73.5581 275.897 73.9136Z" fill="#328257"/>
<path d="M457.699 31.7656C451.473 33.9023 444.277 36.2305 444.277 36.2305L446.043 39.8906C446.043 39.8906 447.551 39.2422 451.602 37.7031C454.246 36.7188 456.562 35.8438 459.188 34.7266C457.324 40.957 454.859 48.6133 454.859 48.6133L458.996 49.5039C458.996 49.5039 459.316 47.9648 460.387 43.9688C461.215 40.8125 461.945 38.125 462.641 34.6289C468.102 37.8828 478.328 44.582 478.328 44.582L480 42.1875C480 42.1875 479.383 41.6367 476.238 39.9883C473.938 38.7734 468.93 35.6016 464.23 32.4141C469.434 30.0156 482.527 24.8398 482.527 24.8398L481.262 22.1992C481.262 22.1992 480.453 22.3945 477.34 23.9805C474.941 25.2109 469.074 27.6211 463.547 29.6758C464.746 23.6719 467.473 12.6836 467.473 12.6836L464.488 12.0352C464.488 12.0352 464.164 12.7813 463.711 16.0977C463.355 18.6406 462.008 24.5 460.551 29.8867L459.434 29.0938C453.906 25.1133 447.113 20.0312 447.113 20.0312L444.812 23.3477C444.812 23.3477 446.223 24.2227 449.82 26.6367C452.48 28.4492 454.781 30.0156 457.699 31.7656Z" fill="#328257"/>
<path d="M37.9766 59.3828C47.4961 62.6719 58.5 66.2617 58.5 66.2617L55.8008 71.8945C55.8008 71.8945 53.4961 70.8984 47.2969 68.5312C43.2578 67.0078 39.7109 65.6641 35.6953 63.9453C38.5469 73.5391 42.3164 85.3281 42.3164 85.3281L35.9922 86.6992C35.9922 86.6992 35.5 84.332 33.8633 78.1758C32.5977 73.3164 31.4844 69.1758 30.418 63.793C22.0625 68.8047 6.42188 79.1211 6.42188 79.1211L3.86719 75.4336C3.86719 75.4336 4.80859 74.5859 9.62109 72.043C13.1406 70.1758 20.7969 65.2891 27.9883 60.3789C20.0313 56.6914 0 48.7148 0 48.7148L1.93359 44.6523C1.93359 44.6523 3.17578 44.9492 7.93359 47.3945C11.6016 49.2891 20.5742 53 29.0273 56.168C27.1953 46.9219 23.0312 29.9961 23.0312 29.9961L27.5898 29C27.5898 29 28.0859 30.1445 28.7812 35.2539C29.3242 39.168 31.3828 48.1914 33.6133 56.4922L35.3242 55.2695C43.7773 49.1367 54.1641 41.3125 54.1641 41.3125L57.6836 46.4219C57.6836 46.4219 55.5273 47.7656 50.0234 51.4805C45.957 54.2734 42.4375 56.6914 37.9766 59.3828Z" fill="#328257"/>
</svg>
