<svg width="148" height="300" viewBox="0 0 348 695" fill="none" xmlns="http://www.w3.org/2000/svg">
<path d="M164.436 667.557C164.436 667.557 155.716 684.569 161.703 690.721H238.618C238.618 690.721 238.191 678.808 219.66 676.93C203.036 675.245 192.909 667.542 192.909 667.542L164.436 667.557Z" fill="#1C0E0C"/>
<path d="M239.492 690.721H160.519C159.94 690.721 159.471 691.161 159.471 691.704V694.017C159.471 694.56 159.94 695 160.519 695H239.492C240.071 695 240.54 694.56 240.54 694.017V691.704C240.54 691.161 240.071 690.721 239.492 690.721Z" fill="#1C0E0C"/>
<path d="M195 675.011L197.586 669.541C197.735 669.221 197.953 668.932 198.225 668.693C198.498 668.454 198.819 668.27 199.17 668.152C199.521 668.033 199.894 667.983 200.266 668.005C200.638 668.026 201.002 668.119 201.335 668.276V668.276C201.931 668.559 202.397 669.034 202.647 669.615C202.897 670.196 202.913 670.842 202.694 671.434L202.335 672.358" stroke="#070707" stroke-width="4" stroke-linecap="round" stroke-linejoin="round"/>
<path d="M203 677.952L205.501 672.344C205.633 672.064 205.824 671.812 206.062 671.604C206.301 671.396 206.582 671.235 206.889 671.132C207.196 671.029 207.522 670.985 207.848 671.004C208.173 671.023 208.491 671.104 208.782 671.242C209.303 671.489 209.71 671.904 209.928 672.412C210.146 672.919 210.16 673.483 209.967 674L209.751 674.775" stroke="#070707" stroke-width="4" stroke-linecap="round" stroke-linejoin="round"/>
<path d="M211.303 680.838L212.946 675.171C213.039 674.878 213.194 674.607 213.402 674.373C213.61 674.138 213.866 673.946 214.156 673.807C214.445 673.669 214.762 673.587 215.086 673.566C215.41 673.546 215.735 673.587 216.042 673.688V673.688C217.18 674.064 217.927 675.092 217.754 676.594" stroke="#070707" stroke-width="4" stroke-linecap="round" stroke-linejoin="round"/>
<path d="M27.4753 667.557C27.4753 667.557 18.7549 684.569 24.7423 690.721H97.3649C97.3649 690.721 96.9331 678.808 78.4075 676.931C61.7777 675.246 51.6565 667.542 51.6565 667.542L27.4753 667.557Z" fill="#1C0E0C"/>
<path d="M98.234 690.721H23.5577C22.9789 690.721 22.5098 691.161 22.5098 691.704V694.017C22.5098 694.56 22.9789 695 23.5577 695H98.234C98.8127 695 99.2819 694.56 99.2819 694.017V691.704C99.2819 691.161 98.8127 690.721 98.234 690.721Z" fill="#1C0E0C"/>
<path d="M55 676.009L57.5856 670.54C57.7364 670.219 57.9549 669.931 58.228 669.693C58.501 669.454 58.8228 669.27 59.1739 669.152C59.525 669.034 59.8981 668.984 60.2705 669.005C60.6428 669.026 61.0068 669.118 61.3402 669.275C61.9358 669.557 62.4015 670.033 62.6506 670.614C62.8996 671.195 62.9149 671.841 62.6935 672.432L62.3355 673.356" stroke="#070707" stroke-width="4" stroke-linecap="round" stroke-linejoin="round"/>
<path d="M62.625 678.554L65.1263 672.946C65.2578 672.666 65.4487 672.414 65.6874 672.206C65.926 671.997 66.2074 671.837 66.5143 671.734C66.8213 671.631 67.1474 671.587 67.4728 671.606C67.7982 671.625 68.116 671.706 68.407 671.844C68.9267 672.091 69.3333 672.507 69.5512 673.014C69.7691 673.521 69.7835 674.085 69.5918 674.601L69.3759 675.377" stroke="#070707" stroke-width="4" stroke-linecap="round" stroke-linejoin="round"/>
<path d="M70.3223 680.837L71.9705 675.169C72.0634 674.877 72.2185 674.606 72.4264 674.371C72.6344 674.137 72.8909 673.945 73.1804 673.806C73.4699 673.668 73.7863 673.586 74.1106 673.565C74.4349 673.545 74.7602 673.586 75.0669 673.687C76.2043 674.063 76.9521 675.09 76.7783 676.593" stroke="#070707" stroke-width="4" stroke-linecap="round" stroke-linejoin="round"/>
<path d="M185.885 300.031C191.678 320.289 193.668 388.382 195.543 488.725C196.907 561.532 203.647 665.181 203.647 665.181C203.647 665.181 185.922 672.405 154.59 666.792C154.59 666.792 124.574 573.998 135.269 506.399C136.975 495.569 120.751 431.419 120.751 431.419C120.751 431.419 56.1588 650.219 56.1588 668.126C56.1588 668.126 30.9824 672.666 16.0271 668.126C16.0271 668.126 -6.56378 568.449 29.2762 510.397C48.5759 479.135 44.1525 364.798 44.6791 355.583C46.4537 323.081 63.4048 298.603 63.4048 298.603L185.885 300.031Z" fill="#C5DCDD" stroke="black" stroke-width="5" stroke-linecap="round" stroke-linejoin="round"/>
<path d="M120.749 432.224C118.611 423.399 107.474 359.59 104.483 357.164C101.492 354.738 96.3629 351.551 92.9453 348.339" stroke="#070707" stroke-width="5" stroke-linecap="round" stroke-linejoin="round"/>
<path d="M187.912 309.922C143.089 332.335 75.0369 321.366 58.8125 306.38C60.1975 303.716 61.7266 301.12 63.3938 298.602L185.896 300.03C186.771 303.288 187.444 306.591 187.912 309.922V309.922Z" fill="#1C0E0C"/>
<path d="M66.0904 261.604C65.7368 263.773 65.2355 265.919 64.5896 268.028C46.9119 267.761 31.2825 265.335 23.7786 258.575C1.94599 238.91 18.3547 190.828 19.3815 187.918C27.0224 192.686 38.0124 198.013 53.6733 202.944C60.735 229.655 67.191 254.494 66.0904 261.604Z" fill="#FCBE9F" stroke="#070707" stroke-width="5" stroke-linecap="round" stroke-linejoin="round"/>
<path d="M19.4017 187.907C27.0426 192.676 38.0326 198.002 53.6935 202.933C55.3207 209.095 56.9163 215.148 58.396 220.914C37.3322 212.084 26.6529 201.555 17.4375 194.356L19.4017 187.907Z" fill="#1C0E0C"/>
<path d="M343.787 99.645C342.734 98.3553 340.954 98.0935 340.596 97.5598C340.238 97.0262 340.359 95.6822 339.306 94.8176C338.253 93.9529 336.71 94.0863 336.051 93.5823C335.393 93.0783 335.841 91.6059 334.588 90.3459C333.334 89.0859 331.544 89.244 331.144 88.8636C330.743 88.4831 337.731 77.0643 335.072 75.5869C332.413 74.1095 318.8 90.3014 316.115 94.0962C310.585 101.918 310.533 111.736 309.795 115.254C309.738 115.291 309.685 115.334 309.638 115.382C307.505 117.789 257.062 164.709 248.089 180.352L240.101 168.988L194.234 199.469C194.234 199.469 227.573 244.927 257.057 235.307C284.967 226.201 316.704 137.716 322.56 125.536C332.186 123.752 340.238 113.717 342.86 109.142C346.267 103.242 344.84 100.93 343.787 99.645Z" fill="#FCBE9F" stroke="#070707" stroke-width="5" stroke-linecap="round" stroke-linejoin="round"/>
<path d="M242.325 172.185C234.648 188.803 221.514 202.686 204.837 211.808C201.048 207.89 197.51 203.766 194.242 199.455L240.093 168.998L242.325 172.185Z" fill="#1C0E0C"/>
<path d="M130.624 59.904C130.624 59.904 136.306 69.4057 142.13 70.7744C147.954 72.1431 161.303 71.0758 165.363 68.7979C167.87 67.3947 167.112 55.7387 166.632 51.5042C166.538 50.6889 173.394 47.9664 172.952 45.481C172.483 42.8425 164.71 36.5871 164.026 33.0839C162.014 22.8015 159.286 13.0923 158.391 12.7316C156.938 12.1337 134.078 13.4975 131.377 19.3526C128.676 25.2078 132.077 43.3366 132.077 43.3366C132.077 43.3366 124.705 39.2899 122.493 44.6954C119.218 52.6159 130.624 59.904 130.624 59.904Z" fill="#FCBE9F" stroke="#070707" stroke-width="4" stroke-linecap="round" stroke-linejoin="round"/>
<path d="M94.043 95.2474C98.6928 93.2167 114.928 77.5485 112.368 58.6292L148.477 62.4832C148.477 62.4832 152.084 85.9928 158.066 97.8613C145.393 100.865 132.358 102.315 119.288 102.175C97.745 101.918 94.043 95.2474 94.043 95.2474Z" fill="#FCBE9F" stroke="#070707" stroke-width="4" stroke-linecap="round" stroke-linejoin="round"/>
<path d="M153.521 86.057C149.893 85.6618 142.157 84.1745 138.055 80.6219C131.372 74.8408 121.994 62.0632 121.904 59.7261L148.476 62.4832C148.476 62.4832 150.709 74.2726 153.521 86.057Z" fill="#1C0E0C"/>
<path d="M53.6742 202.933C60.7358 229.655 67.1918 254.493 66.0913 261.604C63.7848 276.521 51.0096 294.897 56.997 299.156C73.7796 311.168 127.95 323.644 190.252 303.109C190.252 303.109 182.274 288.997 190.899 232.634C192.174 224.303 193.854 212.707 195.56 199.954H195.597C223.585 190.724 245.276 163.301 245.276 163.301C245.276 163.301 231.668 129.395 216.65 117.972C207.171 110.758 158.066 97.8318 154.054 95.6379L95.786 94.9116C91.8997 95.218 50.2777 107.595 33.1686 119.419C17.5972 130.181 3 173.129 3 173.129C3 173.129 11.0411 189.494 53.6742 202.933Z" fill="#F4F1ED" stroke="#070707" stroke-width="5" stroke-linecap="round" stroke-linejoin="round"/>
<path d="M173.359 6.18457C181.3 12.2028 169.362 37.0761 145.154 19.4167" stroke="black" stroke-width="4" stroke-linecap="round" stroke-linejoin="round"/>
<path d="M86.8066 25.3906C91.4723 17.5788 100.646 24.1109 100.646 24.1109" stroke="black" stroke-width="6" stroke-linecap="round" stroke-linejoin="round"/>
<path d="M166.001 50.1404C166.001 50.1404 157.049 56.9739 151.998 57.552C146.948 58.1301 142.757 43.89 141.198 37.595C137.701 22.9793 138.112 17.139 152.588 22.1245C171.683 28.7011 175.506 6.54037 168.139 2.80986C163.447 0.438145 161.172 1.17436 154.558 4.29218C147.185 7.79046 131.572 -3.79141 113.004 1.32754C95.5686 6.13026 98.2279 22.6433 98.2279 22.6433C98.2279 22.6433 91.3506 21.4723 90.1026 30.9048C89.1178 38.3658 100.15 51.5832 108.654 66.3669C111.04 70.5124 122.604 68.037 125.453 63.8568C125.453 63.8568 129.265 57.7546 124.494 50.3479C120.582 44.2803 127.317 39.3837 134.026 44.6756C133.041 48.9199 130.908 60.3832 134.947 66.2977C140.987 75.1422 172.12 76.4615 172.894 71.5451C173.668 66.6288 166.001 50.1404 166.001 50.1404Z" fill="#1C0E0C"/>
<path d="M138.277 59.2666C134.785 60.1754 131.052 59.7456 127.898 58.0716C124.744 56.3977 122.429 53.6167 121.46 50.3406C120.492 47.0645 120.95 43.5615 122.734 40.6023C124.518 37.6431 127.481 35.4701 130.973 34.5613" fill="#FCBE9F"/>
<path d="M138.277 59.2666C134.785 60.1754 131.052 59.7456 127.898 58.0716C124.744 56.3977 122.429 53.6167 121.46 50.3406C120.492 47.0645 120.95 43.5615 122.734 40.6023C124.518 37.6431 127.481 35.4701 130.973 34.5613" stroke="#070707" stroke-width="6" stroke-linecap="round" stroke-linejoin="round"/>
<path d="M126.301 45.4314C126.301 45.4314 131.751 42.106 135.837 47.9859Z" fill="#FCBE9F"/>
<path d="M126.301 45.4314C126.301 45.4314 131.751 42.106 135.837 47.9859" stroke="#070707" stroke-width="4" stroke-linecap="round" stroke-linejoin="round"/>
<path d="M132.426 45.0017L129.619 50.1404" stroke="#070707" stroke-width="4" stroke-linecap="round" stroke-linejoin="round"/>
<path d="M157.852 39.6414C159.028 39.4259 159.7 37.9029 159.354 36.2397C159.008 34.5765 157.774 33.4029 156.598 33.6184C155.422 33.8339 154.749 35.3568 155.096 37.02C155.442 38.6833 156.676 39.8569 157.852 39.6414Z" fill="#1C0E0C"/>
<path d="M154.764 26.8564L149.755 29.3952C148.829 29.8647 148.484 30.9499 148.984 31.8191C149.485 32.6882 150.641 33.0121 151.567 32.5426L156.576 30.0037C157.502 29.5342 157.847 28.449 157.347 27.5799C156.846 26.7107 155.69 26.3868 154.764 26.8564Z" fill="#1C0E0C"/>
<path d="M39.3555 152.104L53.6736 202.933" stroke="#070707" stroke-width="5" stroke-linecap="round" stroke-linejoin="round"/>
<path d="M215.619 122.31C215.619 122.31 185.029 124.059 180.363 155.168" stroke="#070707" stroke-width="5" stroke-linecap="round" stroke-linejoin="round"/>
</svg>
