<svg width="1402" height="810" viewBox="0 0 1402 810" fill="none" xmlns="http://www.w3.org/2000/svg">
<path d="M1440 0H0V810H1440V0Z" fill="white"/>
<path d="M1440 0H0V810H1440V0Z" fill="white"/>
<path d="M1440 0H0V810H1440V0Z" fill="white"/>
<path d="M57.1323 739.491C54.1731 721.885 51.1249 701.594 51.1249 701.594L40.5341 704.69C40.5341 704.69 41.5989 709.012 43.9192 720.538C45.3908 728.045 46.7036 734.638 48.528 742.161C32.6513 734.396 13.2242 724.393 13.2242 724.393L9 735.057C9 735.057 12.9795 736.608 23.2207 741.252C31.3132 744.869 38.1915 748.019 47.2534 751.439C36.1032 764.605 13.593 788.984 13.593 788.984L19.273 794.518C19.273 794.518 21.0211 793.116 26.8442 785.437C31.1225 779.82 41.8531 767.834 52.4916 756.677C56.5983 771.667 64.659 809.012 64.659 809.012L72.2938 806.806C72.2938 806.806 72.1349 804.552 69.2647 795.519C67.0365 788.552 63.1778 771.779 60.1264 756.077C75.6916 761.96 103.939 774.14 103.939 774.14L107 766.451C107 766.451 105.15 765.253 96.4569 762.558C89.8042 760.473 74.6967 754.262 60.8956 747.959L63.5179 745.321C76.6515 732.308 93.2942 716.399 93.2942 716.399L85.4242 708.764C85.4242 708.764 82.4523 712.146 74.3884 720.7C68.3461 727.006 63.1142 732.463 57.1323 739.491Z" fill="#328257"/>
<path d="M1248.49 100.027C1251.13 115.736 1253.85 133.84 1253.85 133.84L1263.3 131.078C1263.3 131.078 1262.35 127.221 1260.28 116.938C1258.97 110.24 1257.8 104.358 1256.17 97.6453C1270.34 104.573 1287.67 113.498 1287.67 113.498L1291.44 103.984C1291.44 103.984 1287.89 102.6 1278.75 98.4564C1271.53 95.2291 1265.39 92.4187 1257.31 89.3672C1267.26 77.6208 1287.34 55.8692 1287.34 55.8692L1282.27 50.9318C1282.27 50.9318 1280.71 52.1825 1275.52 59.0341C1271.7 64.0452 1262.13 74.7395 1252.63 84.6936C1248.97 71.3193 1241.78 38 1241.78 38L1234.97 39.9681C1234.97 39.9681 1235.11 41.9788 1237.67 50.0385C1239.66 56.2549 1243.1 71.2201 1245.82 85.2296C1231.93 79.9803 1206.73 69.113 1206.73 69.113L1204 75.9731C1204 75.9731 1205.65 77.0423 1213.41 79.4471C1219.34 81.3075 1232.82 86.8489 1245.14 92.4726L1242.8 94.8264C1231.08 106.437 1216.23 120.631 1216.23 120.631L1223.25 127.442C1223.25 127.442 1225.9 124.425 1233.1 116.794C1238.49 111.167 1243.16 106.298 1248.49 100.027Z" fill="#328257"/>
<path d="M41.4402 38.4136C50.4045 34.1993 63.6887 24.0919 76.6314 29.6081C89.5913 35.1244 104.788 54.1743 106.666 64.2303C108.561 74.3035 102.756 96.8482 79.722 103.221C56.688 109.611 37.3593 99.5035 30 61.1981C30 61.1981 32.4759 42.6279 41.4402 38.4136ZM63.7399 97.7904C70.0235 99.3493 78.3219 96.437 87.2862 89.4818C96.2505 82.5436 96.2505 77.3871 98.5044 70.6374C100.741 63.9048 96.9335 56.9496 91.5549 49.5831C86.1592 42.1996 79.1585 38.2594 72.4993 37.2487C63.7741 35.8953 52.7608 38.602 46.6992 40.8119C40.6547 43.039 37.069 52.4954 36.625 58.7655C36.164 65.0526 38.6399 70.6374 42.6695 80.2994C46.6992 89.9443 57.4564 96.2315 63.7399 97.7904Z" fill="#328257"/>
<path d="M1339.59 282.628C1330.75 277.029 1318.17 264.696 1303.86 268.736C1289.54 272.773 1271.08 290.654 1267.77 300.913C1264.45 311.187 1267.54 335.52 1290.84 345.249C1314.15 354.997 1335.75 347.011 1348.56 307.963C1348.56 307.963 1348.43 288.227 1339.59 282.628ZM1308.32 341.705C1301.53 342.496 1293.21 338.347 1284.74 329.884C1276.26 321.438 1276.95 316.05 1275.48 308.696C1274.03 301.362 1278.95 294.601 1285.56 287.62C1292.2 280.624 1300.06 277.439 1307.18 277.271C1316.51 277.019 1327.7 281.316 1333.76 284.433C1339.8 287.566 1342.3 297.926 1341.94 304.537C1341.58 311.169 1338.25 316.675 1332.74 326.235C1327.23 335.777 1315.12 340.913 1308.32 341.705Z" fill="#328257"/>
<path d="M1404.59 724.051C1398.71 720.329 1390.35 712.128 1380.84 714.814C1371.31 717.498 1359.04 729.389 1356.84 736.21C1354.63 743.041 1356.68 759.221 1372.18 765.691C1387.67 772.172 1402.04 766.862 1410.56 740.897C1410.56 740.897 1410.47 727.774 1404.59 724.051ZM1383.8 763.334C1379.28 763.86 1373.75 761.101 1368.12 755.474C1362.48 749.858 1362.94 746.275 1361.96 741.385C1361 736.509 1364.27 732.013 1368.67 727.371C1373.08 722.719 1378.31 720.601 1383.04 720.489C1389.24 720.322 1396.68 723.179 1400.71 725.252C1404.73 727.335 1406.4 734.224 1406.15 738.62C1405.92 743.029 1403.7 746.691 1400.04 753.047C1396.37 759.392 1388.32 762.807 1383.8 763.334Z" fill="#328257"/>
<path d="M266.298 474.713C255.318 469.568 239.048 457.229 223.195 463.963C207.343 470.697 188.73 493.953 186.409 506.229C184.088 518.526 191.198 546.048 219.41 553.828C247.622 561.629 271.296 549.29 280.31 502.528C280.31 502.528 277.277 479.857 266.298 474.713ZM238.985 547.199C231.289 549.102 221.125 545.547 210.146 537.056C199.166 528.586 199.166 522.291 196.426 514.051C193.666 505.832 198.33 497.341 204.917 488.348C211.526 479.335 220.1 474.524 228.256 473.291C238.964 471.638 252.432 474.943 259.857 477.641C267.26 480.359 271.652 491.904 272.216 499.558C272.781 507.233 269.728 514.051 264.792 525.846C259.857 537.62 246.681 545.296 238.985 547.199Z" fill="#328257"/>
<path d="M109.941 277.074C96.9787 281.522 82 286.368 82 286.368L85.6756 293.988C85.6756 293.988 88.8144 292.638 97.247 289.434C102.752 287.385 107.574 285.563 113.039 283.237C109.16 296.208 104.029 312.146 104.029 312.146L112.64 314C112.64 314 113.307 310.796 115.535 302.477C117.259 295.907 118.78 290.312 120.227 283.034C131.596 289.808 152.884 303.754 152.884 303.754L156.365 298.769C156.365 298.769 155.08 297.623 148.534 294.191C143.744 291.662 133.319 285.059 123.537 278.423C134.368 273.431 161.626 262.656 161.626 262.656L158.991 257.159C158.991 257.159 157.308 257.565 150.827 260.867C145.834 263.428 133.62 268.446 122.114 272.723C124.61 260.225 130.286 237.35 130.286 237.35L124.074 236C124.074 236 123.399 237.553 122.455 244.457C121.715 249.751 118.91 261.948 115.877 273.162L113.551 271.511C102.045 263.225 87.9037 252.646 87.9037 252.646L83.114 259.55C83.114 259.55 86.0496 261.371 93.539 266.397C99.0767 270.17 103.866 273.431 109.941 277.074Z" fill="#328257"/>
<path d="M1299.98 605.383C1309.5 608.672 1320.5 612.262 1320.5 612.262L1317.8 617.895C1317.8 617.895 1315.5 616.898 1309.3 614.531C1305.26 613.008 1301.71 611.664 1297.7 609.945C1300.55 619.539 1304.32 631.328 1304.32 631.328L1297.99 632.699C1297.99 632.699 1297.5 630.332 1295.86 624.176C1294.6 619.316 1293.48 615.176 1292.42 609.793C1284.06 614.805 1268.42 625.121 1268.42 625.121L1265.87 621.434C1265.87 621.434 1266.81 620.586 1271.62 618.043C1275.14 616.176 1282.8 611.289 1289.99 606.379C1282.03 602.691 1262 594.715 1262 594.715L1263.93 590.652C1263.93 590.652 1265.18 590.949 1269.93 593.395C1273.6 595.289 1282.57 599 1291.03 602.168C1289.2 592.922 1285.03 575.996 1285.03 575.996L1289.59 575C1289.59 575 1290.09 576.145 1290.78 581.254C1291.32 585.168 1293.38 594.191 1295.61 602.492L1297.32 601.27C1305.78 595.137 1316.16 587.312 1316.16 587.312L1319.68 592.422C1319.68 592.422 1317.53 593.766 1312.02 597.48C1307.96 600.273 1304.44 602.691 1299.98 605.383Z" fill="#328257"/>
</svg>
