<svg width="300" height="150" viewBox="0 0 385 258" fill="none" xmlns="http://www.w3.org/2000/svg">
<path d="M120.601 73.5165C124.6 68.1636 132.623 68.1637 136.623 73.5165L136.973 73.9847C139.739 77.6871 144.682 79.0116 148.929 77.1883L149.466 76.9577C155.606 74.3217 162.554 78.3333 163.341 84.9687L163.41 85.5491C163.954 90.1386 167.573 93.7571 172.162 94.3015L172.743 94.3704C179.378 95.1575 183.39 102.106 180.754 108.246L180.523 108.783C178.7 113.03 180.024 117.973 183.727 120.739L184.195 121.089C189.548 125.088 189.548 133.111 184.195 137.111L183.727 137.46C180.024 140.227 178.7 145.17 180.523 149.416L180.754 149.953C183.39 156.093 179.378 163.042 172.743 163.829L172.162 163.898C167.573 164.442 163.954 168.061 163.41 172.65L163.341 173.23C162.554 179.866 155.606 183.877 149.466 181.241L148.929 181.011C144.682 179.188 139.739 180.512 136.973 184.214L136.623 184.683C132.623 190.036 124.6 190.036 120.601 184.683L120.251 184.214C117.485 180.512 112.542 179.188 108.295 181.011L107.758 181.241C101.618 183.877 94.6697 179.866 93.8826 173.23L93.8137 172.65C93.2693 168.061 89.6508 164.442 85.0613 163.898L84.4809 163.829C77.8455 163.042 73.8339 156.093 76.47 149.953L76.7005 149.416C78.5238 145.17 77.1993 140.227 73.4969 137.46L73.0287 137.111C67.6759 133.111 67.6759 125.088 73.0287 121.089L73.4969 120.739C77.1993 117.973 78.5238 113.03 76.7005 108.783L76.47 108.246C73.8339 102.106 77.8455 95.1575 84.4809 94.3704L85.0613 94.3015C89.6508 93.7571 93.2693 90.1386 93.8137 85.5491L93.8826 84.9687C94.6697 78.3333 101.618 74.3217 107.758 76.9577L108.295 77.1883C112.542 79.0116 117.485 77.6871 120.251 73.9847L120.601 73.5165Z" fill="#328257"/>
<path d="M129.068 155.62C125.384 155.771 121.748 154.298 118.96 151.525C116.171 148.753 114.459 144.907 114.2 140.835L113.031 122.499L113.186 124.925L116.694 128.462C117.089 128.855 117.547 129.16 118.043 129.361C118.539 129.562 119.062 129.654 119.584 129.633C120.105 129.611 120.614 129.477 121.082 129.236C121.55 128.996 121.967 128.655 122.309 128.232C122.652 127.809 122.914 127.314 123.08 126.773C123.245 126.232 123.311 125.657 123.275 125.081C123.238 124.504 123.099 123.938 122.865 123.413C122.632 122.889 122.309 122.417 121.914 122.025L111.294 111.465C110.899 111.072 110.441 110.766 109.945 110.565C109.449 110.364 108.925 110.272 108.404 110.293C107.882 110.314 107.373 110.449 106.905 110.69C106.438 110.93 106.021 111.272 105.678 111.695L96.4551 123.068C95.7629 123.922 95.4157 125.055 95.4899 126.22C95.564 127.384 96.0535 128.483 96.8506 129.275C97.6478 130.068 98.6872 130.489 99.7404 130.446C100.794 130.403 101.774 129.899 102.466 129.045L105.248 125.25L105.102 122.956L106.262 141.161C106.559 145.813 108.065 150.315 110.601 154.127C113.136 157.938 116.592 160.896 120.553 162.644C124.513 164.392 128.81 164.855 132.924 163.978C137.039 163.101 140.796 160.921 143.744 157.701C144.11 157.302 144.4 156.825 144.595 156.296C144.79 155.767 144.888 155.198 144.883 154.62C144.877 154.043 144.769 153.468 144.564 152.929C144.358 152.39 144.06 151.898 143.686 151.48C143.312 151.062 142.869 150.727 142.383 150.494C141.897 150.261 141.378 150.134 140.854 150.12C140.33 150.107 139.813 150.208 139.331 150.417C138.849 150.625 138.413 150.938 138.046 151.337C135.667 153.949 132.472 155.473 129.068 155.62Z" fill="#F9F9F9"/>
<path d="M128.484 103.175C132.168 103.024 135.804 104.497 138.592 107.27C141.38 110.042 143.093 113.888 143.352 117.96L144.521 136.296L144.366 133.87L140.858 130.333C140.463 129.94 140.005 129.635 139.509 129.434C139.013 129.233 138.49 129.141 137.968 129.162C137.447 129.184 136.938 129.319 136.47 129.559C136.002 129.799 135.585 130.14 135.242 130.563C134.9 130.986 134.638 131.482 134.472 132.022C134.307 132.563 134.24 133.138 134.277 133.714C134.314 134.291 134.453 134.857 134.686 135.382C134.92 135.906 135.243 136.378 135.638 136.77L146.258 147.331C146.653 147.723 147.111 148.029 147.607 148.23C148.103 148.431 148.626 148.524 149.148 148.502C149.67 148.481 150.179 148.346 150.646 148.105C151.114 147.865 151.531 147.523 151.874 147.1L161.097 135.727C161.789 134.873 162.136 133.74 162.062 132.576C161.988 131.412 161.498 130.312 160.701 129.52C159.904 128.727 158.865 128.306 157.811 128.349C156.758 128.392 155.778 128.896 155.085 129.75L152.303 133.545L152.449 135.839L151.289 117.634C150.993 112.983 149.487 108.48 146.951 104.668C144.416 100.857 140.96 97.899 136.999 96.1512C133.038 94.4034 128.742 93.94 124.627 94.817C120.513 95.6939 116.755 97.8737 113.808 101.094C113.441 101.493 113.152 101.971 112.957 102.499C112.761 103.028 112.663 103.597 112.669 104.175C112.674 104.753 112.783 105.327 112.988 105.866C113.194 106.405 113.492 106.897 113.866 107.315C114.24 107.733 114.683 108.068 115.169 108.301C115.654 108.535 116.174 108.662 116.698 108.675C117.221 108.688 117.739 108.587 118.221 108.379C118.702 108.17 119.139 107.857 119.505 107.458C121.884 104.846 125.079 103.322 128.484 103.175Z" fill="#F9F9F9"/>
<path d="M217.839 104.825H235.066V101.291H223.078L234.998 84.1777V81.5527H217.771V85.0868H229.771L217.839 102.2V104.825ZM246.051 105.166C250.12 105.166 252.915 103.178 253.642 100.144L249.801 99.7118C249.245 101.189 247.881 101.962 246.108 101.962C243.449 101.962 241.688 100.212 241.654 97.2232H253.813V95.9618C253.813 89.8368 250.131 87.1436 245.836 87.1436C240.836 87.1436 237.574 90.8141 237.574 96.2004C237.574 101.678 240.79 105.166 246.051 105.166ZM241.665 94.4504C241.79 92.2232 243.438 90.3482 245.892 90.3482C248.256 90.3482 249.847 92.0754 249.87 94.4504H241.665ZM256.653 104.825H260.767V94.5641C260.767 92.3482 262.437 90.78 264.698 90.78C265.392 90.78 266.255 90.905 266.608 91.0186V87.2345C266.233 87.1663 265.585 87.1209 265.13 87.1209C263.13 87.1209 261.46 88.2573 260.823 90.28H260.642V87.3709H256.653V104.825ZM275.595 105.166C280.709 105.166 283.959 101.564 283.959 96.1663C283.959 90.7573 280.709 87.1436 275.595 87.1436C270.482 87.1436 267.232 90.7573 267.232 96.1663C267.232 101.564 270.482 105.166 275.595 105.166ZM275.618 101.871C272.789 101.871 271.402 99.3482 271.402 96.155C271.402 92.9618 272.789 90.405 275.618 90.405C278.402 90.405 279.789 92.9618 279.789 96.155C279.789 99.3482 278.402 101.871 275.618 101.871ZM223.169 143.825H227.328L231.998 127.496H232.18L236.839 143.825H240.998L247.566 120.553H243.032L238.839 137.666H238.635L234.146 120.553H230.021L225.544 137.655H225.328L221.135 120.553H216.601L223.169 143.825ZM252.909 144.178C255.648 144.178 257.284 142.894 258.034 141.428H258.171V143.825H262.125V132.144C262.125 127.53 258.364 126.144 255.034 126.144C251.364 126.144 248.546 127.78 247.637 130.962L251.478 131.507C251.887 130.314 253.046 129.291 255.057 129.291C256.966 129.291 258.012 130.269 258.012 131.985V132.053C258.012 133.235 256.773 133.291 253.694 133.621C250.307 133.985 247.069 134.996 247.069 138.928C247.069 142.36 249.58 144.178 252.909 144.178ZM253.978 141.155C252.262 141.155 251.034 140.371 251.034 138.86C251.034 137.28 252.409 136.621 254.25 136.36C255.33 136.212 257.489 135.939 258.023 135.507V137.564C258.023 139.507 256.455 141.155 253.978 141.155ZM279.417 130.985C278.849 128.03 276.485 126.144 272.394 126.144C268.19 126.144 265.326 128.212 265.338 131.439C265.326 133.985 266.894 135.666 270.247 136.36L273.224 136.985C274.826 137.337 275.576 137.985 275.576 138.973C275.576 140.166 274.281 141.064 272.326 141.064C270.44 141.064 269.213 140.246 268.86 138.678L264.849 139.064C265.36 142.269 268.054 144.166 272.338 144.166C276.701 144.166 279.781 141.905 279.792 138.598C279.781 136.11 278.179 134.587 274.883 133.871L271.906 133.235C270.133 132.837 269.429 132.223 269.44 131.212C269.429 130.03 270.735 129.212 272.451 129.212C274.349 129.212 275.349 130.246 275.667 131.394L279.417 130.985ZM291.26 126.371H287.817V122.189H283.703V126.371H281.226V129.553H283.703V139.257C283.681 142.541 286.067 144.155 289.158 144.064C290.328 144.03 291.135 143.803 291.578 143.655L290.885 140.439C290.658 140.496 290.192 140.598 289.681 140.598C288.646 140.598 287.817 140.235 287.817 138.575V129.553H291.26V126.371ZM301.6 144.166C305.668 144.166 308.464 142.178 309.191 139.144L305.35 138.712C304.793 140.189 303.43 140.962 301.657 140.962C298.998 140.962 297.237 139.212 297.203 136.223H309.362V134.962C309.362 128.837 305.68 126.144 301.384 126.144C296.384 126.144 293.123 129.814 293.123 135.2C293.123 140.678 296.339 144.166 301.6 144.166ZM297.214 133.45C297.339 131.223 298.987 129.348 301.441 129.348C303.805 129.348 305.396 131.075 305.418 133.45H297.214ZM221.385 159.553H216.76L224.953 182.825H230.157L238.362 159.553H233.726L227.68 177.871H227.441L221.385 159.553ZM246.458 183.166C250.526 183.166 253.321 181.178 254.049 178.144L250.208 177.712C249.651 179.189 248.287 179.962 246.515 179.962C243.855 179.962 242.094 178.212 242.06 175.223H254.219V173.962C254.219 167.837 250.537 165.144 246.242 165.144C241.242 165.144 237.98 168.814 237.98 174.2C237.98 179.678 241.196 183.166 246.458 183.166ZM242.071 172.45C242.196 170.223 243.844 168.348 246.299 168.348C248.662 168.348 250.253 170.075 250.276 172.45H242.071ZM257.059 182.825H261.173V172.564C261.173 170.348 262.843 168.78 265.105 168.78C265.798 168.78 266.661 168.905 267.014 169.019V165.235C266.639 165.166 265.991 165.121 265.536 165.121C263.536 165.121 261.866 166.257 261.23 168.28H261.048V165.371H257.059V182.825ZM269.107 182.825H273.22V165.371H269.107V182.825ZM271.175 162.894C272.482 162.894 273.55 161.894 273.55 160.666C273.55 159.428 272.482 158.428 271.175 158.428C269.857 158.428 268.789 159.428 268.789 160.666C268.789 161.894 269.857 162.894 271.175 162.894ZM285.651 165.371H282.026V163.996C282.026 162.632 282.595 161.871 284.129 161.871C284.776 161.871 285.322 162.019 285.663 162.121L286.492 158.939C285.958 158.757 284.788 158.462 283.367 158.462C280.333 158.462 277.913 160.2 277.913 163.723V165.371H275.333V168.553H277.913V182.825H282.026V168.553H285.651V165.371ZM288.233 182.825H292.347V165.371H288.233V182.825ZM290.301 162.894C291.608 162.894 292.676 161.894 292.676 160.666C292.676 159.428 291.608 158.428 290.301 158.428C288.983 158.428 287.915 159.428 287.915 160.666C287.915 161.894 288.983 162.894 290.301 162.894ZM303.664 183.166C307.732 183.166 310.528 181.178 311.255 178.144L307.414 177.712C306.857 179.189 305.494 179.962 303.721 179.962C301.062 179.962 299.3 178.212 299.266 175.223H311.425V173.962C311.425 167.837 307.744 165.144 303.448 165.144C298.448 165.144 295.187 168.814 295.187 174.2C295.187 179.678 298.403 183.166 303.664 183.166ZM299.278 172.45C299.403 170.223 301.05 168.348 303.505 168.348C305.869 168.348 307.459 170.075 307.482 172.45H299.278ZM320.743 183.132C323.743 183.132 325.095 181.348 325.743 180.075H325.993V182.825H330.038V159.553H325.913V168.257H325.743C325.118 166.996 323.834 165.144 320.754 165.144C316.72 165.144 313.55 168.303 313.55 174.121C313.55 179.871 316.629 183.132 320.743 183.132ZM321.89 179.757C319.175 179.757 317.743 177.371 317.743 174.098C317.743 170.848 319.152 168.519 321.89 168.519C324.538 168.519 325.993 170.712 325.993 174.098C325.993 177.485 324.515 179.757 321.89 179.757Z" fill="#18884D"/>
</svg>
